<?xml version="1.0" standalone="no"?>
<!DOCTYPE svg PUBLIC "-//W3C//DTD SVG 20010904//EN"
 "http://www.w3.org/TR/2001/REC-SVG-20010904/DTD/svg10.dtd">
<svg version="1.0" xmlns="http://www.w3.org/2000/svg"
 width="320.000000pt" height="400.000000pt" viewBox="0 0 320.000000 400.000000"
 preserveAspectRatio="xMidYMid meet">

<g transform="translate(0.000000,400.000000) scale(0.100000,-0.100000)"
fill="#000000" stroke="none">
<path d="M70 2776 c0 -22 3 -27 11 -19 8 8 8 16 0 30 -9 16 -10 14 -11 -11z"/>
<path d="M2472 2765 c0 -16 2 -22 5 -12 2 9 2 23 0 30 -3 6 -5 -1 -5 -18z"/>
<path d="M2 2740 c1 -16 6 -30 11 -30 5 0 4 -7 -3 -15 -10 -12 -10 -21 -1 -41
6 -15 7 -23 1 -19 -6 4 -10 -31 -10 -98 0 -96 2 -105 20 -110 11 -3 20 -10 20
-16 0 -15 -27 -14 -33 2 -3 7 -6 6 -6 -5 -1 -12 11 -19 44 -24 38 -5 43 -8 30
-18 -9 -6 -17 -26 -17 -44 -1 -37 -1 -37 -33 -16 -31 20 -33 1 -3 -20 l22 -16
-22 0 c-12 0 -22 -4 -22 -10 0 -5 5 -10 11 -10 5 0 7 -4 4 -10 -3 -5 3 -10 14
-10 22 0 28 -14 11 -25 -6 -4 -17 -1 -25 5 -13 10 -15 4 -14 -39 2 -56 21 -78
59 -66 22 7 28 -10 8 -18 -7 -3 -3 -6 10 -6 13 -1 22 5 22 14 0 22 17 18 23
-5 3 -11 10 -20 16 -20 6 0 8 7 5 15 -7 18 14 47 27 39 5 -3 9 1 9 9 0 8 14
20 30 26 25 8 32 7 36 -4 7 -17 51 -16 66 2 14 17 23 16 44 -4 24 -24 51 -24
57 -1 4 15 1 18 -14 13 -10 -4 -19 -2 -19 3 0 6 6 12 13 15 9 3 9 7 -2 20 -11
14 -11 18 3 23 10 4 15 13 12 20 -3 8 4 18 14 24 11 6 19 16 17 23 -1 7 5 12
13 12 8 0 14 -6 12 -14 -2 -9 3 -11 13 -7 9 3 14 2 11 -2 -6 -10 29 -42 45
-42 6 0 8 9 4 22 -6 16 -4 20 8 15 8 -3 30 5 49 18 32 21 39 23 73 12 20 -6
39 -17 42 -23 3 -7 11 -10 19 -7 21 8 17 20 -8 28 -15 4 -18 8 -10 12 9 3 4
10 -14 19 -21 11 -30 12 -41 2 -12 -10 -18 -9 -29 7 -8 10 -11 28 -8 38 5 16
2 18 -18 12 -21 -7 -20 -5 7 19 21 19 38 26 58 23 15 -2 30 0 33 5 3 4 -9 8
-26 8 -28 0 -31 2 -24 23 6 20 4 19 -15 -5 -26 -32 -45 -37 -36 -9 5 16 0 18
-42 18 -27 0 -36 -2 -20 -4 16 -3 27 -11 27 -20 0 -12 -3 -13 -13 -4 -9 6 -17
7 -23 1 -6 -6 -20 0 -39 15 -26 21 -28 26 -15 36 13 9 12 10 -3 5 -10 -3 -29
1 -43 10 -13 9 -24 12 -24 6 0 -6 9 -13 19 -17 24 -7 36 -35 16 -35 -8 0 -15
6 -15 13 0 17 -42 37 -75 37 -16 0 -25 6 -25 15 0 8 -4 15 -10 15 -5 0 -7 6
-4 14 3 8 1 17 -4 20 -5 3 -12 -4 -15 -15 -7 -25 -33 -20 -29 5 2 9 -2 16 -8
16 -5 0 -10 -6 -10 -14 0 -7 -6 -19 -14 -26 -8 -6 -12 -18 -9 -26 4 -10 -2
-14 -21 -14 -14 0 -26 -5 -26 -11 0 -7 11 -9 30 -6 16 4 32 2 35 -3 3 -6 -3
-10 -14 -10 -12 0 -20 -6 -18 -12 1 -7 -8 -14 -20 -16 -13 -2 -23 1 -23 7 0 6
8 11 18 12 14 0 14 2 -3 8 -11 5 -23 7 -26 5 -3 -2 -17 8 -29 21 -27 29 -40
32 -40 8 0 -9 -3 -14 -6 -10 -11 11 7 46 22 40 7 -3 14 0 14 5 0 6 -9 14 -20
17 -24 7 -26 23 -5 31 8 4 15 15 15 26 0 17 -3 18 -15 8 -12 -10 -15 -10 -15
4 0 9 7 16 15 16 8 0 15 4 15 9 0 17 -19 22 -40 11 -19 -10 -21 -9 -19 12 3
28 -19 88 -32 88 -5 0 -8 -13 -7 -30z m44 -163 c11 4 14 -5 14 -35 0 -23 -5
-44 -10 -47 -6 -4 -10 9 -10 30 0 29 -3 36 -15 31 -10 -4 -15 1 -15 16 0 16 3
19 11 11 6 -6 18 -9 25 -6z m-29 -79 c-3 -8 -6 -5 -6 6 -1 11 2 17 5 13 3 -3
4 -12 1 -19z m85 -18 c-2 -17 -7 -32 -11 -34 -13 -8 -34 12 -26 24 6 9 9 9 16
-1 6 -11 9 -9 9 7 0 17 8 34 15 34 1 0 0 -14 -3 -30z m192 -5 c3 -8 1 -15 -4
-15 -6 0 -10 7 -10 15 0 8 2 15 4 15 2 0 6 -7 10 -15z m-149 -44 c-4 -17 -11
-31 -16 -31 -4 0 -6 -13 -2 -30 3 -18 1 -30 -5 -30 -20 0 -23 20 -8 52 9 17
16 39 16 48 0 18 10 33 18 26 2 -3 1 -18 -3 -35z m325 21 c0 -5 -7 -17 -16
-28 -8 -10 -14 -14 -11 -9 2 6 7 18 10 28 7 17 17 23 17 9z m-241 -39 c9 -17
11 -17 24 1 9 12 16 15 21 8 3 -6 2 -13 -3 -16 -5 -3 -7 -15 -4 -26 4 -16 2
-19 -11 -14 -9 4 -16 1 -16 -6 0 -6 -6 -10 -12 -7 -7 2 -13 10 -13 18 0 8 -12
15 -27 17 -21 2 -28 -1 -28 -13 0 -9 -5 -13 -10 -10 -14 8 6 35 26 35 8 0 11
6 8 15 -9 22 32 20 45 -2z m123 -9 c21 6 21 5 -2 -6 -14 -7 -29 -17 -33 -23
-5 -6 -7 -3 -3 8 3 9 1 17 -4 17 -6 0 -10 5 -10 11 0 8 4 8 15 -1 8 -6 24 -9
37 -6z m98 -13 c0 -19 -23 -71 -31 -71 -12 0 -11 10 2 49 10 28 29 43 29 22z
m27 -33 c-3 -7 -5 -2 -5 12 0 14 2 19 5 13 2 -7 2 -19 0 -25z m-137 -4 c0 -3
-7 -13 -16 -21 -19 -20 -11 -61 17 -85 11 -10 18 -22 15 -27 -4 -5 2 -14 11
-20 16 -9 16 -12 3 -21 -22 -14 -27 -13 -35 13 -6 20 -8 20 -12 3 -4 -15 -7
-16 -14 -5 -7 11 -10 9 -15 -8 -4 -13 -10 -23 -14 -23 -15 0 -18 51 -4 65 11
10 11 14 1 18 -9 3 -9 9 1 26 15 25 16 51 2 51 -5 0 -10 -4 -10 -10 0 -5 -7
-10 -15 -10 -8 0 -15 4 -15 8 0 17 25 32 52 32 15 0 28 5 28 10 0 6 5 10 10
10 6 0 10 -3 10 -6z m-173 -39 c0 -8 -4 -12 -8 -9 -4 2 -10 0 -14 -6 -9 -15
-25 -12 -25 4 0 12 11 19 41 25 3 0 6 -6 6 -14z m59 -4 c-3 -5 1 -14 9 -21 9
-8 13 -28 12 -60 -1 -26 -5 -43 -8 -38 -5 8 -21 7 -52 -1 -65 -16 -70 -14 -51
14 12 19 20 23 34 15 17 -9 30 -4 30 12 0 4 -10 8 -22 8 -17 0 -19 3 -9 9 8 5
9 11 3 15 -5 3 -12 -1 -16 -9 -3 -8 -12 -15 -21 -15 -8 0 -15 -4 -15 -10 0 -5
-4 -10 -10 -10 -17 0 -11 21 13 41 25 21 58 24 74 8 8 -8 16 -8 30 0 15 8 15
10 2 11 -9 0 -24 9 -34 20 -18 20 -17 20 9 20 15 0 25 -4 22 -9z m281 3 c-3
-3 -12 -4 -19 -1 -8 3 -5 6 6 6 11 1 17 -2 13 -5z m-157 -14 c0 -5 -7 -10 -15
-10 -8 0 -15 5 -15 10 0 6 7 10 15 10 8 0 15 -4 15 -10z m50 -19 c0 -11 -39
-25 -47 -18 -3 3 -2 10 2 16 8 13 45 15 45 2z m-310 -11 c0 -5 -4 -10 -10 -10
-5 0 -10 5 -10 10 0 6 5 10 10 10 6 0 10 -4 10 -10z m-8 -60 c0 -11 1 -25 2
-32 1 -7 -13 -13 -31 -14 -38 -2 -42 6 -13 24 11 7 20 19 20 27 0 23 20 18 22
-5z m-22 -70 c0 -5 -4 -10 -10 -10 -5 0 -10 5 -10 10 0 6 5 10 10 10 6 0 10
-4 10 -10z"/>
<path d="M225 2240 c3 -5 8 -10 11 -10 2 0 4 5 4 10 0 6 -5 10 -11 10 -5 0 -7
-4 -4 -10z"/>
<path d="M185 2760 c3 -5 11 -10 16 -10 6 0 7 5 4 10 -3 6 -11 10 -16 10 -6 0
-7 -4 -4 -10z"/>
<path d="M461 2744 c0 -11 3 -14 6 -6 3 7 2 16 -1 19 -3 4 -6 -2 -5 -13z"/>
<path d="M41 2734 c0 -11 3 -14 6 -6 3 7 2 16 -1 19 -3 4 -6 -2 -5 -13z"/>
<path d="M111 2734 c0 -11 3 -14 6 -6 3 7 2 16 -1 19 -3 4 -6 -2 -5 -13z"/>
<path d="M80 2725 c0 -22 52 -51 70 -40 17 10 11 -7 -7 -22 -16 -13 -16 -13 5
-3 15 7 21 17 18 27 -3 8 -6 17 -6 19 0 2 -13 4 -30 4 -17 0 -33 7 -39 18 -10
16 -10 15 -11 -3z"/>
<path d="M160 2725 c0 -8 6 -15 14 -15 22 0 28 17 10 24 -22 9 -24 8 -24 -9z"/>
<path d="M294 2698 c11 -31 19 -29 20 5 1 15 -4 23 -15 23 -13 0 -14 -5 -5
-28z"/>
<path d="M471 2704 c0 -11 3 -14 6 -6 3 7 2 16 -1 19 -3 4 -6 -2 -5 -13z"/>
<path d="M721 2704 c0 -11 3 -14 6 -6 3 7 2 16 -1 19 -3 4 -6 -2 -5 -13z"/>
<path d="M1050 2701 c0 -6 5 -13 10 -16 6 -3 10 1 10 9 0 9 -4 16 -10 16 -5 0
-10 -4 -10 -9z"/>
<path d="M1277 2702 c-16 -2 -26 -8 -24 -15 2 -7 14 -11 26 -10 13 2 21 -3 21
-12 0 -8 7 -15 15 -15 18 0 18 1 3 31 -10 18 -20 23 -41 21z"/>
<path d="M620 2686 c0 -8 5 -18 10 -21 6 -3 10 3 10 14 0 12 -4 21 -10 21 -5
0 -10 -6 -10 -14z"/>
<path d="M656 2675 c-5 -18 -3 -31 3 -33 6 -2 11 -10 11 -18 0 -8 5 -14 10
-14 6 0 10 7 10 15 0 8 -5 15 -11 15 -6 0 -9 6 -6 13 2 6 1 21 -3 32 -6 17 -8
16 -14 -10z"/>
<path d="M760 2688 c0 -6 -6 -19 -14 -27 -12 -14 -11 -19 6 -36 20 -20 20 -20
13 6 -4 16 -2 30 4 33 14 9 14 36 1 36 -5 0 -10 -5 -10 -12z"/>
<path d="M870 2685 c-14 -16 -10 -18 14 -9 9 3 16 10 16 15 0 14 -16 11 -30
-6z"/>
<path d="M1345 2690 c3 -5 8 -10 11 -10 2 0 4 5 4 10 0 6 -5 10 -11 10 -5 0
-7 -4 -4 -10z"/>
<path d="M1373 2686 c3 -7 1 -18 -5 -24 -8 -8 -4 -9 12 -5 19 5 22 3 17 -10
-7 -19 9 -33 16 -15 4 10 8 9 16 -2 6 -9 11 -10 11 -3 0 6 10 9 23 7 l22 -5
-22 10 c-15 7 -23 19 -23 36 0 14 -4 25 -9 25 -5 0 -8 -7 -7 -16 0 -9 -5 -19
-11 -21 -8 -3 -13 4 -13 16 0 13 -6 21 -16 21 -10 0 -14 -6 -11 -14z"/>
<path d="M1475 2691 c-3 -5 -1 -12 4 -15 13 -8 42 4 35 15 -7 12 -31 12 -39 0z"/>
<path d="M1660 2686 c0 -8 5 -18 10 -21 6 -3 10 3 10 14 0 12 -4 21 -10 21 -5
0 -10 -6 -10 -14z"/>
<path d="M1840 2690 c0 -5 4 -10 9 -10 6 0 13 5 16 10 3 6 -1 10 -9 10 -9 0
-16 -4 -16 -10z"/>
<path d="M336 2675 c-11 -8 -16 -21 -13 -30 9 -21 20 -19 35 6 17 27 3 42 -22
24z"/>
<path d="M550 2666 c0 -14 5 -26 10 -26 6 0 10 9 10 19 0 11 -4 23 -10 26 -6
4 -10 -5 -10 -19z"/>
<path d="M951 2674 c0 -11 3 -14 6 -6 3 7 2 16 -1 19 -3 4 -6 -2 -5 -13z"/>
<path d="M1773 2680 c-13 -5 -23 -15 -22 -22 0 -10 2 -10 6 0 2 6 14 12 26 12
12 0 29 5 37 10 12 8 12 10 -5 9 -11 0 -30 -4 -42 -9z"/>
<path d="M190 2662 c-8 -9 -16 -20 -16 -24 -1 -5 -2 -11 -3 -15 -1 -5 -6 -1
-11 7 -8 12 -10 12 -10 -5 0 -18 8 -20 60 -22 37 -1 60 2 60 9 0 5 -7 8 -15 4
-8 -3 -15 -1 -15 4 0 6 -9 10 -20 10 -11 0 -20 5 -20 11 0 6 9 9 20 6 24 -6
28 18 4 27 -19 7 -16 8 -34 -12z"/>
<path d="M262 2650 c0 -14 2 -19 5 -12 2 6 2 18 0 25 -3 6 -5 1 -5 -13z"/>
<path d="M600 2651 c0 -11 5 -23 10 -26 6 -3 10 3 10 14 0 11 -4 23 -10 26 -5
3 -10 -3 -10 -14z"/>
<path d="M692 2659 c2 -6 8 -10 13 -10 5 0 11 4 13 10 2 6 -4 11 -13 11 -9 0
-15 -5 -13 -11z"/>
<path d="M1048 2663 c7 -3 16 -2 19 1 4 3 -2 6 -13 5 -11 0 -14 -3 -6 -6z"/>
<path d="M1835 2654 c-38 -14 -39 -14 -6 -9 18 3 46 5 62 5 16 0 29 5 29 10 0
14 -36 11 -85 -6z"/>
<path d="M377 2645 c-4 -8 -2 -17 4 -20 11 -7 41 20 32 29 -11 11 -31 6 -36
-9z"/>
<path d="M1625 2650 c-3 -5 1 -10 9 -10 9 0 16 5 16 10 0 6 -4 10 -9 10 -6 0
-13 -4 -16 -10z"/>
<path d="M1695 2650 c-3 -5 1 -10 10 -10 9 0 13 5 10 10 -3 6 -8 10 -10 10 -2
0 -7 -4 -10 -10z"/>
<path d="M2156 2637 c3 -10 9 -15 12 -12 3 3 0 11 -7 18 -10 9 -11 8 -5 -6z"/>
<path d="M123 2605 c0 -22 2 -30 4 -17 2 12 2 30 0 40 -3 9 -5 -1 -4 -23z"/>
<path d="M1175 2630 c-3 -5 -2 -10 4 -10 5 0 18 -3 28 -7 17 -6 17 -6 1 10
-19 20 -24 21 -33 7z"/>
<path d="M1320 2590 c-4 -66 -4 -65 10 -115 16 -56 17 -77 3 -82 -7 -3 -9 3
-6 16 3 12 1 21 -6 21 -6 0 -11 -7 -11 -15 0 -33 -19 -12 -25 28 -7 37 -9 39
-16 20 -5 -13 -14 -23 -20 -23 -7 0 -9 -10 -7 -25 4 -20 1 -25 -16 -26 -19 0
-19 -1 4 -11 l25 -11 -30 -7 c-29 -7 -27 -12 4 -14 28 -2 21 -24 -8 -28 -23
-3 -31 0 -35 14 -4 16 -7 17 -24 7 -19 -12 -19 -13 -1 -32 12 -13 38 -23 69
-27 49 -6 50 -6 51 19 1 25 2 25 8 -3 7 -32 37 -48 64 -34 9 5 22 6 27 3 21
-13 8 -22 -32 -23 -42 -2 -65 -19 -48 -36 6 -6 17 -3 28 7 12 11 26 15 37 11
9 -4 20 -2 25 6 10 16 50 3 50 -16 0 -8 5 -12 10 -9 17 11 11 25 -15 35 -14 5
-25 16 -25 25 0 19 16 20 24 0 8 -21 26 -19 26 4 0 26 10 51 21 51 5 0 9 -11
9 -24 0 -23 3 -24 42 -18 l43 5 -27 -24 c-22 -21 -24 -27 -13 -42 15 -21 47
-23 39 -2 -8 19 10 19 26 0 19 -23 3 -54 -28 -52 -25 2 -27 -1 -27 -35 -1 -27
4 -38 14 -38 8 0 11 -3 7 -7 -13 -13 -40 -9 -60 10 -11 9 -26 17 -33 17 -7 0
-13 11 -13 25 0 14 -4 25 -10 25 -5 0 -10 6 -10 13 0 7 -9 18 -21 25 -26 16
-53 -2 -46 -30 3 -10 1 -18 -5 -18 -5 0 -7 -4 -4 -8 3 -5 1 -22 -4 -38 l-9
-29 2 30 c1 39 -9 56 -31 49 -13 -5 -14 -4 -4 4 11 8 11 10 -1 15 -23 9 -32
-5 -32 -51 0 -40 5 -46 33 -43 20 3 13 -30 -8 -36 -11 -3 -20 -14 -20 -24 0
-12 -7 -19 -20 -19 -11 0 -20 -7 -20 -16 0 -8 -4 -12 -10 -9 -20 12 -10 34 18
38 19 3 16 4 -14 6 -23 0 -47 7 -53 15 -16 20 -83 27 -76 8 3 -7 5 -16 5 -18
0 -3 5 -2 10 1 6 3 16 3 22 -1 9 -6 5 -10 -12 -15 -22 -6 -23 -7 -4 -8 24 -1
39 -27 23 -37 -6 -3 -19 3 -30 15 -11 12 -21 21 -22 21 -1 0 -17 4 -35 9 -29
9 -32 8 -27 -8 5 -16 1 -17 -42 -11 -26 4 -53 5 -60 3 -7 -3 -13 0 -13 6 0 6
-4 11 -10 11 -5 0 -10 -6 -10 -14 0 -15 42 -26 99 -26 24 0 32 -3 22 -9 -9 -6
-10 -14 -4 -26 5 -9 13 -16 16 -16 25 3 30 0 20 -10 -20 -20 -105 -18 -135 2
-14 11 -31 19 -37 19 -6 0 -11 4 -11 10 0 5 6 7 14 4 8 -3 17 -1 21 5 3 7 -2
11 -14 11 -20 0 -27 19 -21 59 1 8 -4 11 -13 8 -7 -3 -20 -1 -27 3 -8 5 -18 6
-23 3 -6 -3 1 -12 14 -19 24 -14 24 -14 -8 -12 -17 1 -30 5 -28 8 2 4 -5 14
-16 23 -18 16 -21 16 -35 2 -20 -20 -27 -19 -20 3 8 23 -60 47 -69 24 -4 -11
-8 -12 -20 -2 -17 14 -106 25 -104 13 1 -4 1 -20 0 -35 -1 -39 -19 -35 -23 5
-2 24 -8 33 -25 35 -13 2 -23 6 -23 10 -1 26 -17 31 -63 17 -63 -19 -95 -7
-65 23 9 9 9 15 0 24 -9 9 -12 7 -12 -10 0 -12 -6 -21 -12 -19 -8 1 -12 -7
-11 -23 1 -14 0 -19 -3 -12 -8 17 -24 5 -17 -13 6 -18 39 -20 46 -2 3 6 6 -7
6 -30 1 -45 21 -62 21 -18 0 14 5 25 10 25 6 0 10 -6 10 -14 0 -8 6 -21 14
-29 13 -12 7 -16 -40 -26 -58 -13 -66 -24 -33 -42 15 -8 24 -8 32 0 14 14 57
14 57 1 0 -5 -4 -10 -10 -10 -5 0 -10 -7 -10 -15 0 -7 -8 -19 -17 -25 -17 -10
-17 -10 0 -20 23 -15 22 -30 -3 -30 -11 0 -20 5 -20 10 0 6 -7 10 -16 10 -27
0 -9 -25 22 -31 25 -4 26 -6 9 -11 -24 -7 -62 -5 -71 5 -13 12 -22 7 -28 -15
-7 -22 -7 -22 -15 -3 -5 11 -7 23 -4 28 2 4 -8 7 -24 8 l-28 1 28 12 28 12
-28 13 -28 13 23 11 c12 5 22 16 22 24 0 7 6 13 14 13 24 0 30 22 11 37 -17
12 -17 13 -2 13 9 0 17 5 17 10 0 6 -7 10 -15 10 -8 0 -15 5 -15 10 0 6 7 10
15 10 18 0 20 19 3 21 -26 3 -43 -3 -67 -22 -19 -15 -26 -17 -33 -7 -6 10 -8
8 -8 -4 0 -10 7 -18 15 -18 8 0 15 -4 15 -10 0 -5 -4 -10 -9 -10 -5 0 -17 -3
-27 -7 -13 -5 -16 -3 -11 10 3 9 2 17 -4 17 -7 0 -8 12 -4 30 6 27 4 30 -18
30 -21 0 -24 -4 -21 -22 l5 -23 -10 22 c-6 12 -22 25 -36 29 -14 3 -25 10 -25
15 0 5 -4 9 -10 9 -6 0 -10 -297 -10 -849 0 -801 1 -850 17 -854 17 -4 17 -5
1 -6 -17 -1 -18 -17 -18 -191 l0 -190 1020 0 c860 0 1020 2 1020 14 0 7 7 19
15 26 8 7 15 26 15 43 0 38 18 25 26 -19 7 -40 14 -43 14 -6 0 32 14 43 24 20
8 -21 34 18 41 63 6 35 2 46 -40 110 -52 77 -182 195 -227 205 -33 8 -35 18
-8 37 18 12 18 15 4 35 -8 12 -34 32 -57 43 -73 37 -125 101 -152 189 -14 45
19 0 49 -67 30 -66 64 -98 44 -42 -6 17 -8 33 -5 36 4 3 0 20 -8 39 -12 28
-11 32 1 27 8 -3 11 -10 7 -16 -3 -6 -1 -7 5 -3 15 9 15 12 -1 28 -7 7 -23 29
-36 48 l-23 35 30 -33 c16 -18 39 -34 51 -35 24 -2 27 -10 36 -112 5 -63 9
-74 43 -108 59 -60 67 -70 93 -107 13 -19 46 -58 74 -85 27 -28 70 -73 95
-100 25 -28 57 -58 70 -67 l25 -16 -46 -91 -46 -91 524 0 523 0 0 146 c0 122
-2 145 -14 141 -14 -6 -32 21 -21 31 3 3 5 0 5 -6 0 -7 6 -12 14 -12 12 0 14
19 14 95 0 52 -5 95 -9 95 -5 0 -4 12 1 26 13 33 13 34 -6 27 -10 -4 -17 1
-21 16 -3 11 -10 21 -15 21 -14 0 -38 -26 -38 -41 0 -16 -13 -3 -16 16 -1 8 2
15 7 15 5 0 9 7 9 15 0 22 -27 18 -40 -5 -6 -11 -16 -20 -23 -19 -9 0 -9 2 1
6 6 2 12 11 12 19 0 8 5 14 10 14 6 0 10 7 10 15 0 8 -6 15 -12 15 -9 0 -9 3
1 9 18 12 6 42 -14 35 -17 -7 -20 7 -6 22 6 5 4 17 -6 29 -15 20 -15 20 -9 -2
7 -23 -12 -63 -29 -63 -5 0 -23 7 -39 15 -42 22 -74 19 -79 -7 -4 -20 -4 -20
-6 4 0 15 -5 29 -9 32 -5 3 -8 26 -8 51 1 30 -3 45 -11 45 -7 0 -13 -5 -13
-11 0 -6 -9 -8 -20 -4 -13 4 -20 2 -20 -7 0 -7 -10 2 -22 21 -13 20 -24 29
-26 21 -3 -7 1 -16 7 -20 17 -10 17 -70 0 -82 -10 -7 -8 -8 9 -3 19 5 22 3 22
-21 0 -21 -3 -24 -13 -15 -16 13 -27 5 -27 -20 0 -13 10 -19 38 -22 31 -3 29
-4 -14 -5 -42 -2 -51 1 -51 16 0 9 4 23 9 29 13 16 3 43 -16 43 -8 0 -18 9
-21 21 -4 12 -12 18 -21 15 -8 -3 -14 0 -14 7 0 24 39 14 45 -12 4 -14 9 -21
13 -15 4 5 14 9 22 9 24 0 25 36 1 42 -11 3 -18 9 -15 14 3 5 0 9 -5 9 -6 0
-10 5 -9 11 2 6 -3 14 -9 16 -8 3 -13 -4 -13 -16 0 -12 -4 -21 -10 -21 -5 0
-10 9 -10 20 0 11 -7 20 -15 20 -8 0 -15 -4 -15 -10 0 -5 -5 -10 -11 -10 -6 0
-8 7 -5 16 6 17 1 17 -49 -1 -18 -6 -18 -5 -2 5 18 12 24 40 7 40 -5 0 -10 11
-10 25 0 14 5 25 10 25 6 0 10 -11 10 -24 0 -26 18 -38 65 -42 17 -1 23 0 14
2 -28 8 -41 94 -15 94 11 0 14 10 10 40 -3 26 -1 40 7 40 6 0 9 -6 6 -13 -3
-8 -1 -20 4 -28 7 -11 9 -9 9 8 0 33 -10 52 -25 47 -9 -4 -15 4 -18 23 l-4 28
-2 -29 c-1 -21 -5 -27 -16 -22 -8 3 -15 1 -15 -4 0 -22 -29 -8 -42 20 -8 19
-18 28 -27 25 -11 -4 -13 3 -8 36 3 23 11 47 17 53 9 8 10 1 6 -29 -4 -26 -3
-31 2 -15 4 14 17 29 29 34 19 9 23 31 14 79 -3 18 -22 4 -35 -25 l-14 -33 -1
37 c-1 20 -4 44 -8 54 -4 12 -3 15 5 10 7 -4 12 -2 12 3 0 15 -30 14 -31 -1
-1 -7 -5 3 -9 22 -5 19 -4 41 0 50 7 11 10 5 10 -20 0 -19 4 -30 8 -23 4 6 5
35 2 65 -2 33 -5 43 -8 25 -6 -45 -22 -20 -23 36 0 29 -4 72 -8 97 -8 44 -9
44 -10 -22 -1 -67 -11 -88 -34 -70 -7 6 -23 12 -37 14 -14 2 -26 11 -28 21 -3
16 -1 17 16 8 26 -14 72 -14 72 0 0 5 -8 9 -17 8 -33 -3 -44 1 -41 14 2 6 -2
12 -7 12 -6 0 -9 -3 -8 -7 2 -4 -5 -5 -15 -2 -9 3 -24 8 -32 11 -11 3 -9 8 10
18 14 7 29 11 33 8 5 -3 7 3 5 13 -2 11 -11 17 -19 15 -8 -2 -26 -6 -41 -9
-26 -4 -28 -2 -28 27 0 17 5 31 10 31 6 0 10 -4 10 -10 0 -5 7 -10 16 -10 14
0 14 2 3 16 -11 14 -10 19 10 35 30 24 21 49 -18 49 -32 0 -48 31 -30 59 8 13
10 12 6 -6 -7 -30 16 -49 36 -29 11 11 17 12 26 3 8 -8 11 -8 11 1 0 7 -4 12
-10 12 -5 0 -10 7 -10 15 0 8 5 15 10 15 6 0 10 9 10 21 0 11 -4 17 -10 14 -5
-3 -10 0 -10 8 0 9 -9 12 -30 9 -17 -2 -30 0 -30 6 0 6 -2 16 -5 24 -4 10 7
13 45 11 27 0 50 3 50 8 0 10 -21 13 -59 10 -13 -1 -28 4 -32 11 -7 11 -9 11
-9 0 0 -7 -5 -10 -11 -6 -8 5 -10 -6 -7 -34 2 -22 0 -39 -3 -36 -4 2 -17 -51
-29 -119 -12 -67 -26 -140 -31 -162 -10 -50 -5 -56 11 -13 6 18 17 44 24 57
l11 24 3 -22 c2 -12 -2 -29 -9 -37 -10 -13 -10 -17 1 -24 8 -5 20 -33 27 -62
10 -45 10 -55 -3 -64 -8 -6 -14 -16 -14 -23 0 -6 -4 -11 -10 -11 -5 0 -10 -9
-10 -19 0 -11 5 -23 10 -26 15 -9 12 -25 -5 -25 -8 0 -15 9 -15 19 0 10 -7 21
-15 25 -22 8 -20 -43 2 -59 16 -12 15 -13 -8 -8 -21 4 -25 9 -21 33 2 15 0 36
-5 45 -7 12 -14 -9 -26 -76 -11 -62 -13 -96 -7 -104 7 -9 5 -16 -5 -25 -8 -7
-15 -23 -15 -36 l0 -24 -127 0 -128 0 0 -98 c0 -53 4 -110 9 -127 8 -27 7 -28
-6 -12 -13 18 -15 16 -32 -20 -9 -21 -26 -45 -38 -52 -15 -9 -18 -9 -13 0 5 7
4 10 -2 6 -5 -3 -23 8 -39 26 -51 55 -59 74 -12 27 25 -25 52 -46 59 -48 8 -2
-13 24 -46 57 -61 62 -65 74 -17 44 l27 -17 -19 22 c-24 27 -6 29 19 2 10 -11
25 -20 34 -20 14 1 14 2 -1 10 -9 6 -24 24 -32 42 -14 27 -14 34 -2 47 7 9 25
40 39 69 21 41 24 54 13 58 -8 3 -19 26 -26 52 -18 65 -18 64 -51 45 -27 -16
-35 -41 -10 -36 6 2 10 0 9 -5 -1 -4 2 -19 6 -34 6 -19 2 -39 -14 -70 -44 -86
-50 -100 -50 -115 0 -13 -3 -13 -15 -3 -15 13 -25 -3 -41 -65 -3 -14 -10 -25
-15 -25 -12 0 -12 -37 0 -44 13 -8 20 -56 9 -62 -6 -4 -5 -9 2 -14 9 -6 8 -22
-6 -68 -10 -33 -21 -59 -24 -57 -3 2 -6 -11 -6 -28 -10 -256 -22 -346 -52
-387 -31 -43 -33 -58 -9 -76 22 -16 22 -16 -10 -10 -27 4 -33 2 -33 -12 0 -13
9 -17 39 -17 22 -1 37 3 34 8 -3 5 8 7 23 5 35 -4 45 -33 15 -43 -11 -3 -37
-1 -58 4 -21 6 -55 11 -76 11 -41 0 -100 21 -112 39 -11 20 15 41 51 41 22 0
38 6 46 19 6 10 16 17 22 15 6 -2 22 13 35 33 27 42 37 105 51 323 5 80 13
177 19 215 6 39 11 87 13 107 1 20 5 35 9 33 4 -3 9 9 13 26 8 41 8 51 -2 45
-4 -2 -6 11 -4 30 8 66 -1 79 -67 92 -113 24 -202 110 -238 232 -24 82 -21
217 6 325 13 50 24 95 25 100 0 6 4 12 7 15 16 13 49 92 43 102 -4 6 -3 8 4 4
16 -10 53 47 41 65 -5 7 -9 26 -9 42 0 15 -4 27 -9 27 -15 0 -22 -30 -11 -50
7 -14 5 -24 -11 -42 -18 -20 -20 -21 -15 -3 l6 20 -16 -20 c-15 -19 -15 -19
-9 10 5 22 4 26 -4 15 -8 -12 -13 -12 -23 -2 -15 15 -54 16 -63 2 -3 -6 4 -14
16 -19 l23 -8 -23 -13 c-13 -6 -21 -8 -17 -2 3 5 -1 15 -9 22 -21 17 -19 50 3
51 9 1 33 1 53 0 33 -2 37 0 44 31 5 18 7 45 6 61 -1 15 3 27 8 27 12 0 14
-11 11 -47 -1 -13 3 -23 9 -23 6 0 11 11 11 24 0 29 18 44 26 22 3 -9 15 -16
25 -16 10 0 19 -7 19 -15 0 -18 -26 -20 -33 -2 -4 8 -6 7 -6 -3 -1 -24 26 -53
41 -44 7 4 2 -6 -12 -21 -14 -16 6 -2 44 30 111 92 196 121 394 134 13 0 20 5
17 11 -4 6 -14 9 -22 8 -9 -2 -18 3 -20 10 -4 9 2 10 19 4 12 -5 37 -5 53 -1
17 3 24 7 16 8 -8 0 -11 4 -8 7 10 10 38 -17 30 -29 -3 -6 -1 -7 5 -3 8 4 12
0 12 -11 0 -15 -8 -18 -57 -17 l-58 1 55 -5 c38 -3 49 -6 36 -11 -19 -7 -19
-8 2 -13 19 -5 22 0 33 51 7 31 12 68 12 84 0 15 4 27 8 27 3 0 10 21 13 48
14 97 15 99 44 95 15 -1 21 0 14 3 -6 3 -10 9 -7 13 2 4 -12 8 -31 9 -31 1
-34 -1 -24 -13 11 -13 10 -14 -3 -9 -10 3 -17 -1 -20 -13 -4 -14 -5 -12 -6 6
-1 20 -3 21 -16 11 -12 -10 -16 -9 -21 4 -3 9 -10 16 -15 16 -4 0 -6 -7 -3
-15 5 -11 2 -13 -10 -9 -22 9 -20 33 6 61 30 32 17 39 -16 8 -15 -14 -29 -25
-30 -25 -2 0 -6 11 -8 25 -3 15 -1 25 6 24 23 -3 36 1 36 12 0 6 -9 9 -20 6
-13 -3 -24 1 -30 14 -6 11 -16 16 -26 12 -10 -4 -17 2 -21 15 -4 18 -12 21
-47 19 -22 -1 -45 -6 -49 -12 -5 -6 -6 -2 -3 8 5 15 2 17 -14 12 -11 -4 -20
-3 -20 2 0 12 32 38 48 39 6 1 21 2 33 3 40 2 8 20 -36 19 -37 0 -45 -4 -45
-19 0 -11 -4 -19 -10 -19 -5 0 -10 4 -10 8 0 5 -6 17 -14 27 -14 19 -14 19
-15 -5 0 -35 -10 -112 -16 -127 -2 -7 -15 -13 -27 -12 -13 0 -17 3 -10 6 17 7
15 23 -3 23 -10 0 -15 -10 -15 -28 0 -21 5 -28 18 -28 9 1 17 -3 17 -9 0 -6
-26 -10 -58 -10 -48 0 -57 -2 -54 -16 5 -17 4 -17 -61 -24 -29 -3 -40 0 -36 7
5 7 -2 9 -21 4 -24 -6 -27 -5 -17 7 14 16 6 28 -14 20 -8 -3 -14 0 -14 6 0 6
7 11 15 11 17 0 20 16 4 25 -7 5 -6 12 4 23 14 17 15 77 3 90 -4 3 -11 0 -16
-8 -6 -10 -10 -6 -13 16 l-4 29 -2 -32 c-2 -48 -19 -40 -24 10 -3 40 -4 40 -7
-13z m58 -52 c-2 -13 -7 -23 -13 -23 -5 0 -11 10 -13 23 -2 15 2 22 13 22 11
0 15 -7 13 -22z m455 -34 c15 -7 34 -11 41 -8 10 4 13 -7 13 -45 -1 -28 -5
-51 -9 -51 -4 0 -8 7 -8 15 0 8 -7 15 -15 15 -15 0 -17 5 -19 45 -1 17 -8 20
-41 19 -22 0 -55 -4 -74 -9 -27 -6 -33 -5 -29 6 2 8 19 15 36 17 18 2 32 8 32
13 0 11 29 5 73 -17z m-87 -75 c4 -8 9 -7 15 2 6 10 13 10 33 1 28 -13 36 -35
9 -25 -13 5 -15 2 -10 -11 4 -10 7 -20 7 -22 0 -2 11 -4 25 -4 19 0 25 -5 24
-22 0 -13 -3 -17 -6 -10 -7 18 -33 15 -33 -5 0 -13 -2 -15 -8 -5 -10 16 -44 4
-35 -12 4 -8 2 -8 -7 1 -7 6 -19 9 -26 6 -8 -3 -14 1 -14 11 0 9 8 15 18 14
34 -3 53 2 47 12 -3 6 -19 8 -36 5 -27 -5 -29 -3 -29 29 0 19 -4 38 -10 41 -5
3 -10 11 -10 16 0 12 35 -6 46 -22z m-457 -43 c1 -5 -5 -3 -13 4 -8 6 -12 19
-9 27 6 14 8 14 14 -3 4 -10 8 -23 8 -28z m406 6 c-3 -3 -11 0 -18 7 -9 10 -8
11 6 5 10 -3 15 -9 12 -12z m-69 -18 c-3 -9 -6 -21 -6 -27 0 -8 -3 -8 -11 0
-13 13 -5 43 12 43 6 0 8 -7 5 -16z m301 -6 c-3 -8 -6 -5 -6 6 -1 11 2 17 5
13 3 -3 4 -12 1 -19z m-607 8 c0 -3 -4 -8 -10 -11 -5 -3 -10 -1 -10 4 0 6 5
11 10 11 6 0 10 -2 10 -4z m350 -16 c0 -12 7 -20 18 -20 14 0 15 -2 2 -10 -11
-7 -20 -4 -32 11 -22 26 -23 39 -3 39 8 0 15 -9 15 -20z m-186 2 c-6 -4 -14
-14 -17 -22 -4 -10 -6 -8 -6 8 -1 15 5 22 17 22 10 0 13 -3 6 -8z m416 -8 c0
-11 -5 -14 -16 -10 -9 3 -18 6 -20 6 -3 0 -2 5 1 10 10 16 35 12 35 -6z m100
-4 c0 -5 -5 -10 -11 -10 -5 0 -7 5 -4 10 3 6 8 10 11 10 2 0 4 -4 4 -10z
m-566 -49 c9 -11 8 -13 -4 -9 -8 2 -16 18 -17 34 -1 18 0 22 4 9 3 -11 10 -26
17 -34z m511 30 c-3 -6 -11 -11 -16 -11 -5 0 -4 6 3 14 14 16 24 13 13 -3z
m78 -17 c-3 -9 -1 -19 5 -23 13 -8 4 -51 -10 -51 -6 0 -5 -7 2 -15 15 -18 8
-28 -21 -32 -17 -3 -20 1 -16 16 3 14 -2 21 -19 25 -33 9 -30 22 6 30 24 4 32
12 36 36 4 16 10 30 15 30 5 0 6 -7 2 -16z m-179 -10 c9 -24 2 -26 -12 -4 -7
11 -8 20 -3 20 5 0 12 -7 15 -16z m-453 -7 c-1 -12 -15 -9 -19 4 -3 6 1 10 8
8 6 -3 11 -8 11 -12z m349 -17 c0 -5 -9 -10 -20 -10 -11 0 -20 5 -20 10 0 6 9
10 20 10 11 0 20 -4 20 -10z m-100 -15 c0 -17 -2 -18 -24 -9 -23 9 -20 24 4
24 11 0 20 -7 20 -15z m159 6 c8 -5 9 -11 3 -15 -13 -8 -42 3 -42 15 0 11 21
11 39 0z m91 -27 c0 -9 -5 -14 -12 -12 -18 6 -21 28 -4 28 9 0 16 -7 16 -16z
m-231 -43 c-21 -45 -36 -49 -25 -7 6 24 35 61 42 53 2 -2 -5 -23 -17 -46z m79
25 c-10 -7 -18 -18 -18 -25 0 -12 -13 -15 -23 -5 -11 11 17 44 38 44 19 -1 19
-1 3 -14z m68 -1 c-8 -8 -21 -15 -28 -15 -8 1 -6 6 6 15 26 20 42 19 22 0z
m40 -22 c-10 -10 -19 5 -10 18 6 11 8 11 12 0 2 -7 1 -15 -2 -18z m-76 -17 c0
-5 -7 -3 -15 4 -8 7 -12 17 -9 22 7 10 24 -9 24 -26z m170 24 c0 -5 -4 -10
-10 -10 -5 0 -10 5 -10 10 0 6 5 10 10 10 6 0 10 -4 10 -10z m-257 -30 c3 -11
1 -20 -4 -20 -5 0 -9 9 -9 20 0 11 2 20 4 20 2 0 6 -9 9 -20z m207 0 c0 -5 -4
-10 -10 -10 -5 0 -10 5 -10 10 0 6 5 10 10 10 6 0 10 -4 10 -10z m-463 -26
c-3 -3 -12 -4 -19 -1 -8 3 -5 6 6 6 11 1 17 -2 13 -5z m216 -21 c4 -2 5 -9 2
-14 -4 -5 3 -9 14 -9 10 0 21 4 23 8 2 5 14 5 28 1 l25 -7 -27 -1 c-16 -1 -28
-5 -28 -10 0 -5 -9 -11 -21 -14 -15 -4 -23 0 -26 14 -4 15 -12 19 -32 16 -14
-2 -20 -2 -13 0 6 3 12 8 12 13 0 5 -6 10 -12 13 -7 2 1 2 17 -1 17 -2 33 -6
38 -9z m200 0 c-7 -2 -19 -2 -25 0 -7 3 -2 5 12 5 14 0 19 -2 13 -5z m-355
-51 c2 -7 -3 -12 -12 -12 -9 0 -16 7 -16 16 0 17 22 14 28 -4z m-131 -44 c-3
-8 -6 -5 -6 6 -1 11 2 17 5 13 3 -3 4 -12 1 -19z m-902 1 c4 -6 12 -8 19 -6 6
3 12 -4 12 -14 0 -25 -8 -24 -36 6 -13 14 -18 25 -12 25 6 0 14 -5 17 -11z
m1089 3 c6 -11 -30 -52 -46 -52 -6 0 -1 9 11 19 13 11 20 25 16 30 -3 6 -2 11
4 11 5 0 12 -4 15 -8z m-955 -29 c0 -16 -3 -22 -6 -15 -2 6 -11 12 -19 12 -15
0 -19 12 -7 23 16 16 33 5 32 -20z m-378 -40 c-12 -20 -14 -14 -5 12 4 9 9 14
11 11 3 -2 0 -13 -6 -23z m419 6 c0 -5 -4 -9 -10 -9 -5 0 -10 7 -10 16 0 8 5
12 10 9 6 -3 10 -10 10 -16z m-123 -21 c-3 -8 -6 -5 -6 6 -1 11 2 17 5 13 3
-3 4 -12 1 -19z m683 -28 c-19 -12 -30 -12 -30 -1 0 10 31 20 40 14 2 -2 -2
-8 -10 -13z m40 6 c0 -8 -6 -16 -14 -19 -10 -4 -12 0 -9 14 6 22 23 26 23 5z
m-1030 -6 c0 -5 -7 -10 -16 -10 -8 0 -12 5 -9 10 3 6 10 10 16 10 5 0 9 -4 9
-10z m646 -17 c-1 -1 -12 0 -25 4 -15 4 -19 8 -10 13 10 7 42 -10 35 -17z
m-363 -3 c-3 -11 -9 -20 -14 -20 -10 0 -12 24 -2 33 13 13 21 7 16 -13z m47
-1 c-7 -11 -14 -18 -17 -15 -8 8 5 36 17 36 7 0 7 -6 0 -21z m-104 -26 c-11
-11 -19 6 -11 24 8 17 8 17 12 0 3 -10 2 -21 -1 -24z m990 9 c-18 -16 -18 -16
-6 6 6 13 14 21 18 18 3 -4 -2 -14 -12 -24z m-521 -22 c3 -5 1 -10 -4 -10 -6
0 -11 5 -11 10 0 6 2 10 4 10 3 0 8 -4 11 -10z m-400 -20 c15 12 17 9 15 -27
-1 -5 -10 -7 -21 -5 -11 2 -27 -2 -35 -9 -12 -10 -18 -8 -34 9 -20 21 -20 21
8 35 23 12 29 12 39 -1 10 -12 15 -13 28 -2z m535 10 c13 -8 12 -12 -5 -29
-20 -20 -20 -20 -44 0 -21 17 -22 22 -10 30 18 11 40 11 59 -1z m-251 -13 c-9
-7 -18 -19 -22 -27 -5 -13 -6 -13 -6 1 -1 17 18 39 34 39 5 0 3 -6 -6 -13z
m-633 -8 c5 -9 -1 -10 -20 -5 -25 6 -31 0 -27 -31 1 -6 -3 -14 -9 -18 -6 -4
-10 6 -10 24 0 16 6 32 13 34 22 9 46 7 53 -4z m510 -1 c-9 -5 -29 -5 -48 0
-31 9 -31 9 15 9 33 0 44 -3 33 -9z m78 -3 c-4 -8 -12 -15 -20 -15 -17 0 -18
17 -1 23 22 9 27 7 21 -8z m426 11 c0 -2 -9 -6 -20 -9 -11 -3 -20 -1 -20 4 0
5 9 9 20 9 11 0 20 -2 20 -4z m-313 -28 c-3 -8 -6 -5 -6 6 -1 11 2 17 5 13 3
-3 4 -12 1 -19z m223 12 c-19 -13 -30 -13 -30 0 0 6 10 10 23 10 18 0 19 -2 7
-10z m-855 -11 c11 -17 -1 -21 -15 -4 -8 9 -8 15 -2 15 6 0 14 -5 17 -11z
m2090 -45 c-5 -28 -9 -34 -16 -23 -5 8 -9 21 -9 29 0 13 1 13 10 0 7 -12 10
-8 10 14 0 16 3 27 6 23 4 -3 3 -23 -1 -43z m-2138 14 c-3 -8 -6 -5 -6 6 -1
11 2 17 5 13 3 -3 4 -12 1 -19z m455 -22 c4 -6 16 1 28 17 12 15 30 27 40 27
23 0 67 -36 57 -46 -4 -5 -12 -2 -16 5 -7 11 -15 9 -40 -10 -31 -23 -39 -43
-22 -53 5 -3 11 -15 14 -26 4 -15 0 -20 -14 -20 -10 0 -18 3 -18 8 4 22 -2 42
-11 37 -5 -3 -10 3 -10 14 0 27 -20 38 -35 17 -11 -14 -13 -15 -19 -1 -3 8 -3
22 0 30 4 8 1 15 -5 15 -6 0 -11 -4 -11 -9 0 -5 -7 -12 -15 -15 -14 -5 -14 -2
1 23 17 29 18 29 43 13 14 -9 29 -21 33 -26z m178 24 c0 -5 -5 -10 -11 -10 -5
0 -7 5 -4 10 3 6 8 10 11 10 2 0 4 -4 4 -10z m1570 -5 c0 -8 -4 -15 -10 -15
-5 0 -10 7 -10 15 0 8 5 15 10 15 6 0 10 -7 10 -15z m-1540 -9 c0 -8 -7 -16
-15 -20 -17 -6 -18 -4 -9 18 8 20 24 21 24 2z m-324 -11 c-21 -16 -32 -13 -21
4 3 6 14 11 23 11 15 -1 15 -2 -2 -15z m794 -38 c0 -4 -5 -5 -11 -1 -8 4 -9
-1 -4 -16 l7 -22 -21 21 c-22 22 -24 40 -6 53 10 8 35 -18 35 -35z m-417 13
c21 -1 21 -1 3 -11 -19 -11 -37 2 -35 26 0 6 3 4 6 -2 2 -7 14 -13 26 -13z
m437 -15 c0 -5 -5 -3 -10 5 -5 8 -10 20 -10 25 0 6 5 3 10 -5 5 -8 10 -19 10
-25z m-100 21 c0 -3 -4 -8 -10 -11 -5 -3 -10 -1 -10 4 0 6 5 11 10 11 6 0 10
-2 10 -4z m-423 -28 c-3 -8 -6 -5 -6 6 -1 11 2 17 5 13 3 -3 4 -12 1 -19z
m-242 2 c3 -5 -3 -10 -15 -10 -12 0 -18 5 -15 10 3 6 10 10 15 10 5 0 12 -4
15 -10z m1735 -11 c0 -5 -4 -9 -10 -9 -5 0 -10 7 -10 16 0 8 5 12 10 9 6 -3
10 -10 10 -16z m-1046 -22 c11 -8 16 -20 13 -28 -4 -10 -6 -9 -6 4 -1 21 -27
23 -35 1 -8 -20 -26 -9 -26 17 0 22 27 25 54 6z m-94 -19 c0 -6 -6 -5 -15 2
-12 10 -15 10 -15 0 0 -8 -3 -11 -6 -7 -3 3 -3 10 0 16 8 12 36 3 36 -11z
m-170 -8 c0 -5 -4 -10 -10 -10 -5 0 -10 5 -10 10 0 6 5 10 10 10 6 0 10 -4 10
-10z m317 -32 c-3 -7 -5 -2 -5 12 0 14 2 19 5 13 2 -7 2 -19 0 -25z m-127 -34
c22 4 30 2 30 -9 0 -16 -20 -19 -57 -9 -17 5 -23 14 -22 33 l0 26 10 -24 c8
-20 14 -22 39 -17z m1087 14 c-3 -8 -6 -5 -6 6 -1 11 2 17 5 13 3 -3 4 -12 1
-19z m-1768 -37 c1 -9 -7 -5 -19 9 -16 18 -17 25 -8 31 13 8 26 -11 27 -40z
m81 18 c0 -6 -4 -7 -10 -4 -5 3 -10 11 -10 16 0 6 5 7 10 4 6 -3 10 -11 10
-16z m107 4 c4 -10 -3 -10 -29 -1 -45 15 -47 18 -8 15 18 -1 35 -8 37 -14z
m64 -37 c0 -20 0 -20 16 2 22 31 29 28 30 -18 2 -43 -13 -62 -31 -38 -8 10
-24 13 -54 10 -43 -4 -43 -4 -36 24 9 39 12 41 20 10 3 -14 13 -26 21 -26 11
0 13 10 9 48 -4 42 -3 45 10 28 8 -11 14 -29 15 -40z m114 35 c-3 -6 -11 -8
-17 -5 -6 4 -5 9 3 15 16 10 23 4 14 -10z m-708 3 c-3 -3 -12 -4 -19 -1 -8 3
-5 6 6 6 11 1 17 -2 13 -5z m891 -6 c-7 -20 -54 -22 -61 -4 -5 13 1 16 29 16
24 0 34 -4 32 -12z m32 -9 c0 -11 -4 -17 -10 -14 -5 3 -10 13 -10 21 0 8 5 14
10 14 6 0 10 -9 10 -21z m40 2 c0 -11 -4 -23 -10 -26 -6 -4 -10 5 -10 19 0 14
5 26 10 26 6 0 10 -9 10 -19z m-835 -1 c-3 -5 -13 -10 -21 -10 -8 0 -14 5 -14
10 0 6 9 10 21 10 11 0 17 -4 14 -10z m-167 -38 c4 -25 -13 -29 -34 -8 -16 17
-19 30 -4 21 6 -3 10 -1 10 5 0 21 25 4 28 -18z m100 11 c2 -8 -6 -13 -22 -13
-25 0 -33 10 -19 24 10 10 36 3 41 -11z m672 3 c0 -8 -13 -20 -29 -27 -20 -9
-29 -20 -28 -33 1 -10 -4 -21 -10 -23 -9 -3 -13 8 -13 36 0 37 3 41 24 41 14
0 28 5 31 10 9 15 25 12 25 -4z m55 -6 c-3 -5 -10 -10 -16 -10 -5 0 -9 5 -9
10 0 6 7 10 16 10 8 0 12 -4 9 -10z m-302 -19 c3 -15 -1 -18 -27 -18 -17 -1
-24 2 -16 5 8 3 19 11 23 18 11 18 14 18 20 -5z m352 -31 c-3 -5 -10 -10 -16
-10 -5 0 -9 5 -9 10 0 6 7 10 16 10 8 0 12 -4 9 -10z m1425 -54 c0 -3 -4 -8
-10 -11 -5 -3 -10 -1 -10 4 0 6 5 11 10 11 6 0 10 -2 10 -4z m85 -74 c-5 -14
-7 -14 -16 -2 -9 13 -10 13 -6 0 2 -8 10 -14 16 -12 7 1 11 -22 11 -72 0 -86
-6 -106 -29 -105 -9 0 -11 3 -4 5 7 3 9 12 6 20 -3 8 -1 14 5 14 5 0 9 25 8
56 0 31 -2 51 -4 45 -2 -6 -9 -11 -16 -11 -7 0 -12 18 -14 46 -1 37 1 45 13
40 8 -3 18 0 22 6 10 17 17 -7 8 -30z m-198 -14 c-3 -7 -5 -2 -5 12 0 14 2 19
5 13 2 -7 2 -19 0 -25z m102 -50 c1 -4 -5 -5 -13 -2 -8 3 -12 13 -8 27 5 20 6
20 13 1 4 -10 8 -22 8 -26z m-72 -50 c-3 -8 -6 -5 -6 6 -1 11 2 17 5 13 3 -3
4 -12 1 -19z m30 -10 c-3 -7 -5 -2 -5 12 0 14 2 19 5 13 2 -7 2 -19 0 -25z
m43 11 c0 -5 -4 -9 -10 -9 -5 0 -10 7 -10 16 0 8 5 12 10 9 6 -3 10 -10 10
-16z m30 -19 c0 -5 -4 -10 -10 -10 -5 0 -10 5 -10 10 0 6 5 10 10 10 6 0 10
-4 10 -10z m35 0 c3 -5 1 -10 -4 -10 -6 0 -11 5 -11 10 0 6 2 10 4 10 3 0 8
-4 11 -10z m-278 -22 c-3 -8 -6 -5 -6 6 -1 11 2 17 5 13 3 -3 4 -12 1 -19z
m40 -10 c-3 -7 -5 -2 -5 12 0 14 2 19 5 13 2 -7 2 -19 0 -25z m153 12 c0 -5
-2 -10 -4 -10 -3 0 -8 5 -11 10 -3 6 -1 10 4 10 6 0 11 -4 11 -10z m-15 -30
c4 -6 -5 -10 -20 -10 -15 0 -24 4 -20 10 3 6 12 10 20 10 8 0 17 -4 20 -10z
m135 -44 c0 -9 -7 -12 -20 -9 -11 3 -20 9 -20 14 0 5 9 9 20 9 11 0 20 -6 20
-14z m-163 -21 c0 -8 -4 -12 -9 -9 -4 3 -8 9 -8 15 0 5 4 9 8 9 5 0 9 -7 9
-15z m81 8 c-10 -2 -28 -2 -40 0 -13 2 -5 4 17 4 22 1 32 -1 23 -4z m-158 -60
c0 -13 -4 -23 -10 -23 -5 0 -10 17 -10 38 0 27 3 33 10 22 5 -8 10 -25 10 -37z
m-214 -8 c0 -21 -4 -24 -20 -19 -21 7 -36 22 -36 37 0 4 13 7 28 7 23 0 28 -4
28 -25z m-559 -1 c-3 -3 -12 -4 -19 -1 -8 3 -5 6 6 6 11 1 17 -2 13 -5z m666
-1 c-7 -2 -19 -2 -25 0 -7 3 -2 5 12 5 14 0 19 -2 13 -5z m-147 -23 c13 0 24
-5 24 -11 0 -13 -42 -8 -52 6 -4 6 -7 15 -7 20 0 6 3 4 6 -2 2 -7 16 -13 29
-13z m644 -35 c0 -19 -2 -35 -4 -35 -2 0 -6 16 -8 35 -2 19 0 35 4 35 4 0 8
-16 8 -35z m-22 -51 c2 -30 -14 -32 -21 -3 -5 17 -11 20 -31 17 -14 -3 -26 -2
-26 2 0 13 10 16 43 12 26 -3 33 -8 35 -28z m-228 -4 c0 -5 -2 -10 -4 -10 -3
0 -8 5 -11 10 -3 6 -1 10 4 10 6 0 11 -4 11 -10z m230 -56 c0 -8 -4 -14 -10
-14 -5 0 -10 9 -10 21 0 11 5 17 10 14 6 -3 10 -13 10 -21z m-190 1 c0 -8 -4
-15 -10 -15 -5 0 -10 7 -10 15 0 8 5 15 10 15 6 0 10 -7 10 -15z m55 -5 c3 -5
3 -15 -1 -21 -6 -11 -23 6 -24 24 0 10 18 9 25 -3z m-498 -116 c-3 -3 -12 -4
-19 -1 -8 3 -5 6 6 6 11 1 17 -2 13 -5z m267 -2 c5 -8 -245 -5 -253 3 -2 3 52
5 122 5 69 0 128 -4 131 -8z m232 -5 c3 -2 -45 -5 -106 -6 -64 -1 -109 2 -106
7 6 9 203 9 212 -1z m354 -31 c0 -14 -38 -29 -52 -20 -16 10 -7 33 15 36 27 5
37 1 37 -16z m-10 -60 c0 -8 -4 -18 -10 -21 -5 -3 -10 3 -10 14 0 12 5 21 10
21 6 0 10 -6 10 -14z m170 -47 c0 -5 -4 -9 -10 -9 -5 0 -10 5 -10 11 0 6 -8 8
-18 5 -12 -4 -19 -1 -19 8 0 11 6 12 29 4 15 -6 28 -14 28 -19z m30 11 c0 -5
-2 -10 -4 -10 -3 0 -8 5 -11 10 -3 6 -1 10 4 10 6 0 11 -4 11 -10z m-1363 -26
c-3 -3 -12 -4 -19 -1 -8 3 -5 6 6 6 11 1 17 -2 13 -5z m1318 -23 c-3 -6 -11
-8 -17 -5 -6 4 -5 9 3 15 16 10 23 4 14 -10z m-140 0 c10 -17 -12 -21 -25 -6
-10 12 -10 15 3 15 9 0 18 -4 22 -9z m-147 -30 c11 -7 11 -9 -1 -14 -16 -6
-27 0 -27 15 0 10 11 10 28 -1z m125 0 c4 -1 7 -13 6 -28 0 -27 -1 -27 -9 -5
-7 15 -18 22 -37 22 -15 0 -34 4 -40 8 -10 6 40 8 80 3z m34 -38 c-3 -10 -5
-4 -5 12 0 17 2 24 5 18 2 -7 2 -21 0 -30z m-1162 -50 c-4 -27 -11 -52 -17
-58 -6 -7 -7 -2 -3 15 3 14 8 39 10 55 5 37 4 35 11 35 4 0 3 -21 -1 -47z
m1361 7 c10 0 15 -3 11 -6 -13 -13 -47 8 -46 29 l0 22 9 -22 c5 -13 17 -23 26
-23z m-200 -7 c-10 -10 -19 5 -10 18 6 11 8 11 12 0 2 -7 1 -15 -2 -18z m261
5 c-3 -8 -6 -5 -6 6 -1 11 2 17 5 13 3 -3 4 -12 1 -19z m-290 5 c-4 -3 -2 -12
4 -20 8 -9 8 -13 1 -13 -6 0 -14 5 -17 10 -6 10 2 30 12 30 4 0 3 -3 0 -7z
m99 -30 c-7 -7 -26 7 -26 19 0 6 6 6 15 -2 9 -7 13 -15 11 -17z m-1060 2 c14
-13 8 -15 -48 -14 l-63 1 45 12 c25 8 46 14 48 15 2 0 10 -6 18 -14z m1297
-12 c22 -13 2 -19 -32 -10 -44 12 -46 31 -3 21 15 -4 30 -9 35 -11z m-216 -45
c-3 -7 -5 -2 -5 12 0 14 2 19 5 13 2 -7 2 -19 0 -25z m206 -29 c3 -12 0 -19
-9 -19 -8 0 -14 7 -14 15 0 8 -4 15 -10 15 -5 0 -10 4 -10 9 0 17 38 -1 43
-20z m-1210 14 c-7 -2 -19 -2 -25 0 -7 3 -2 5 12 5 14 0 19 -2 13 -5z m1157
-11 c0 -13 -12 -22 -22 -16 -10 6 -1 24 13 24 5 0 9 -4 9 -8z m-2607 -9 c-7
-2 -19 -2 -25 0 -7 3 -2 5 12 5 14 0 19 -2 13 -5z m85 0 c-10 -2 -28 -2 -40 0
-13 2 -5 4 17 4 22 1 32 -1 23 -4z m49 1 c-3 -3 -12 -4 -19 -1 -8 3 -5 6 6 6
11 1 17 -2 13 -5z m504 -22 c-35 -2 -68 1 -72 5 -4 4 24 6 64 3 l72 -5 -64 -3z
m527 -114 c-7 -67 -14 -110 -16 -93 -4 33 18 228 25 221 2 -2 -1 -60 -9 -128z
m338 111 c8 -14 -20 -10 -41 5 -18 13 -18 14 8 9 15 -3 30 -9 33 -14z m-553 4
c-7 -2 -19 -2 -25 0 -7 3 -2 5 12 5 14 0 19 -2 13 -5z m80 0 c-7 -2 -21 -2
-30 0 -10 3 -4 5 12 5 17 0 24 -2 18 -5z m234 -14 c-24 -6 -45 -5 -55 1 -12 7
-2 9 38 9 55 -1 55 -1 17 -10z m73 1 c0 -5 -7 -7 -15 -4 -8 4 -15 8 -15 10 0
2 7 4 15 4 8 0 15 -4 15 -10z m115 -5 c39 -17 11 -18 -35 0 -23 9 -28 14 -15
14 11 0 34 -6 50 -14z m215 -3 c0 -11 -39 -12 -45 -1 -4 5 5 9 19 9 14 0 26
-4 26 -8z m120 -8 c0 -2 -24 -4 -52 -3 -38 1 -46 3 -28 8 24 7 80 3 80 -5z
m55 6 c3 -5 -3 -10 -15 -10 -12 0 -18 5 -15 10 3 6 10 10 15 10 5 0 12 -4 15
-10z m791 -10 c8 0 14 -4 14 -10 0 -12 -58 -12 -85 1 -16 7 -14 9 13 6 24 -3
32 1 33 12 0 11 2 12 6 4 2 -7 11 -13 19 -13z m-716 3 c-8 -3 -18 -11 -22 -17
-5 -7 -8 -4 -8 7 0 11 7 17 23 16 15 0 17 -2 7 -6z m80 -3 c-19 -5 -41 -4 -50
0 -10 6 1 9 35 9 48 -1 49 -1 15 -9z m97 -3 c4 -6 0 -8 -10 -4 -10 3 -17 2
-17 -3 0 -5 -7 -7 -15 -4 -8 4 -15 10 -15 14 0 11 49 9 57 -3z m50 -3 c-3 -3
-12 -4 -19 -1 -8 3 -5 6 6 6 11 1 17 -2 13 -5z m370 0 c-3 -3 -39 -8 -79 -10
-40 -2 -83 -6 -95 -9 -13 -3 -23 -1 -23 4 0 5 -8 12 -17 14 -10 3 36 5 101 6
66 0 117 -2 113 -5z m-1400 -71 c-2 -16 -4 -5 -4 22 0 28 2 40 4 28 2 -13 2
-35 0 -50z m438 -33 c3 -5 4 -10 2 -10 -12 0 -67 33 -78 47 -11 12 -4 11 28
-5 23 -12 44 -26 48 -32z m-455 -45 c-7 -9 -15 -13 -18 -10 -3 2 1 11 8 20 7
9 15 13 18 10 3 -2 -1 -11 -8 -20z m560 -17 c0 -21 -17 -41 -28 -34 -8 4 -6
13 6 26 19 23 22 24 22 8z m673 -24 c20 -4 37 -11 37 -16 0 -5 -10 -6 -22 -2
-13 4 -38 8 -56 10 -19 1 -36 5 -40 8 -7 8 33 7 81 0z m254 -13 c19 -5 33 -6
35 0 3 9 48 1 48 -10 0 -4 -53 -8 -117 -9 -79 -2 -115 0 -108 7 9 8 28 12 95
19 8 1 29 -2 47 -7z"/>
<path d="M1750 2400 c-8 -5 -11 -12 -7 -16 4 -4 13 -2 19 4 15 15 7 24 -12 12z"/>
<path d="M2008 1073 c7 -3 16 -2 19 1 4 3 -2 6 -13 5 -11 0 -14 -3 -6 -6z"/>
<path d="M1855 2627 c-18 -14 -18 -15 3 -26 33 -18 62 -14 62 9 0 11 -4 20 -9
20 -5 0 -15 2 -23 5 -7 3 -22 -1 -33 -8z"/>
<path d="M1940 2630 c0 -5 5 -10 10 -10 6 0 10 5 10 10 0 6 -4 10 -10 10 -5 0
-10 -4 -10 -10z"/>
<path d="M465 2611 c-3 -5 -1 -12 5 -16 5 -3 10 1 10 9 0 18 -6 21 -15 7z"/>
<path d="M560 2606 c0 -9 5 -16 10 -16 6 0 10 4 10 9 0 6 -4 13 -10 16 -5 3
-10 -1 -10 -9z"/>
<path d="M1990 2610 c0 -5 4 -10 9 -10 6 0 13 5 16 10 3 6 -1 10 -9 10 -9 0
-16 -4 -16 -10z"/>
<path d="M415 2600 c3 -5 10 -10 16 -10 5 0 9 5 9 10 0 6 -7 10 -16 10 -8 0
-12 -4 -9 -10z"/>
<path d="M2067 2603 c-16 -15 -5 -21 31 -16 53 8 64 23 16 23 -23 0 -44 -3
-47 -7z"/>
<path d="M525 2590 c3 -5 8 -10 11 -10 2 0 4 5 4 10 0 6 -5 10 -11 10 -5 0 -7
-4 -4 -10z"/>
<path d="M641 2574 c0 -11 3 -14 6 -6 3 7 2 16 -1 19 -3 4 -6 -2 -5 -13z"/>
<path d="M1965 2570 c-3 -5 -1 -10 4 -10 6 0 11 5 11 10 0 6 -2 10 -4 10 -3 0
-8 -4 -11 -10z"/>
<path d="M2474 2536 c1 -34 6 -51 16 -54 12 -4 13 -2 3 9 -6 8 -13 32 -16 54
-4 34 -4 32 -3 -9z"/>
<path d="M140 2560 c-9 -6 -10 -10 -3 -10 6 0 15 5 18 10 8 12 4 12 -15 0z"/>
<path d="M1031 2561 c-8 -5 -9 -11 -3 -15 6 -3 13 -2 17 4 3 5 18 8 33 5 23
-4 24 -4 7 4 -26 12 -37 13 -54 2z"/>
<path d="M2106 2558 c5 -8 2 -9 -9 -5 -10 3 -17 2 -17 -3 0 -6 11 -10 25 -10
16 0 25 -6 25 -15 0 -8 5 -15 10 -15 6 0 10 6 10 13 0 8 4 7 11 -3 8 -12 10
-12 7 5 -2 11 -14 22 -28 26 l-25 6 25 5 c21 5 20 5 -8 7 -23 1 -31 -3 -26
-11z"/>
<path d="M1170 2549 c0 -5 5 -7 10 -4 6 3 10 8 10 11 0 2 -4 4 -10 4 -5 0 -10
-5 -10 -11z"/>
<path d="M1268 2530 c4 -31 16 -38 28 -18 4 6 2 14 -4 16 -7 2 -12 10 -12 18
0 8 -4 14 -8 14 -5 0 -7 -13 -4 -30z"/>
<path d="M1875 2550 c3 -5 8 -10 11 -10 2 0 4 5 4 10 0 6 -5 10 -11 10 -5 0
-7 -4 -4 -10z"/>
<path d="M1917 2553 c-4 -3 -7 -11 -7 -17 0 -6 5 -5 12 2 6 6 9 14 7 17 -3 3
-9 2 -12 -2z"/>
<path d="M2020 2545 c0 -8 7 -15 16 -15 14 0 14 3 4 15 -7 8 -14 15 -16 15 -2
0 -4 -7 -4 -15z"/>
<path d="M1111 2536 c-8 -10 -9 -16 -1 -21 13 -8 30 3 30 21 0 18 -14 18 -29
0z"/>
<path d="M735 2520 c3 -5 8 -10 11 -10 2 0 4 5 4 10 0 6 -5 10 -11 10 -5 0 -7
-4 -4 -10z"/>
<path d="M1042 2505 c-11 -23 -10 -24 8 -13 24 15 34 38 16 38 -7 0 -18 -11
-24 -25z"/>
<path d="M1163 2506 c-4 -8 -16 -15 -26 -17 -21 -5 -23 -24 -3 -24 23 0 31
-14 12 -21 -9 -3 -16 -14 -17 -23 0 -10 -4 -6 -10 9 -5 14 -17 31 -26 37 -15
11 -19 8 -35 -25 -14 -29 -17 -32 -18 -14 0 16 -6 22 -22 22 -13 0 -33 3 -45
6 -13 4 -23 1 -26 -8 -2 -7 -3 -5 -2 4 2 10 -1 21 -6 24 -5 3 -9 0 -9 -6 0 -8
-9 -10 -25 -6 -18 5 -25 2 -25 -8 0 -8 -3 -23 -6 -33 -6 -16 -5 -16 10 2 17
20 17 20 13 -2 -7 -31 18 -51 44 -35 31 19 25 -24 -7 -53 l-27 -25 27 0 c19 0
29 6 33 20 7 27 73 29 73 3 0 -14 4 -12 15 7 8 14 18 33 21 43 7 19 34 23 34
5 0 -9 4 -8 11 2 8 12 9 11 5 -5 -3 -11 -1 -27 4 -35 9 -13 11 -13 20 0 5 8 8
21 5 28 -3 8 1 20 9 28 17 16 30 19 21 4 -3 -5 -2 -10 4 -10 6 0 15 9 21 21
10 17 8 21 -9 26 -12 3 -18 10 -14 16 4 6 8 21 9 34 3 26 -20 32 -33 9z m-163
-97 c0 -11 -3 -11 -24 -3 -23 9 -20 23 4 17 11 -3 20 -9 20 -14z"/>
<path d="M1970 2504 c0 -8 5 -12 10 -9 6 4 8 11 5 16 -9 14 -15 11 -15 -7z"/>
<path d="M2086 2504 c-8 -22 -8 -39 2 -30 4 4 7 11 7 14 0 4 4 13 8 20 5 6 4
12 -1 12 -6 0 -13 -7 -16 -16z"/>
<path d="M1550 2495 c10 -12 9 -15 -6 -15 -12 0 -15 -3 -8 -10 12 -12 47 -2
38 11 -3 5 0 9 6 9 6 0 8 5 5 10 -3 6 -15 10 -27 10 -17 0 -18 -2 -8 -15z"/>
<path d="M695 2480 c-3 -5 1 -10 9 -10 9 0 16 5 16 10 0 6 -4 10 -9 10 -6 0
-13 -4 -16 -10z"/>
<path d="M977 2484 c-8 -8 1 -24 14 -24 5 0 9 7 9 15 0 15 -12 20 -23 9z"/>
<path d="M811 2453 c-1 -22 3 -32 12 -30 6 1 12 -7 13 -18 1 -11 5 -28 9 -37
4 -10 5 -25 1 -33 -8 -22 7 -18 22 6 14 21 8 59 -9 59 -5 0 -9 6 -8 13 3 26
-2 36 -15 31 -9 -4 -16 3 -19 18 -3 17 -5 15 -6 -9z"/>
<path d="M840 2470 c0 -5 5 -10 10 -10 6 0 10 5 10 10 0 6 -4 10 -10 10 -5 0
-10 -4 -10 -10z"/>
<path d="M1420 2441 c0 -12 29 -35 36 -28 4 3 -1 13 -9 22 -17 17 -27 19 -27
6z"/>
<path d="M1991 2434 c0 -11 3 -14 6 -6 3 7 2 16 -1 19 -3 4 -6 -2 -5 -13z"/>
<path d="M2010 2440 c0 -5 7 -10 15 -10 8 0 15 5 15 10 0 6 -7 10 -15 10 -8 0
-15 -4 -15 -10z"/>
<path d="M2110 2440 c0 -5 5 -10 10 -10 6 0 10 5 10 10 0 6 -4 10 -10 10 -5 0
-10 -4 -10 -10z"/>
<path d="M2148 2383 c6 -2 18 -2 25 0 6 3 1 5 -13 5 -14 0 -19 -2 -12 -5z"/>
<path d="M2238 2383 c6 -2 18 -2 25 0 6 3 1 5 -13 5 -14 0 -19 -2 -12 -5z"/>
<path d="M2338 2383 c7 -3 16 -2 19 1 4 3 -2 6 -13 5 -11 0 -14 -3 -6 -6z"/>
<path d="M631 2364 c0 -11 3 -14 6 -6 3 7 2 16 -1 19 -3 4 -6 -2 -5 -13z"/>
<path d="M2501 2334 c0 -11 3 -14 6 -6 3 7 2 16 -1 19 -3 4 -6 -2 -5 -13z"/>
<path d="M2372 2315 c-1 -11 -5 -38 -8 -60 -4 -32 -3 -36 6 -22 6 9 9 36 7 60
-2 23 -4 33 -5 22z"/>
<path d="M1084 2305 c24 -18 39 -20 34 -2 -3 6 -15 13 -29 15 -23 2 -23 2 -5
-13z"/>
<path d="M2420 2301 c5 -11 10 -29 10 -40 0 -12 5 -21 10 -21 6 0 10 7 10 16
0 14 3 14 15 4 9 -7 19 -10 22 -6 11 11 -12 41 -32 41 -10 0 -20 6 -23 13 -2
6 -8 12 -13 12 -6 0 -6 -8 1 -19z"/>
<path d="M1002 2294 c-8 -14 -15 -15 -39 -7 -21 8 -34 7 -46 -2 -9 -7 -17 -14
-17 -17 0 -10 60 -3 60 7 0 6 5 2 11 -7 12 -22 29 -23 29 -3 0 8 7 15 15 15
17 0 20 16 6 25 -6 3 -14 -2 -19 -11z"/>
<path d="M1135 2280 c4 -6 11 -8 16 -5 14 9 11 15 -7 15 -8 0 -12 -5 -9 -10z"/>
<path d="M2560 2274 c0 -14 3 -14 15 -4 8 7 15 14 15 16 0 2 -7 4 -15 4 -8 0
-15 -7 -15 -16z"/>
<path d="M789 2263 c-8 -11 -21 -23 -29 -26 -8 -4 0 -4 17 -1 28 5 32 3 27
-11 -4 -10 -1 -21 7 -27 11 -7 11 -11 2 -15 -7 -2 -13 -12 -13 -21 -1 -15 -2
-15 -11 1 -11 18 -49 24 -49 7 0 -5 -9 -10 -20 -10 -22 0 -25 -7 -10 -30 9
-13 10 -13 10 0 1 12 3 11 11 -3 9 -15 13 -16 25 -6 11 9 18 9 26 1 12 -12 38
7 38 27 0 6 4 11 9 11 5 0 8 18 8 40 -1 22 -6 40 -10 40 -4 0 -11 10 -16 22
-8 21 -8 21 -22 1z"/>
<path d="M1080 2270 c0 -5 5 -10 10 -10 6 0 10 5 10 10 0 6 -4 10 -10 10 -5 0
-10 -4 -10 -10z"/>
<path d="M1120 2244 c0 -29 20 -51 53 -56 18 -4 27 -1 27 8 0 8 -10 14 -22 14
-21 1 -21 2 -5 11 9 5 23 7 30 3 6 -4 3 2 -8 13 -16 16 -24 18 -38 9 -13 -8
-20 -8 -27 4 -8 12 -10 11 -10 -6z"/>
<path d="M1490 2250 c0 -5 5 -10 10 -10 6 0 10 5 10 10 0 6 -4 10 -10 10 -5 0
-10 -4 -10 -10z"/>
<path d="M945 2231 c-3 -5 -1 -12 5 -16 5 -3 10 1 10 9 0 18 -6 21 -15 7z"/>
<path d="M460 2221 c0 -6 5 -13 10 -16 6 -4 8 -11 4 -16 -3 -6 3 -5 14 2 19
12 19 14 4 26 -20 15 -32 16 -32 4z"/>
<path d="M1080 2220 c0 -5 4 -10 9 -10 6 0 13 5 16 10 3 6 -1 10 -9 10 -9 0
-16 -4 -16 -10z"/>
<path d="M2430 2220 c0 -5 5 -10 11 -10 5 0 7 5 4 10 -3 6 -8 10 -11 10 -2 0
-4 -4 -4 -10z"/>
<path d="M865 2211 c-3 -5 -1 -12 5 -16 5 -3 10 1 10 9 0 18 -6 21 -15 7z"/>
<path d="M2381 2204 c0 -11 3 -14 6 -6 3 7 2 16 -1 19 -3 4 -6 -2 -5 -13z"/>
<path d="M410 2200 c0 -5 7 -10 15 -10 8 0 15 5 15 10 0 6 -7 10 -15 10 -8 0
-15 -4 -15 -10z"/>
<path d="M2471 2193 c-1 -15 -7 -23 -18 -23 -13 0 -12 -4 7 -13 14 -8 26 -13
28 -11 2 1 -1 17 -7 35 -7 26 -9 28 -10 12z"/>
<path d="M945 2190 c3 -5 13 -10 21 -10 8 0 14 5 14 10 0 6 -9 10 -21 10 -11
0 -17 -4 -14 -10z"/>
<path d="M1020 2190 c0 -5 6 -11 13 -12 6 0 -8 -4 -32 -7 -27 -4 -46 -12 -48
-21 -3 -10 -2 -11 4 -3 6 8 14 6 31 -7 21 -17 21 -19 5 -29 -27 -15 -7 -26 22
-13 14 7 35 12 45 12 11 0 20 5 20 10 0 6 -13 10 -30 10 -16 0 -30 5 -30 10 0
6 15 10 34 10 26 0 40 -7 56 -27 l22 -28 -7 26 c-5 21 -2 27 14 32 12 3 21 10
21 16 0 13 -16 15 -24 3 -7 -11 -76 -2 -76 10 0 5 9 7 19 3 11 -3 22 -1 26 5
4 6 -10 10 -39 10 -25 0 -46 -4 -46 -10z"/>
<path d="M1220 2190 c0 -5 5 -10 10 -10 6 0 10 5 10 10 0 6 -4 10 -10 10 -5 0
-10 -4 -10 -10z"/>
<path d="M1345 2187 c-4 -10 -5 -21 -1 -24 10 -10 18 4 13 24 -4 17 -4 17 -12
0z"/>
<path d="M876 2171 c-3 -4 6 -6 19 -3 14 2 25 6 25 8 0 8 -39 4 -44 -5z"/>
<path d="M535 2160 c-3 -6 1 -7 9 -4 18 7 21 14 7 14 -6 0 -13 -4 -16 -10z"/>
<path d="M2551 2154 c0 -11 3 -14 6 -6 3 7 2 16 -1 19 -3 4 -6 -2 -5 -13z"/>
<path d="M205 2130 c3 -5 10 -10 16 -10 5 0 9 5 9 10 0 6 -7 10 -16 10 -8 0
-12 -4 -9 -10z"/>
<path d="M495 2130 c-11 -17 5 -32 21 -19 7 6 11 15 8 20 -7 12 -21 11 -29 -1z"/>
<path d="M542 2129 c2 -6 8 -10 13 -10 5 0 11 4 13 10 2 6 -4 11 -13 11 -9 0
-15 -5 -13 -11z"/>
<path d="M1948 2123 c7 -3 16 -2 19 1 4 3 -2 6 -13 5 -11 0 -14 -3 -6 -6z"/>
<path d="M169 2110 c0 -3 -2 -15 -5 -27 -2 -13 1 -23 6 -23 16 0 24 30 11 43
-6 6 -11 9 -12 7z"/>
<path d="M210 2090 c0 -5 5 -10 10 -10 6 0 10 5 10 10 0 6 -4 10 -10 10 -5 0
-10 -4 -10 -10z"/>
<path d="M922 2085 c-11 -13 -9 -15 13 -15 16 0 25 6 25 15 0 19 -21 19 -38 0z"/>
<path d="M1085 2090 c4 -6 11 -8 16 -5 14 9 11 15 -7 15 -8 0 -12 -5 -9 -10z"/>
<path d="M2481 2084 c0 -11 3 -14 6 -6 3 7 2 16 -1 19 -3 4 -6 -2 -5 -13z"/>
<path d="M978 2073 c6 -2 18 -2 25 0 6 3 1 5 -13 5 -14 0 -19 -2 -12 -5z"/>
<path d="M2400 2069 c0 -5 5 -7 10 -4 6 3 10 8 10 11 0 2 -4 4 -10 4 -5 0 -10
-5 -10 -11z"/>
<path d="M790 2050 c0 -5 5 -10 11 -10 5 0 7 5 4 10 -3 6 -8 10 -11 10 -2 0
-4 -4 -4 -10z"/>
<path d="M2317 2026 c-5 -21 -6 -41 -3 -44 3 -3 6 6 6 19 0 18 2 21 9 9 6 -8
8 -17 5 -21 -2 -4 0 -10 6 -14 6 -4 10 5 10 19 0 14 -4 26 -9 26 -5 0 -11 10
-13 23 -3 16 -6 12 -11 -17z"/>
<path d="M1211 2046 c11 -9 69 -14 69 -6 0 6 -16 10 -37 10 -20 0 -34 -2 -32
-4z"/>
<path d="M2400 2040 c0 -6 5 -10 11 -10 6 0 9 -7 6 -15 -4 -8 -2 -17 3 -20 6
-4 10 5 10 18 0 14 -7 27 -15 31 -8 3 -15 1 -15 -4z"/>
<path d="M2511 2035 c-1 -33 11 -68 19 -55 10 16 30 4 30 -18 0 -22 17 -48 25
-40 4 3 1 15 -6 26 -10 16 -10 23 0 35 13 17 -1 33 -19 22 -5 -3 -10 2 -10 12
-1 16 -2 16 -12 -2 -12 -19 -13 -18 -19 10 -4 18 -7 22 -8 10z"/>
<path d="M938 2033 c7 -3 16 -2 19 1 4 3 -2 6 -13 5 -11 0 -14 -3 -6 -6z"/>
<path d="M1090 2024 c0 -8 5 -12 10 -9 6 4 8 11 5 16 -9 14 -15 11 -15 -7z"/>
<path d="M2468 2006 c-10 -20 -18 -42 -17 -49 0 -7 5 -1 10 12 5 13 11 22 13
20 3 -3 15 -196 16 -253 0 -4 7 -6 15 -2 16 6 55 -26 55 -46 0 -6 3 -9 6 -5
12 12 -20 77 -38 77 -13 0 -18 8 -18 26 0 14 4 23 9 19 5 -3 12 -1 16 5 3 6
-1 13 -10 16 -9 4 -14 12 -11 19 3 8 -3 16 -12 20 -16 6 -15 7 1 17 10 5 27 8
38 5 10 -3 19 -1 19 4 0 5 -13 9 -29 9 -17 0 -33 5 -36 10 -3 6 1 10 9 10 19
0 21 21 5 37 -7 7 -15 29 -18 49 l-6 37 -17 -37z"/>
<path d="M2560 2030 c0 -5 5 -10 11 -10 5 0 7 5 4 10 -3 6 -8 10 -11 10 -2 0
-4 -4 -4 -10z"/>
<path d="M300 2021 c0 -6 5 -13 10 -16 6 -3 10 1 10 9 0 9 -4 16 -10 16 -5 0
-10 -4 -10 -9z"/>
<path d="M2603 1995 c0 -13 3 -22 8 -20 9 6 8 45 -2 45 -4 0 -6 -11 -6 -25z"/>
<path d="M2695 2000 c5 -9 2 -10 -14 -5 -16 5 -20 3 -15 -8 3 -9 13 -13 25
-10 21 6 25 18 7 29 -7 5 -8 3 -3 -6z"/>
<path d="M1370 1969 c0 -11 5 -17 10 -14 6 3 10 13 10 21 0 8 -4 14 -10 14 -5
0 -10 -9 -10 -21z"/>
<path d="M1443 1971 c0 -11 5 -18 9 -15 4 3 5 11 1 19 -7 21 -12 19 -10 -4z"/>
<path d="M2632 1960 c0 -14 2 -19 5 -12 2 6 2 18 0 25 -3 6 -5 1 -5 -13z"/>
<path d="M974 1944 c3 -9 6 -18 6 -20 0 -2 4 -4 8 -4 4 0 8 9 9 20 1 12 -4 20
-14 20 -10 0 -13 -6 -9 -16z"/>
<path d="M2660 1951 c0 -6 5 -13 10 -16 6 -3 10 1 10 9 0 9 -4 16 -10 16 -5 0
-10 -4 -10 -9z"/>
<path d="M930 1934 c0 -14 3 -14 15 -4 8 7 15 14 15 16 0 2 -7 4 -15 4 -8 0
-15 -7 -15 -16z"/>
<path d="M2378 1943 c7 -3 16 -2 19 1 4 3 -2 6 -13 5 -11 0 -14 -3 -6 -6z"/>
<path d="M2410 1930 c0 -5 5 -10 10 -10 6 0 10 5 10 10 0 6 -4 10 -10 10 -5 0
-10 -4 -10 -10z"/>
<path d="M256 1899 c-10 -50 -7 -59 14 -59 18 0 20 4 14 40 -6 36 -4 40 14 40
11 0 22 -6 25 -12 2 -7 8 -9 13 -5 12 11 -16 27 -47 27 -22 0 -28 -6 -33 -31z"/>
<path d="M2700 1920 c0 -6 7 -10 15 -10 8 0 15 2 15 4 0 2 -7 6 -15 10 -8 3
-15 1 -15 -4z"/>
<path d="M3138 1923 c7 -3 16 -2 19 1 4 3 -2 6 -13 5 -11 0 -14 -3 -6 -6z"/>
<path d="M2617 1884 c-8 -8 1 -24 14 -24 5 0 9 7 9 15 0 15 -12 20 -23 9z"/>
<path d="M2400 1846 c0 -2 7 -9 15 -16 9 -7 15 -8 15 -2 0 5 -7 12 -15 16 -8
3 -15 4 -15 2z"/>
<path d="M2450 1815 c0 -8 5 -15 10 -15 6 0 10 7 10 15 0 8 -4 15 -10 15 -5 0
-10 -7 -10 -15z"/>
<path d="M2580 1822 c0 -6 5 -14 10 -17 6 -3 10 -14 10 -23 0 -10 9 -23 20
-30 12 -7 20 -8 20 -2 0 5 -4 10 -10 10 -5 0 -10 8 -10 18 0 11 -9 27 -20 37
-11 10 -20 13 -20 7z"/>
<path d="M1758 1789 c-21 -11 -38 -24 -38 -30 0 -6 -6 -7 -12 -3 -10 6 -10 4
0 -7 17 -19 15 -34 -3 -19 -10 8 -33 11 -66 8 -42 -4 -56 -11 -85 -42 -39 -42
-41 -54 -14 -98 11 -18 20 -42 20 -54 0 -31 54 -78 82 -71 20 5 21 4 6 -7 -15
-11 -15 -13 0 -24 9 -7 11 -10 5 -7 -15 7 -17 -4 -4 -24 7 -11 10 -9 16 8 3
11 3 26 -1 32 -4 8 -3 9 4 5 6 -4 17 5 25 21 12 22 12 32 1 58 -13 31 -12 32
12 29 22 -2 103 -79 127 -121 11 -18 28 -7 20 13 -3 9 0 14 7 12 29 -7 70 120
70 218 0 70 -18 99 -71 114 -46 14 -58 12 -101 -11z m96 2 c18 -7 18 -8 3 -14
-9 -3 -17 -2 -17 4 0 6 -13 8 -32 5 -25 -5 -28 -4 -13 3 24 12 34 12 59 2z
m-98 -118 c-3 -4 -6 -1 -6 6 0 7 -4 9 -10 6 -6 -4 -7 1 -3 11 6 15 7 15 15 -1
6 -9 7 -19 4 -22z m160 -30 c-11 -11 -17 4 -9 23 7 18 8 18 11 1 2 -10 1 -21
-2 -24z m-169 -30 c-3 -10 -5 -4 -5 12 0 17 2 24 5 18 2 -7 2 -21 0 -30z m120
-95 c-3 -8 -6 -5 -6 6 -1 11 2 17 5 13 3 -3 4 -12 1 -19z m-14 -35 c-3 -7 -9
-13 -15 -13 -11 0 -38 25 -38 36 0 5 5 3 12 -4 18 -18 38 -15 32 6 -5 13 -4
14 4 3 6 -8 8 -20 5 -28z"/>
<path d="M2415 1800 c-3 -5 -1 -10 4 -10 6 0 11 5 11 10 0 6 -2 10 -4 10 -3 0
-8 -4 -11 -10z"/>
<path d="M2560 1748 c0 -12 3 -18 7 -14 11 10 12 36 2 36 -5 0 -9 -10 -9 -22z"/>
<path d="M2420 1740 c0 -5 5 -10 10 -10 6 0 10 5 10 10 0 6 -4 10 -10 10 -5 0
-10 -4 -10 -10z"/>
<path d="M2590 1740 c0 -5 5 -10 10 -10 6 0 10 5 10 10 0 6 -4 10 -10 10 -5 0
-10 -4 -10 -10z"/>
<path d="M2412 1669 c2 -6 8 -10 13 -10 5 0 11 4 13 10 2 6 -4 11 -13 11 -9 0
-15 -5 -13 -11z"/>
<path d="M2615 1650 c4 -6 11 -8 16 -5 14 9 11 15 -7 15 -8 0 -12 -5 -9 -10z"/>
<path d="M2480 1631 c0 -5 6 -14 14 -20 10 -9 15 -8 19 3 3 8 3 17 0 20 -9 9
-33 7 -33 -3z"/>
<path d="M2600 1546 c0 -9 5 -16 10 -16 6 0 10 4 10 9 0 6 -4 13 -10 16 -5 3
-10 -1 -10 -9z"/>
<path d="M2667 1553 c-4 -3 -7 -11 -7 -17 0 -6 5 -5 12 2 6 6 9 14 7 17 -3 3
-9 2 -12 -2z"/>
<path d="M2569 1521 c8 -5 12 -19 9 -35 -3 -14 -2 -26 2 -26 15 0 17 59 2 65
-21 8 -29 6 -13 -4z"/>
<path d="M2618 1513 c7 -3 16 -2 19 1 4 3 -2 6 -13 5 -11 0 -14 -3 -6 -6z"/>
<path d="M2780 1510 c0 -5 5 -10 10 -10 6 0 10 5 10 10 0 6 -4 10 -10 10 -5 0
-10 -4 -10 -10z"/>
<path d="M2605 1481 c-6 -11 9 -23 19 -14 9 9 7 23 -3 23 -6 0 -12 -4 -16 -9z"/>
<path d="M2205 1439 c-8 -37 4 -54 28 -37 11 9 15 21 10 37 l-6 23 -14 -23
-13 -24 6 28 c3 15 4 27 1 27 -3 0 -8 -14 -12 -31z"/>
<path d="M2610 1416 l0 -36 21 21 c11 11 19 22 17 23 -1 1 -11 8 -20 15 -16
12 -18 10 -18 -23z"/>
<path d="M2670 1430 c0 -5 5 -10 10 -10 6 0 10 5 10 10 0 6 -4 10 -10 10 -5 0
-10 -4 -10 -10z"/>
<path d="M2721 1384 c0 -11 3 -14 6 -6 3 7 2 16 -1 19 -3 4 -6 -2 -5 -13z"/>
<path d="M2558 1363 c7 -3 16 -2 19 1 4 3 -2 6 -13 5 -11 0 -14 -3 -6 -6z"/>
<path d="M2580 1320 c0 -5 5 -10 10 -10 6 0 10 5 10 10 0 6 -4 10 -10 10 -5 0
-10 -4 -10 -10z"/>
<path d="M1706 1207 c3 -10 9 -15 12 -12 3 3 0 11 -7 18 -10 9 -11 8 -5 -6z"/>
<path d="M2640 1145 c0 -8 4 -15 9 -15 5 0 11 7 15 15 3 9 0 15 -9 15 -8 0
-15 -7 -15 -15z"/>
<path d="M2583 1124 c-7 -3 -9 -12 -6 -20 7 -18 23 -18 23 0 0 8 6 17 13 19 8
4 7 5 -3 5 -8 0 -20 -2 -27 -4z"/>
<path d="M3151 944 c0 -11 3 -14 6 -6 3 7 2 16 -1 19 -3 4 -6 -2 -5 -13z"/>
<path d="M2665 920 c-3 -5 1 -10 9 -10 9 0 16 5 16 10 0 6 -4 10 -9 10 -6 0
-13 -4 -16 -10z"/>
<path d="M2930 896 c0 -4 7 -14 15 -22 8 -9 15 -11 15 -6 0 5 -7 15 -15 22 -8
7 -15 9 -15 6z"/>
<path d="M2941 845 c0 -5 6 -19 14 -29 8 -11 15 -15 15 -10 0 6 -7 19 -15 30
-8 10 -14 15 -14 9z"/>
<path d="M2897 826 c-4 -10 -5 -21 -2 -24 9 -9 17 6 13 25 -3 17 -4 17 -11 -1z"/>
<path d="M2795 820 c3 -5 8 -10 11 -10 2 0 4 5 4 10 0 6 -5 10 -11 10 -5 0 -7
-4 -4 -10z"/>
<path d="M2924 784 c3 -9 6 -18 6 -20 0 -2 4 -4 9 -4 6 0 9 9 8 20 -1 11 -8
20 -15 20 -9 0 -12 -6 -8 -16z"/>
<path d="M2885 780 c3 -5 10 -10 16 -10 5 0 9 5 9 10 0 6 -7 10 -16 10 -8 0
-12 -4 -9 -10z"/>
<path d="M2893 736 c3 -8 1 -17 -6 -20 -7 -2 -1 -4 13 -5 14 0 34 5 45 10 17
8 15 8 -7 4 -21 -4 -28 -1 -28 10 0 8 -5 15 -11 15 -6 0 -9 -6 -6 -14z"/>
<path d="M3102 654 c-16 -17 -19 -24 -8 -24 8 0 16 -3 19 -7 2 -5 2 -2 0 6 -2
9 2 11 13 7 8 -3 19 -6 24 -6 4 0 11 -10 15 -22 7 -21 7 -22 12 -4 3 11 -2 25
-11 31 -9 7 -16 20 -16 29 0 23 -21 19 -48 -10z"/>
<path d="M1911 480 c-9 -5 -4 -9 13 -12 14 -3 26 -2 26 2 0 12 -26 19 -39 10z"/>
<path d="M1458 93 c7 -3 16 -2 19 1 4 3 -2 6 -13 5 -11 0 -14 -3 -6 -6z"/>
</g>
</svg>
