<?xml version="1.0" standalone="no"?>
<!DOCTYPE svg PUBLIC "-//W3C//DTD SVG 20010904//EN"
 "http://www.w3.org/TR/2001/REC-SVG-20010904/DTD/svg10.dtd">
<svg version="1.0" xmlns="http://www.w3.org/2000/svg"
 width="320.000000pt" height="320.000000pt" viewBox="0 0 320.000000 320.000000"
 preserveAspectRatio="xMidYMid meet">

<g transform="translate(0.000000,320.000000) scale(0.100000,-0.100000)"
fill="#000000" stroke="none">
<path d="M30 3185 c7 -9 16 -12 19 -8 4 4 10 11 15 16 5 4 -3 7 -19 7 -24 0
-26 -2 -15 -15z"/>
<path d="M120 3191 c0 -5 7 -12 16 -15 22 -8 26 -8 19 4 -8 13 11 13 52 -2 28
-10 36 -10 43 2 7 12 12 12 22 2 16 -16 28 -15 28 1 0 10 -22 14 -90 15 -50 1
-90 -2 -90 -7z"/>
<path d="M333 3186 c-16 -8 -21 -16 -17 -29 5 -16 2 -18 -16 -12 -15 5 -20 4
-16 -4 4 -6 14 -11 22 -11 8 0 14 -4 14 -10 0 -5 11 -10 25 -10 14 0 25 -4 25
-10 0 -5 7 -10 16 -10 17 0 54 -36 54 -51 0 -4 16 -11 35 -15 19 -3 38 -11 42
-17 3 -6 1 -7 -5 -3 -8 4 -10 2 -6 -7 3 -9 13 -13 25 -10 10 3 19 0 19 -6 0
-6 7 -11 15 -11 8 0 15 -4 15 -10 0 -5 7 -10 15 -10 8 0 15 -4 15 -10 0 -5 11
-10 25 -10 16 0 25 -6 25 -15 0 -8 5 -15 12 -15 6 0 9 -3 5 -6 -3 -3 -12 -2
-19 2 -7 5 -21 10 -31 11 -10 2 -29 15 -42 31 -13 15 -25 22 -25 16 0 -16 -60
-4 -60 12 0 8 -4 14 -10 14 -5 0 -10 -7 -10 -17 0 -15 -2 -15 -19 1 -11 10
-17 24 -15 31 3 7 -9 23 -26 35 -36 25 -51 21 -22 -6 11 -11 25 -29 31 -41 10
-19 9 -22 -4 -17 -8 4 -15 10 -15 14 0 5 -9 11 -19 15 -13 4 -22 19 -26 43 -3
21 -14 42 -24 47 -58 32 -72 38 -77 33 -11 -12 21 -47 41 -45 17 2 20 -4 21
-37 0 -36 3 -39 59 -67 33 -16 70 -29 83 -29 17 0 23 -4 18 -15 -4 -10 1 -15
17 -15 12 -1 36 -7 52 -15 l30 -15 -32 3 c-29 3 -33 1 -33 -20 0 -14 -6 -23
-16 -23 -10 0 -12 5 -7 13 14 22 11 33 -11 35 -11 0 -22 6 -24 12 -2 5 -10 10
-18 10 -9 0 -12 -5 -8 -11 4 -8 -3 -9 -25 -4 -33 7 -45 -10 -13 -18 10 -3 6
-5 -10 -6 -16 0 -27 -6 -25 -12 1 -6 -3 -13 -10 -16 -6 -2 -13 6 -15 18 -2 12
-13 26 -26 30 -20 8 -21 7 -12 -11 7 -13 7 -20 1 -20 -15 0 -26 23 -22 48 1
15 -3 22 -14 22 -8 0 -18 7 -21 15 -4 8 -17 15 -30 15 -14 0 -27 7 -30 15 -7
17 -34 21 -34 5 0 -5 5 -10 10 -10 6 0 10 -4 10 -10 0 -5 -7 -10 -15 -10 -12
0 -18 9 -14 23 0 1 -6 15 -15 32 -18 35 -13 44 12 22 10 -10 26 -17 35 -17 8
0 22 -6 29 -13 31 -30 97 -77 107 -77 19 0 12 15 -11 25 -13 6 -24 19 -26 30
-3 18 -2 18 13 -3 13 -18 20 -21 31 -11 11 9 15 8 20 -5 3 -9 12 -16 20 -16
24 0 4 26 -31 40 -37 14 -46 30 -19 30 11 0 14 5 10 16 -3 9 -6 18 -6 20 0 2
-10 4 -21 4 -18 0 -19 -2 -9 -15 10 -13 9 -15 -8 -15 -26 0 -39 19 -21 31 12
7 11 11 -3 25 -16 16 -18 16 -24 1 -3 -9 -15 -17 -25 -17 -10 0 -19 -5 -19
-11 0 -5 -5 -7 -10 -4 -6 4 -7 11 -4 17 4 6 0 14 -7 19 -10 6 -5 9 16 10 17 1
34 1 38 0 4 -1 3 8 -3 19 -10 19 -9 20 17 14 27 -6 26 -5 -9 20 -44 31 -51 32
-43 6 6 -20 -9 -28 -20 -10 -3 5 -12 7 -19 4 -8 -3 -22 6 -33 20 -14 17 -24
22 -34 15 -8 -5 -9 -9 -4 -9 6 0 24 -13 41 -29 17 -16 39 -31 50 -34 16 -4 16
-5 -3 -6 -26 -1 -29 -11 -11 -29 9 -9 7 -12 -11 -12 -12 0 -19 4 -16 10 3 6
-2 10 -13 10 -10 0 -29 11 -42 25 -35 37 -60 33 -60 -10 0 -33 1 -34 26 -25
17 7 31 7 42 0 14 -8 12 -9 -11 -10 -25 0 -27 -2 -17 -20 8 -15 8 -20 -3 -20
-7 0 -18 5 -25 12 -9 9 -12 8 -12 -4 0 -9 7 -19 16 -22 8 -3 12 -10 9 -16 -3
-5 1 -10 9 -10 9 0 16 -4 16 -10 0 -15 -11 -12 -33 8 -19 16 -19 16 -16 -3 3
-11 13 -21 24 -24 11 -2 25 -11 32 -20 12 -15 14 -15 24 2 5 9 15 17 20 17 6
0 7 -4 4 -10 -4 -6 8 -10 29 -10 20 0 36 -4 36 -10 0 -5 9 -10 19 -10 10 0 22
-7 25 -16 9 -24 8 -27 -15 -21 -11 3 -19 1 -17 -5 4 -11 6 -12 39 -3 18 4 36
0 60 -15 30 -19 31 -21 9 -17 -14 3 -36 9 -48 13 -21 6 -23 4 -21 -17 2 -13 0
-29 -4 -35 -4 -7 2 -9 20 -6 21 4 25 2 20 -12 -4 -9 -1 -16 6 -16 9 0 9 -2 -1
-8 -23 -15 -152 -6 -173 11 -19 17 -16 52 4 40 8 -5 7 -8 -1 -11 -10 -3 -10
-7 -1 -18 15 -19 26 -18 56 6 14 11 34 20 44 20 12 0 16 5 13 15 -4 8 -11 15
-16 15 -5 0 -22 9 -38 20 -31 22 -40 19 -33 -11 4 -14 12 -19 24 -16 11 3 17
1 13 -4 -9 -15 -33 -10 -51 11 -10 11 -26 20 -36 20 -10 0 -21 9 -24 19 -4 17
-8 18 -24 8 -12 -8 -15 -14 -7 -18 8 -5 9 -11 1 -21 -17 -21 -15 -98 3 -98 8
0 13 -4 10 -9 -4 -5 -1 -11 6 -13 8 -3 5 -11 -10 -23 -24 -21 -31 -74 -9 -76
50 -5 69 -9 125 -23 34 -9 66 -15 70 -15 44 7 102 -32 82 -56 -5 -7 -7 -15 -3
-19 12 -12 10 -46 -3 -46 -8 0 -11 -6 -8 -14 3 -8 0 -17 -7 -22 -8 -4 -10 -3
-5 4 4 7 1 12 -8 12 -10 0 -13 6 -10 15 4 10 0 15 -15 15 -12 0 -20 3 -20 8 3
19 -2 23 -16 12 -12 -10 -15 -10 -15 0 0 10 -3 10 -14 1 -11 -9 -20 -10 -36
-1 -18 10 -22 9 -26 -7 -4 -15 -14 -18 -54 -16 l-49 1 0 -154 c-1 -117 2 -154
11 -154 9 0 8 -4 -2 -10 -8 -5 -10 -10 -4 -10 7 0 15 -7 18 -16 5 -14 4 -15
-9 -4 -13 11 -15 -34 -15 -418 0 -335 3 -431 13 -435 9 -4 9 -6 0 -6 -7 -1
-13 -6 -13 -12 0 -6 13 -8 30 -5 16 2 33 -1 37 -6 4 -7 -1 -9 -14 -6 -21 6
-53 -7 -53 -21 0 -5 12 -6 27 -3 18 3 30 -1 39 -13 10 -13 22 -16 49 -12 19 3
35 2 35 -4 0 -5 -8 -9 -17 -9 -10 0 -25 -5 -33 -10 -11 -7 -3 -8 27 -4 35 5
43 3 52 -15 11 -19 13 -20 35 -6 12 8 25 13 28 9 3 -3 9 -1 12 4 4 6 -5 9 -21
7 -15 -1 -34 0 -43 3 -19 8 20 20 69 21 30 1 32 -1 20 -16 -13 -15 -11 -15 24
-9 21 4 45 10 53 13 8 3 14 0 14 -6 0 -6 -4 -11 -10 -11 -5 0 -10 -4 -10 -10
0 -5 8 -10 17 -10 31 0 0 -18 -57 -33 -30 -9 -45 -16 -33 -16 12 -1 49 6 82
15 58 14 87 12 76 -6 -3 -5 0 -10 7 -13 7 -2 0 -2 -16 1 -18 2 -26 0 -22 -6 6
-10 -50 -29 -69 -23 -5 2 -64 10 -130 18 -66 8 -129 16 -140 18 -11 2 -27 4
-35 5 -30 3 46 29 80 28 45 -2 73 12 44 22 -10 4 -23 4 -29 0 -5 -4 -17 -7
-25 -8 -8 0 -31 -3 -50 -6 -33 -6 -34 -6 -8 5 16 6 28 15 28 20 0 6 -8 5 -20
-1 -10 -6 -25 -9 -32 -8 -10 2 -14 -25 -16 -114 -3 -114 -3 -116 20 -124 l23
-8 -25 -7 -25 -7 27 -1 c15 -1 30 -6 33 -12 4 -6 13 -8 21 -5 7 3 16 1 19 -4
4 -6 -3 -10 -15 -10 -12 0 -18 -4 -15 -11 4 -6 13 -8 21 -5 8 3 14 2 14 -2 0
-4 21 -6 47 -5 66 3 117 -7 104 -20 -7 -7 -26 -7 -60 0 -27 5 -56 6 -63 2 -7
-5 -8 -9 -3 -10 47 -4 58 -7 64 -17 3 -6 20 -13 36 -16 l30 -6 -30 15 c-30 15
-29 15 28 11 32 -2 60 1 63 5 3 5 -4 9 -15 9 -12 0 -21 5 -21 10 0 13 37 13
45 -1 4 -6 13 -8 21 -5 7 3 16 1 19 -4 4 -6 -4 -10 -17 -10 l-23 -1 24 -13
c15 -8 20 -16 12 -20 -18 -12 -13 -24 12 -24 43 0 102 -13 137 -29 19 -10 37
-17 40 -18 14 -1 93 -55 82 -55 -20 0 -72 29 -72 41 0 5 -6 5 -13 -2 -20 -19
68 -62 96 -48 17 10 18 8 12 -12 -6 -17 -4 -21 8 -16 11 4 14 2 10 -9 -7 -19
-11 -18 -50 12 -19 14 -37 23 -40 20 -4 -3 -15 1 -25 11 -11 10 -18 12 -18 4
0 -6 12 -17 27 -23 45 -19 65 -39 52 -54 -8 -9 -4 -19 13 -36 13 -13 26 -22
30 -21 3 1 12 -5 19 -13 11 -14 10 -18 -6 -31 -11 -8 -19 -20 -17 -26 1 -7 -7
-1 -18 13 -44 55 -147 154 -190 183 -91 62 -92 63 -74 81 14 15 13 16 -10 16
-14 0 -28 -4 -31 -10 -3 -5 -14 -9 -23 -9 -15 1 -15 2 1 6 9 2 15 9 11 14 -3
5 -10 7 -15 4 -5 -4 -9 -1 -9 5 0 7 9 14 20 17 35 9 22 23 -22 23 -40 0 -41
-1 -22 -16 18 -14 16 -15 -24 -11 -25 3 -42 1 -42 -5 0 -7 -4 -7 -13 0 -7 6
-32 14 -55 18 -23 4 -42 10 -42 14 0 4 -16 11 -36 15 -46 8 -35 20 14 16 24
-2 34 1 27 7 -5 6 -31 12 -58 14 l-47 3 0 -182 c1 -107 5 -183 11 -183 5 0 9
4 9 9 0 5 18 13 41 19 30 8 39 7 36 -1 -2 -7 -12 -13 -23 -15 -38 -6 -74 -25
-74 -38 0 -8 6 -11 18 -7 15 6 15 4 -2 -15 -24 -27 -11 -28 59 -6 104 33 105
33 105 19 0 -7 -17 -16 -38 -21 -26 -5 -31 -9 -17 -12 27 -5 44 -22 23 -22 -9
0 -29 -5 -45 -12 -34 -14 -45 -16 -57 -10 -4 3 -2 8 5 13 11 7 10 9 -3 9 -9 0
-20 -9 -23 -20 -3 -11 -11 -20 -16 -20 -5 0 -9 -5 -9 -11 0 -7 7 -8 18 -4 9 4
28 9 42 11 13 3 29 9 35 13 5 5 28 11 50 14 22 3 50 9 63 13 13 4 22 2 22 -4
0 -6 -14 -13 -31 -17 -20 -5 -29 -11 -25 -21 5 -13 1 -15 -43 -18 -8 -1 -16
-7 -19 -14 -3 -9 4 -11 25 -6 52 13 74 24 68 34 -3 5 -1 10 5 10 7 0 10 -7 6
-15 -7 -18 -7 -18 37 0 51 21 58 18 19 -6 -18 -12 -30 -24 -27 -27 3 -3 11 0
17 6 14 14 38 16 38 3 0 -13 -53 -21 -65 -10 -15 15 -35 11 -29 -6 6 -15 -14
-20 -61 -17 -16 2 -17 0 -5 -7 12 -8 12 -13 -4 -30 -18 -20 -18 -21 -1 -21 10
0 16 -2 13 -5 -8 -8 -88 6 -88 15 0 4 16 11 36 15 43 8 37 19 -12 21 -22 0
-34 -4 -34 -13 0 -7 -4 -13 -10 -13 -5 0 -10 5 -10 11 0 6 -6 9 -12 7 -8 -3
-13 -25 -14 -56 -1 -28 3 -49 7 -46 5 3 9 1 9 -5 0 -5 -5 -13 -10 -16 -6 -3
-10 -31 -10 -61 l0 -54 95 0 95 0 -6 30 c-5 20 -3 30 6 30 7 0 32 14 57 30 24
17 53 30 64 30 10 0 19 5 19 10 0 6 7 10 16 10 8 0 30 10 47 23 18 13 50 32
72 43 22 10 42 22 45 25 3 4 20 10 38 14 32 7 41 18 21 30 -6 5 -4 12 8 21 22
17 41 18 25 2 -16 -16 -15 -28 4 -28 8 0 20 13 25 30 7 18 18 30 28 30 10 0
26 9 36 20 10 11 24 20 31 20 7 0 18 8 23 18 5 10 28 38 50 62 23 25 41 50 41
57 0 6 3 13 8 15 10 4 66 93 88 141 10 20 21 37 26 37 4 0 8 6 8 13 0 6 6 24
14 39 16 30 7 38 -42 38 -20 0 -23 -3 -13 -9 11 -7 4 -11 -25 -14 l-39 -4 38
-1 c26 -1 37 -7 37 -17 0 -12 -7 -14 -27 -9 -37 9 -82 33 -63 34 9 0 5 6 -10
17 -14 10 -26 17 -28 15 -7 -7 -62 30 -57 38 3 5 -5 12 -19 16 -34 8 -54 32
-34 39 14 6 21 35 8 35 -4 0 -27 -6 -53 -14 -39 -12 -45 -12 -40 0 3 8 16 14
29 14 13 0 24 4 24 10 0 5 -13 7 -30 4 -19 -4 -30 -2 -30 4 0 6 7 9 16 5 13
-5 15 -2 9 17 -5 17 -4 21 5 15 9 -6 11 -4 6 4 -5 8 -21 10 -45 6 -27 -4 -48
1 -84 19 -26 13 -45 20 -41 15 7 -11 -7 -11 -25 0 -19 12 -4 33 21 29 12 -2
23 3 25 10 3 6 -3 12 -13 12 -15 0 -16 2 -5 12 10 11 15 10 25 -4 16 -22 42
-23 90 -3 34 15 36 14 36 -5 0 -11 5 -20 11 -20 8 0 7 -6 -2 -17 -13 -15 -11
-16 16 -9 17 4 38 9 49 13 12 3 16 1 12 -6 -4 -6 -16 -11 -27 -11 -22 0 -24
-11 -7 -28 17 -17 31 -15 24 4 -4 10 -2 14 6 11 7 -2 12 -10 10 -16 -1 -6 7
-11 18 -11 11 0 20 -4 20 -10 0 -5 -8 -7 -17 -3 -14 4 -15 3 -7 -6 13 -14 44
-4 44 15 0 8 4 14 9 14 5 0 16 3 25 6 9 3 16 1 16 -5 0 -6 -9 -11 -20 -11 -11
0 -20 -4 -20 -9 0 -18 48 -9 53 10 3 11 11 19 19 19 10 0 11 -2 0 -9 -7 -4
-12 -14 -10 -22 2 -9 -7 -15 -24 -17 -14 -2 -29 -10 -32 -18 -4 -11 -2 -12 14
-4 24 13 70 13 70 0 0 -5 -4 -10 -9 -10 -5 0 -12 -7 -15 -16 -5 -14 2 -15 54
-12 47 2 59 0 55 -10 -3 -8 -5 -15 -5 -17 0 -12 -72 -16 -85 -5 -10 8 -15 9
-15 2 0 -18 19 -24 83 -25 47 0 55 -2 32 -8 -24 -5 -25 -7 -7 -8 12 0 22 -5
22 -11 0 -5 5 -10 10 -10 6 0 10 7 10 15 0 8 8 15 18 15 14 0 15 2 2 10 -9 6
-11 13 -5 17 19 14 35 52 29 68 -3 8 -1 15 6 15 6 0 9 4 6 9 -3 5 1 11 9 15 9
3 15 19 15 41 0 19 4 35 9 35 15 0 23 33 10 41 -8 4 -4 9 10 14 13 4 20 9 17
12 -3 3 1 21 10 41 8 21 12 48 8 68 -4 21 0 44 9 63 14 28 14 31 -1 31 -15 1
-15 2 1 11 9 5 17 16 17 24 0 7 20 33 44 57 62 60 74 69 99 73 12 1 31 6 42 9
11 4 7 0 -8 -9 -36 -21 -31 -28 11 -16 20 6 32 6 34 -1 2 -6 53 -15 113 -20
61 -5 111 -13 113 -18 2 -6 13 -10 23 -10 13 0 18 -4 13 -12 -5 -8 -2 -9 9 -5
10 4 16 2 14 -4 -3 -14 108 -71 193 -100 49 -17 89 -23 160 -23 132 0 330 27
420 58 41 14 89 26 105 26 17 0 50 9 74 20 24 11 48 20 55 20 6 0 50 27 96 60
47 33 94 64 105 69 11 5 29 19 40 32 l20 24 -28 -24 c-15 -14 -29 -22 -32 -19
-3 2 26 35 65 72 38 37 70 71 70 75 0 4 16 25 35 47 22 25 33 45 29 56 -3 10
0 26 6 35 10 16 11 15 6 -5 -4 -19 -2 -21 10 -11 8 7 13 18 10 26 -3 8 -1 11
4 8 6 -4 10 5 10 20 0 15 5 35 11 46 11 22 20 83 23 163 1 42 -3 53 -32 85
-27 29 -33 42 -29 67 4 22 0 33 -12 41 -10 6 -27 44 -39 84 -13 41 -27 81 -32
89 -13 20 -13 4 1 -23 10 -21 10 -22 -5 -2 -8 11 -20 25 -26 32 -5 7 -10 17
-10 23 0 5 -4 10 -9 10 -6 0 -25 14 -43 31 -52 48 -336 182 -366 173 -14 -5
-14 -4 -3 4 26 18 -32 25 -158 19 -64 -3 -103 -2 -86 3 l30 8 -37 1 c-20 0
-40 -3 -43 -9 -3 -5 -18 -10 -33 -10 -25 0 -25 1 -6 16 18 15 18 15 -3 4 -21
-10 -187 -5 -204 6 -4 2 -10 0 -14 -6 -3 -5 -11 -10 -16 -10 -6 0 -7 4 -4 10
3 6 -1 7 -9 4 -9 -3 -13 -11 -9 -17 4 -6 -2 -8 -15 -5 -12 4 -20 3 -17 -2 3
-4 -2 -11 -11 -14 -26 -10 -36 -7 -31 8 6 16 -12 26 -46 26 -18 0 -19 2 -7 10
14 9 7 14 -13 11 -5 -1 -6 8 -2 19 4 11 2 20 -4 20 -6 0 -11 16 -11 35 0 30
-3 35 -24 35 -19 0 -24 5 -24 23 1 12 0 38 -1 57 -3 32 -4 33 -11 10 l-7 -25
-8 27 c-4 16 -11 25 -16 22 -12 -7 -40 60 -46 111 -2 22 -9 45 -15 52 -5 7 -7
21 -4 31 4 12 1 22 -8 25 -8 3 -16 1 -18 -5 -7 -20 -48 -17 -48 4 0 17 -16 18
-319 18 -242 -1 -321 -4 -324 -13 -3 -9 -7 -9 -19 1 -11 9 -58 12 -169 11
-102 -1 -147 -4 -136 -11 9 -5 17 -13 17 -19 0 -5 -9 -1 -20 9 -15 14 -36 19
-78 20 -51 0 -53 -1 -22 -8 19 -5 38 -6 42 -4 4 3 5 -1 3 -8 -5 -13 44 -38 74
-38 7 0 19 -7 27 -15 21 -21 33 -19 27 5 -3 12 0 20 6 20 7 0 10 -4 6 -9 -3
-5 0 -13 6 -17 9 -5 7 -11 -6 -20 -16 -12 -16 -13 3 -11 11 0 19 4 16 8 -2 4
0 10 6 14 5 3 10 3 11 -2 0 -4 2 -18 3 -31 2 -12 11 -29 22 -38 18 -15 18 -15
-3 -11 -21 5 -21 4 -6 -29 9 -19 14 -37 10 -40 -9 -10 -37 22 -37 43 0 32 -16
46 -45 41 -17 -4 -28 -1 -32 8 -6 16 -33 19 -33 4 0 -6 11 -15 25 -22 13 -6
22 -14 20 -18 -3 -5 6 -11 20 -14 16 -4 25 -13 25 -26 0 -11 5 -20 11 -20 14
0 43 -29 36 -37 -3 -3 -21 5 -39 18 -37 27 -69 33 -61 13 4 -10 0 -11 -21 -1
-26 12 -26 12 -7 28 19 16 19 17 -7 35 -15 11 -48 31 -74 44 -27 14 -48 28
-48 32 0 5 -7 8 -15 8 -9 0 -18 6 -21 14 -3 8 -16 13 -30 11 -17 -1 -30 6 -44
24 -23 31 -27 11 -4 -24 11 -16 12 -25 5 -25 -6 0 -14 7 -17 15 -4 8 -10 13
-14 10 -4 -3 -10 2 -13 9 -3 8 -1 17 6 20 8 3 8 5 -2 5 -11 1 -11 4 -1 16 17
20 11 24 -17 11z m767 -60 c8 -9 23 -26 33 -37 9 -10 13 -19 9 -19 -5 0 -17 9
-27 20 -10 12 -34 30 -52 41 -37 23 -43 39 -13 39 11 0 21 6 21 13 1 6 4 1 8
-13 3 -15 13 -34 21 -44z m-90 44 c0 -5 -4 -10 -10 -10 -5 0 -10 5 -10 10 0 6
5 10 10 10 6 0 10 -4 10 -10z m140 -16 c0 -8 -5 -12 -10 -9 -6 4 -8 11 -5 16
9 14 15 11 15 -7z m-320 -73 c3 -2 -5 -2 -17 1 -19 5 -20 4 -10 -13 6 -10 18
-19 25 -19 8 0 10 5 6 12 -5 8 -2 9 10 5 10 -4 26 -2 37 3 13 7 19 7 19 0 0
-5 -7 -10 -15 -10 -23 0 -18 -19 8 -31 22 -10 22 -10 0 -5 -12 2 -24 -1 -27
-8 -2 -6 -5 -2 -5 9 -1 14 -4 16 -9 7 -9 -13 -42 -6 -42 9 0 5 -6 9 -13 9 -19
0 -40 37 -24 44 8 3 7 9 -5 19 -10 8 -18 17 -18 21 0 6 55 -31 80 -53z m809
45 c-2 -2 -17 -6 -34 -10 -22 -5 -26 -4 -15 4 14 9 59 15 49 6z m-1158 -53 c8
-7 30 -18 47 -24 19 -6 39 -24 48 -40 8 -16 13 -29 11 -29 -3 0 -21 14 -42 30
-21 17 -45 30 -54 30 -15 0 -81 52 -81 64 0 7 51 -14 71 -31z m494 27 c3 -5 1
-10 -4 -10 -6 0 -11 5 -11 10 0 6 2 10 4 10 3 0 8 -4 11 -10z m198 3 c-7 -2
-19 -2 -25 0 -7 3 -2 5 12 5 14 0 19 -2 13 -5z m-88 -13 c3 -5 1 -10 -4 -10
-6 0 -11 5 -11 10 0 6 2 10 4 10 3 0 8 -4 11 -10z m123 -35 c-3 -3 -9 2 -12
12 -6 14 -5 15 5 6 7 -7 10 -15 7 -18z m-138 1 c0 -3 -4 -8 -10 -11 -5 -3 -10
-1 -10 4 0 6 5 11 10 11 6 0 10 -2 10 -4z m105 -6 c3 -5 2 -10 -4 -10 -5 0
-13 5 -16 10 -3 6 -2 10 4 10 5 0 13 -4 16 -10z m-1078 -32 c14 -19 24 -48 15
-48 -16 1 -53 40 -47 50 8 14 20 13 32 -2z m1588 -19 c4 -17 4 -33 1 -36 -3
-4 -6 1 -6 10 0 10 -8 17 -17 17 -10 0 -25 5 -33 10 -12 7 -10 11 10 19 37 14
38 14 45 -20z m-871 5 c25 -24 19 -36 -9 -18 -14 9 -22 20 -19 25 7 12 10 11
28 -7z m166 -16 c0 -6 -7 -5 -15 2 -8 7 -15 17 -15 22 0 6 7 5 15 -2 8 -7 15
-17 15 -22z m-18 -19 c21 -23 38 -44 38 -47 0 -3 8 -14 17 -24 16 -18 16 -19
-10 -9 -25 10 -26 9 -17 -13 5 -13 6 -26 4 -29 -9 -9 -55 41 -57 62 -1 12 -7
21 -14 21 -7 0 -13 7 -13 15 0 8 -9 20 -20 27 -11 7 -20 17 -20 21 0 5 9 5 20
2 11 -4 20 -2 20 4 0 20 14 11 52 -30z m231 21 c-7 -8 -52 -7 -47 1 2 4 15 6
28 5 13 0 22 -3 19 -6z m-162 -27 l10 -26 20 21 c11 12 25 22 32 22 6 0 1 -7
-11 -16 -19 -13 -31 -44 -18 -44 2 0 13 -3 23 -7 16 -6 17 -5 3 12 -13 16 -13
18 0 13 18 -6 20 -40 3 -45 -12 -4 -28 10 -70 60 -26 30 -28 37 -13 37 6 0 15
-12 21 -27z m-201 -44 c0 -5 -4 -9 -10 -9 -5 0 -10 8 -10 18 0 10 -3 22 -7 28
-5 5 0 1 10 -9 9 -11 17 -23 17 -28z m304 29 c-3 -4 -9 -8 -15 -8 -5 0 -9 4
-9 8 0 5 7 9 15 9 8 0 12 -4 9 -9z m80 -14 c9 -8 16 -11 16 -5 0 6 5 11 11 11
6 0 9 -10 8 -22 -3 -33 12 -79 23 -72 10 7 28 -13 28 -31 0 -5 -4 -3 -10 5 -5
8 -12 11 -16 7 -4 -4 -2 -13 4 -19 16 -16 15 -29 -2 -22 -8 3 -18 20 -22 37
-6 30 -35 89 -56 115 -15 17 -2 15 16 -4z m-684 -4 c0 -5 -2 -10 -4 -10 -3 0
-8 5 -11 10 -3 6 -1 10 4 10 6 0 11 -4 11 -10z m353 -4 c9 -7 17 -18 17 -23 0
-6 10 -13 22 -17 17 -4 20 -8 11 -17 -17 -17 -41 -4 -45 23 -2 16 -9 23 -24
22 -14 0 -20 4 -17 13 6 16 13 16 36 -1z m-623 -23 c0 -13 -3 -13 -15 -3 -8 7
-15 16 -15 21 0 5 7 6 15 3 8 -4 15 -13 15 -21z m810 -35 c0 -10 -4 -18 -9
-18 -5 0 -4 -11 2 -25 7 -14 15 -25 20 -25 4 0 7 -9 7 -20 0 -11 4 -19 9 -17
5 1 10 -2 11 -8 4 -22 -16 -12 -35 17 -20 31 -45 48 -45 30 0 -5 9 -19 20 -32
11 -12 18 -32 16 -44 -2 -11 -1 -15 1 -8 6 17 23 15 23 -3 0 -8 4 -15 10 -15
5 0 26 -35 46 -77 60 -127 58 -121 43 -140 -13 -16 -12 -17 4 -4 15 12 17 11
17 -9 0 -13 9 -31 20 -40 l21 -18 -23 -16 c-12 -9 -17 -17 -10 -17 6 -1 17 -2
23 -3 7 0 17 -10 23 -21 6 -11 13 -22 16 -25 10 -10 10 -30 -1 -30 -5 0 -15
14 -20 30 -8 21 -17 30 -32 30 -21 -1 -22 -1 -3 -15 11 -8 17 -18 13 -22 -4
-3 -16 2 -26 11 -11 10 -23 16 -28 13 -4 -3 -8 7 -9 21 0 15 -2 34 -5 42 -2 8
-1 16 4 18 4 1 7 -1 6 -5 -1 -8 42 -25 48 -19 8 7 -44 56 -60 56 -9 0 -21 8
-27 18 -8 12 -13 13 -16 5 -7 -15 -34 -17 -34 -3 0 6 7 10 15 10 9 0 15 9 15
21 0 16 -3 19 -12 11 -10 -8 -13 -2 -13 24 0 19 3 34 8 34 4 0 21 -21 38 -47
l31 -48 -7 35 c-4 19 -11 40 -16 46 -5 6 -7 19 -3 28 4 10 1 16 -9 16 -9 0
-19 10 -23 22 -6 19 -7 19 -16 5 -10 -18 -38 -23 -38 -7 0 6 -7 10 -15 10 -18
0 -20 -17 -2 -23 6 -2 9 -8 5 -12 -11 -12 -38 14 -31 31 3 8 0 14 -7 14 -7 0
-10 6 -7 14 4 10 -2 16 -16 19 -15 3 -11 5 11 6 29 1 33 -2 27 -19 -5 -16 -2
-20 14 -20 14 0 19 5 14 15 -8 22 -61 74 -68 67 -3 -3 -5 2 -5 12 0 19 12 15
48 -18 l24 -21 -7 30 c-4 17 -16 44 -26 61 -22 36 -25 58 -5 31 10 -13 16 -15
21 -6 5 7 1 16 -9 21 -9 5 -16 14 -16 20 0 9 3 9 12 0 30 -30 38 2 11 46 l-17
27 27 -24 c15 -14 27 -33 27 -43z m-325 14 c-3 -3 -11 0 -18 7 -9 10 -8 11 6
5 10 -3 15 -9 12 -12z m138 -12 c3 -11 1 -20 -4 -20 -5 0 -9 9 -9 20 0 11 2
20 4 20 2 0 6 -9 9 -20z m312 9 c11 -16 1 -19 -13 -3 -7 8 -8 14 -3 14 5 0 13
-5 16 -11z m-78 -24 c0 -11 -4 -12 -14 -4 -7 6 -13 15 -13 20 0 5 6 6 13 3 8
-3 14 -11 14 -19z m228 -25 l17 -35 -25 30 c-14 16 -23 34 -20 38 6 10 7 10
28 -33z m-379 -5 c-3 -9 0 -12 10 -8 8 3 14 -1 14 -11 0 -19 -36 -22 -43 -3
-3 6 -6 3 -6 -7 -1 -19 -2 -19 -21 2 -11 12 -19 29 -19 39 1 17 2 17 6 1 6
-25 23 -23 23 2 0 18 3 19 21 10 11 -7 18 -18 15 -25z m424 25 c0 -5 -2 -10
-4 -10 -3 0 -8 5 -11 10 -3 6 -1 10 4 10 6 0 11 -4 11 -10z m-530 -21 c0 -5
-4 -9 -10 -9 -5 0 -10 7 -10 16 0 8 5 12 10 9 6 -3 10 -10 10 -16z m340 -1 c0
-9 4 -8 11 2 9 13 10 12 5 -2 -7 -23 13 -78 29 -78 7 0 15 -8 18 -19 3 -12 -1
-18 -12 -17 -21 1 -40 26 -41 52 0 11 -7 29 -15 40 -17 23 -19 34 -5 34 6 0
10 -6 10 -12z m-807 -24 c-7 -18 -18 -18 -37 2 -21 21 -21 21 13 16 20 -3 28
-8 24 -18z m712 16 c3 -5 1 -10 -4 -10 -6 0 -11 5 -11 10 0 6 2 10 4 10 3 0 8
-4 11 -10z m30 0 c3 -5 1 -10 -4 -10 -6 0 -11 5 -11 10 0 6 2 10 4 10 3 0 8
-4 11 -10z m-1098 -6 c-3 -3 -12 -4 -19 -1 -8 3 -5 6 6 6 11 1 17 -2 13 -5z
m777 -9 c-4 -8 -8 -15 -10 -15 -2 0 -4 7 -4 15 0 8 4 15 10 15 5 0 7 -7 4 -15z
m106 -31 c45 -41 49 -58 19 -75 -15 -8 -19 -8 -15 0 9 13 -2 51 -14 51 -5 0
-10 -7 -12 -15 -2 -9 -8 -11 -16 -6 -7 4 -10 15 -6 24 3 9 10 14 15 11 17 -10
9 5 -13 26 -12 11 -16 20 -10 20 7 0 30 -16 52 -36z m255 25 c11 -17 -1 -21
-15 -4 -8 9 -8 15 -2 15 6 0 14 -5 17 -11z m-435 -19 c6 -11 8 -20 6 -20 -3 0
-10 9 -16 20 -6 11 -8 20 -6 20 3 0 10 -9 16 -20z m-670 -26 c0 -3 -6 -1 -13
5 -8 6 -17 8 -20 4 -4 -3 -7 -2 -7 4 0 18 12 22 26 8 8 -7 14 -17 14 -21z
m1096 1 c-2 -5 3 -25 10 -44 16 -39 18 -61 4 -61 -5 0 -7 6 -4 14 3 8 -2 17
-14 20 -14 5 -17 13 -14 35 2 16 -1 38 -8 50 -10 20 -10 21 9 9 12 -7 19 -17
17 -23z m-301 15 c3 -5 2 -10 -4 -10 -5 0 -13 5 -16 10 -3 6 -2 10 4 10 5 0
13 -4 16 -10z m105 -11 c0 -6 -4 -7 -10 -4 -5 3 -10 11 -10 16 0 6 5 7 10 4 6
-3 10 -11 10 -16z m390 17 c0 -3 -4 -8 -10 -11 -5 -3 -10 -1 -10 4 0 6 5 11
10 11 6 0 10 -2 10 -4z m-530 -39 c0 -7 -4 -7 -12 1 -9 9 -15 7 -25 -6 -11
-15 -12 -13 -2 10 10 22 15 25 26 17 7 -6 13 -16 13 -22z m470 23 c0 -5 -4
-10 -10 -10 -5 0 -10 5 -10 10 0 6 5 10 10 10 6 0 10 -4 10 -10z m-870 -10
c-11 -7 -12 -12 -3 -21 6 -6 9 -18 6 -25 -9 -25 -20 -15 -21 21 -1 27 3 35 16
35 14 0 15 -2 2 -10z m100 6 c0 -2 -7 -7 -16 -10 -8 -3 -12 -2 -9 4 6 10 25
14 25 6z m664 -11 c3 -8 1 -15 -4 -15 -6 0 -10 7 -10 15 0 8 2 15 4 15 2 0 6
-7 10 -15z m-844 -2 c0 -15 -15 -30 -36 -37 -17 -5 -23 -2 -27 14 -5 18 -3 19
10 9 12 -11 17 -10 24 4 10 17 29 23 29 10z m777 -25 c-3 -8 -6 -5 -6 6 -1 11
2 17 5 13 3 -3 4 -12 1 -19z m203 12 c0 -5 -7 -7 -15 -4 -8 4 -15 8 -15 10 0
2 7 4 15 4 8 0 15 -4 15 -10z m-1170 -9 c0 -5 -9 -7 -20 -4 -11 3 -20 7 -20 9
0 2 9 4 20 4 11 0 20 -4 20 -9z m90 -22 c0 -3 -11 -4 -25 -1 -29 5 -33 19 -7
24 15 4 31 -8 32 -23z m1135 21 c3 -5 1 -10 -4 -10 -6 0 -11 5 -11 10 0 6 2
10 4 10 3 0 8 -4 11 -10z m-557 -38 c15 -33 23 -38 50 -33 4 1 0 5 -8 11 -8 5
-11 13 -6 17 4 4 14 -1 22 -12 13 -17 12 -20 -6 -27 -11 -4 -20 -12 -20 -18 0
-6 4 -9 9 -6 5 4 13 -8 16 -26 10 -44 24 -60 46 -53 11 4 19 2 19 -4 0 -6 -9
-11 -20 -11 -20 0 -20 0 -1 -19 10 -10 21 -25 25 -32 5 -11 7 -11 12 -1 8 17
24 15 24 -3 0 -8 -7 -15 -16 -15 -8 0 -12 -5 -9 -11 4 -6 13 -8 21 -5 7 3 16
1 19 -4 4 -6 -1 -10 -9 -10 -9 0 -16 -5 -16 -11 0 -6 9 -9 19 -6 11 3 22 -1
25 -8 2 -7 -4 -15 -15 -18 -26 -7 -24 -27 4 -28 12 0 16 -3 10 -6 -14 -5 -18
-24 -5 -22 4 1 9 1 12 -1 3 -1 17 -3 32 -5 27 -3 27 -3 12 20 -9 13 -15 26
-15 29 3 23 -1 36 -9 31 -6 -4 -9 -3 -8 2 2 5 -7 19 -19 32 -12 13 -27 43 -34
67 -8 24 -17 44 -21 44 -5 0 -5 19 -2 42 5 30 4 39 -4 34 -8 -5 -12 0 -12 13
0 22 -14 28 -24 12 -4 -5 0 -11 6 -14 7 -2 11 -7 8 -10 -9 -10 -27 7 -35 32
-6 19 -4 23 8 18 8 -3 20 0 26 6 8 8 11 8 11 -1 0 -7 6 -12 14 -12 8 0 24 -25
37 -55 12 -30 26 -52 31 -49 4 3 8 -2 8 -10 0 -9 5 -16 10 -16 6 0 10 -7 10
-15 0 -8 5 -15 10 -15 6 0 10 -10 10 -22 0 -12 8 -30 17 -40 17 -19 16 -19
-12 -12 -26 6 -28 5 -18 -8 7 -8 10 -18 6 -21 -3 -4 -1 -7 5 -7 7 0 12 -12 12
-26 0 -14 4 -23 10 -19 6 3 7 18 4 32 -8 32 15 28 32 -5 6 -12 18 -30 27 -40
10 -10 17 -26 17 -35 0 -9 8 -17 18 -17 15 0 15 -2 2 -11 -12 -8 -11 -9 5 -7
14 3 19 11 18 26 -3 28 3 28 42 -2 l32 -25 22 27 c11 14 21 31 21 37 0 5 -4 4
-9 -4 -7 -11 -11 -10 -20 7 -17 32 -13 35 18 13 36 -26 37 -26 44 -1 6 22 -10
86 -27 110 -6 8 -17 25 -23 37 -11 19 -10 21 2 17 8 -4 15 -12 15 -20 0 -8 8
-22 18 -31 9 -10 17 -24 18 -30 2 -27 4 -31 20 -37 13 -5 15 -1 12 18 -4 17
-1 23 9 19 15 -6 18 23 3 32 -6 4 -8 10 -5 14 2 5 -9 29 -25 54 -16 25 -34 64
-41 86 -7 22 -16 38 -20 35 -5 -3 -9 -1 -9 5 0 5 4 12 9 15 5 3 24 -24 41 -61
18 -38 34 -63 37 -56 2 6 -3 25 -12 42 -8 17 -14 31 -12 31 7 0 63 -94 86
-142 13 -27 27 -48 32 -48 6 0 7 -4 4 -10 -11 -18 -20 -10 -45 45 -24 53 -40
70 -40 42 0 -7 5 -18 11 -24 13 -13 23 -77 11 -69 -5 3 -9 -11 -9 -29 -1 -30
1 -33 14 -20 8 8 11 19 8 25 -3 5 -1 10 4 10 15 0 14 -33 -1 -48 -9 -9 -9 -12
-1 -12 7 0 15 5 18 10 3 6 17 10 30 10 20 0 26 -9 44 -67 32 -107 44 -161 38
-177 -4 -11 1 -14 20 -13 34 3 52 -25 35 -54 -15 -24 -10 -34 12 -26 24 9 31
55 12 76 -23 25 -20 48 9 77 20 20 32 24 54 19 47 -10 110 -15 206 -16 108 -1
184 20 217 61 12 15 27 26 34 23 6 -2 14 7 18 21 3 14 13 26 20 26 8 0 13 7
12 16 0 9 6 19 14 21 13 4 13 3 0 -6 -11 -8 -2 -11 40 -12 l55 -2 -50 -7 c-37
-5 -42 -7 -20 -9 64 -5 91 -13 111 -32 11 -10 26 -19 32 -19 7 0 12 -7 12 -15
0 -9 9 -15 24 -15 13 0 26 -7 30 -15 3 -8 0 -14 -6 -12 -20 4 -19 -21 2 -28
34 -11 5 -35 -44 -35 -30 0 -37 -3 -26 -10 8 -5 23 -7 33 -4 9 3 17 1 17 -3 0
-19 -26 -33 -59 -33 -20 0 -31 -4 -26 -8 20 -13 10 -37 -20 -50 -16 -8 -39
-26 -49 -40 -11 -15 -13 -21 -6 -14 8 6 18 12 24 12 5 0 -1 -9 -14 -20 -18
-15 -26 -17 -31 -8 -4 7 -6 15 -3 19 2 4 0 10 -6 14 -5 3 -10 14 -10 24 0 20
-43 61 -64 61 -8 0 -17 4 -20 8 -2 4 -21 9 -41 10 -29 2 -44 -4 -77 -33 -23
-19 -46 -35 -51 -35 -5 0 -7 -9 -4 -21 3 -12 3 -18 -1 -15 -12 12 -31 -54 -25
-89 4 -26 11 -35 25 -35 11 0 17 -4 14 -9 -8 -12 29 -93 38 -84 4 4 4 0 1 -9
-9 -22 20 -75 45 -83 11 -3 27 -19 37 -36 12 -20 23 -27 35 -23 18 5 25 -10
10 -20 -5 -3 -7 -18 -4 -35 4 -32 5 -32 -89 -51 -53 -10 -161 -7 -238 7 -19 3
-36 1 -40 -5 -7 -12 -210 20 -220 35 -3 6 -30 23 -59 39 -30 16 -68 41 -85 57
-17 15 -33 27 -36 27 -3 0 -20 14 -38 30 -18 17 -37 30 -43 30 -6 0 -8 5 -4
12 5 8 2 9 -10 5 -10 -4 -15 -3 -11 3 3 6 -2 13 -12 17 -47 18 -105 126 -109
204 -3 42 0 59 9 60 21 2 -65 20 -131 27 -61 7 -65 10 -118 66 -59 65 -64 76
-33 76 11 0 18 -4 14 -9 -3 -5 -1 -12 5 -16 17 -10 11 18 -10 50 -11 17 -20
40 -20 53 0 12 -4 22 -10 22 -5 0 -10 -8 -10 -17 0 -11 -10 -2 -25 22 -27 44
-30 55 -15 55 6 0 10 -7 10 -15 0 -8 5 -15 11 -15 8 0 10 13 6 38 l-5 37 13
-30 c8 -16 12 -39 9 -50 -4 -15 -3 -16 4 -6 10 14 8 64 -3 92 -3 9 1 21 10 29
19 16 19 39 -1 61 -8 9 -16 23 -18 31 -1 7 -12 34 -26 60 -20 40 -26 46 -39
36 -13 -10 -14 -10 -3 2 6 8 12 21 12 30 -1 12 -4 11 -17 -5 -14 -18 -15 -18
-9 -2 3 10 6 27 6 38 0 29 9 23 28 -19z m70 26 c19 -16 15 -30 -6 -19 -10 5
-26 9 -36 8 -11 -1 -20 3 -22 8 -5 13 48 16 64 3z m572 -20 c0 -6 -7 -5 -15 2
-8 7 -15 17 -15 22 0 6 7 5 15 -2 8 -7 15 -17 15 -22z m-142 4 c2 -7 -2 -10
-12 -6 -9 3 -16 11 -16 16 0 13 23 5 28 -10z m562 8 c0 -5 -7 -10 -15 -10 -8
0 -15 5 -15 10 0 6 7 10 15 10 8 0 15 -4 15 -10z m-1570 -30 c-8 -5 -19 -10
-25 -10 -5 0 -3 5 5 10 8 5 20 10 25 10 6 0 3 -5 -5 -10z m902 -15 c3 -13 1
-22 -3 -19 -9 5 -13 44 -5 44 2 0 6 -11 8 -25z m76 -16 c-3 -8 -7 -3 -11 10
-4 17 -3 21 5 13 5 -5 8 -16 6 -23z m-28 11 c0 -5 -5 -10 -11 -10 -5 0 -7 5
-4 10 3 6 8 10 11 10 2 0 4 -4 4 -10z m173 -20 c-3 -11 -9 -20 -14 -20 -10 0
-12 24 -2 33 13 13 21 7 16 -13z m-237 -21 c0 -10 -2 -19 -3 -19 -8 0 -41 39
-37 43 12 11 40 -6 40 -24z m304 11 c6 -11 8 -20 6 -20 -3 0 -10 9 -16 20 -6
11 -8 20 -6 20 3 0 10 -9 16 -20z m-1380 0 c8 -5 11 -10 5 -10 -5 0 -17 5 -25
10 -8 5 -10 10 -5 10 6 0 17 -5 25 -10z m134 -1 c-4 -7 0 -9 14 -5 24 8 41
-11 18 -20 -23 -9 -63 3 -70 21 -4 11 1 15 20 15 16 0 23 -4 18 -11z m155 -30
c-9 -5 -15 -4 -18 2 -2 6 3 15 10 20 9 5 15 4 18 -2 2 -6 -3 -15 -10 -20z
m866 21 c3 -5 1 -10 -4 -10 -6 0 -11 5 -11 10 0 6 2 10 4 10 3 0 8 -4 11 -10z
m-185 -10 c13 -8 13 -10 -2 -10 -9 0 -20 5 -23 10 -8 13 5 13 25 0z m-35 -20
c-3 -5 -11 -10 -16 -10 -6 0 -7 5 -4 10 3 6 11 10 16 10 6 0 7 -4 4 -10z m409
-20 c8 -16 11 -30 7 -30 -4 0 -17 14 -29 30 -17 23 -19 30 -8 30 8 0 21 -13
30 -30z m-857 14 c-3 -3 -12 -4 -19 -1 -8 3 -5 6 6 6 11 1 17 -2 13 -5z m638
-15 c-4 -5 -1 -9 4 -9 6 0 11 -7 11 -16 0 -14 -2 -15 -16 -3 -15 12 -16 11
-10 -9 9 -27 -9 -30 -24 -3 -14 28 -12 44 5 37 9 -3 15 0 15 10 0 8 5 12 10 9
6 -4 8 -11 5 -16z m295 -33 c0 -12 -5 -7 -19 24 -11 24 -11 24 3 6 9 -11 16
-24 16 -30z m-1182 20 c23 3 37 -2 49 -16 18 -21 43 -27 43 -10 0 15 26 12 40
-5 13 -15 5 -20 -26 -16 -7 1 -15 -6 -18 -15 -4 -11 -2 -15 8 -11 8 3 20 -1
26 -9 8 -9 9 -14 2 -14 -6 0 -9 -9 -7 -20 2 -11 0 -22 -6 -25 -5 -4 -9 -1 -9
6 0 7 -6 4 -14 -7 -8 -10 -18 -16 -22 -11 -4 4 -2 7 4 7 23 0 11 18 -18 29
-33 11 -39 5 -13 -14 13 -9 13 -14 3 -20 -9 -6 -11 -4 -5 5 6 10 4 12 -9 7
-10 -4 -19 -1 -22 8 -3 7 -12 11 -20 8 -10 -4 -12 0 -8 11 3 9 1 16 -5 16 -6
0 -11 -5 -11 -11 0 -5 -5 -7 -10 -4 -6 4 -8 11 -4 16 3 5 0 18 -7 27 -12 14
-10 14 8 -1 13 -11 23 -14 27 -8 4 6 13 8 20 5 8 -3 17 0 21 6 4 7 20 0 45
-20 51 -41 60 -38 15 5 -20 19 -34 39 -30 45 3 5 1 10 -4 10 -6 0 -11 -4 -11
-10 0 -5 -8 -10 -18 -10 -10 0 -23 -5 -28 -10 -18 -18 -55 20 -48 48 4 15 10
19 18 13 6 -5 26 -7 44 -5z m295 -26 c7 0 13 -8 13 -19 0 -11 -5 -17 -13 -14
-7 3 -13 9 -13 13 0 10 -41 21 -53 13 -15 -9 65 -45 91 -40 12 2 22 0 22 -6 0
-6 10 -21 22 -34 12 -13 16 -23 10 -23 -6 0 -17 8 -24 18 -14 20 -84 30 -72
10 4 -7 2 -8 -5 -4 -6 4 -9 10 -7 14 5 9 -15 27 -31 28 -40 3 -44 5 -37 16 4
6 3 8 -4 4 -6 -3 -17 0 -25 8 -8 8 -17 12 -21 9 -9 -9 -7 10 3 26 6 9 11 10
15 2 9 -14 56 -15 56 -1 0 5 7 7 15 4 9 -4 15 -1 15 7 0 7 7 3 16 -9 8 -12 21
-22 27 -22z m35 15 c-6 -6 -58 8 -58 16 0 4 14 3 31 -3 16 -6 29 -12 27 -13z
m652 10 c0 -8 -4 -15 -10 -15 -5 0 -10 7 -10 15 0 8 5 15 10 15 6 0 10 -7 10
-15z m-840 -5 c0 -5 -4 -10 -10 -10 -5 0 -10 5 -10 10 0 6 5 10 10 10 6 0 10
-4 10 -10z m356 -37 c-7 -7 -26 7 -26 19 0 6 6 6 15 -2 9 -7 13 -15 11 -17z
m668 12 c4 -13 2 -14 -14 -5 -23 13 -26 20 -6 20 8 0 16 -7 20 -15z m-767 -12
c-11 -3 -16 -11 -13 -19 3 -9 1 -12 -4 -9 -19 12 -10 35 13 34 18 -1 18 -2 4
-6z m523 -53 c-8 -16 -6 -32 5 -65 4 -11 -3 -5 -15 13 -21 31 -21 34 -6 51 12
13 14 21 7 26 -6 3 -11 1 -11 -5 0 -6 -5 -8 -12 -4 -9 6 -9 9 0 12 7 2 12 11
12 20 0 12 4 9 14 -8 7 -14 10 -32 6 -40z m222 31 c5 -16 4 -21 -4 -19 -6 2
-15 14 -20 27 -5 16 -4 21 4 19 6 -2 15 -14 20 -27z m-975 7 c10 -17 13 -38 4
-38 -3 0 -17 7 -30 16 -18 13 -20 18 -10 25 19 12 27 11 36 -3z m433 8 c0 -3
-4 -8 -10 -11 -5 -3 -10 -1 -10 4 0 6 5 11 10 11 6 0 10 -2 10 -4z m-170 -16
c0 -5 -5 -10 -11 -10 -5 0 -7 5 -4 10 3 6 8 10 11 10 2 0 4 -4 4 -10z m-210
-24 c0 -2 -7 -7 -16 -10 -8 -3 -12 -2 -9 4 6 10 25 14 25 6z m1225 -8 c14 -6
25 -16 25 -22 1 -6 14 -27 30 -46 17 -19 30 -40 30 -46 0 -7 11 -21 25 -32 14
-11 25 -21 25 -23 0 -8 -147 -10 -218 -3 -110 9 -135 45 -80 113 25 31 92 71
120 71 9 0 29 -5 43 -12z m-1655 -7 c0 -13 -28 -22 -35 -11 -3 4 1 11 7 13 20
8 28 8 28 -2z m95 -39 c4 -10 0 -10 -18 -1 -12 7 -22 11 -22 9 0 -2 -10 0 -22
4 -13 4 -23 12 -23 18 0 6 7 5 17 -3 15 -12 16 -12 11 3 -6 15 -5 15 22 0 17
-9 32 -23 35 -30z m61 19 c5 -5 18 -11 29 -14 13 -3 8 -5 -13 -6 -18 0 -31 3
-28 8 4 5 0 12 -6 14 -7 3 -8 6 -2 6 5 1 14 -3 20 -8z m1009 -1 c3 -6 -1 -7
-9 -4 -18 7 -21 14 -7 14 6 0 13 -4 16 -10z m35 -75 c0 -5 -5 -3 -10 5 -5 8
-10 20 -10 25 0 6 5 3 10 -5 5 -8 10 -19 10 -25z m-610 -10 c11 -13 10 -14 -4
-9 -9 3 -16 2 -16 -4 0 -6 6 -12 13 -15 9 -3 6 -16 -10 -48 -14 -27 -20 -53
-17 -66 4 -13 2 -23 -3 -23 -11 0 -10 -56 1 -82 14 -32 2 -63 -33 -80 -40 -20
-65 -53 -58 -78 3 -13 0 -17 -9 -13 -9 3 -14 -2 -14 -16 0 -12 5 -21 10 -21 6
0 10 -12 10 -26 0 -27 9 -39 53 -67 15 -10 27 -24 27 -31 0 -8 3 -16 8 -18 4
-1 17 -22 29 -46 17 -34 20 -49 13 -68 -6 -14 -10 -45 -10 -69 0 -71 -6 -77
-46 -56 -19 11 -46 31 -59 45 -13 14 -28 26 -33 26 -16 0 -90 87 -111 131 -12
23 -21 53 -21 66 0 13 -6 36 -14 51 -29 56 -56 174 -45 194 8 14 8 23 0 31 -7
7 -7 14 0 24 8 9 8 13 0 13 -6 0 -11 13 -11 29 0 23 5 30 22 33 14 2 25 15 33
38 11 31 16 35 42 32 20 -2 38 5 56 22 15 14 29 20 32 15 9 -14 25 -11 25 5 0
8 9 17 20 21 11 3 38 22 61 41 22 19 42 34 44 34 1 0 8 -7 15 -15z m-140 -15
c0 -5 -6 -10 -14 -10 -8 0 -18 5 -21 10 -3 6 3 10 14 10 12 0 21 -4 21 -10z
m-373 -36 c-3 -3 -12 -4 -19 -1 -8 3 -5 6 6 6 11 1 17 -2 13 -5z m1788 -4 c-3
-5 -11 -10 -16 -10 -6 0 -7 5 -4 10 3 6 11 10 16 10 6 0 7 -4 4 -10z m-35 -10
c0 -5 -5 -10 -11 -10 -5 0 -7 5 -4 10 3 6 8 10 11 10 2 0 4 -4 4 -10z m-1700
-19 c0 -5 -9 -7 -20 -4 -11 3 -20 7 -20 9 0 2 9 4 20 4 11 0 20 -4 20 -9z m35
-11 c-3 -5 -10 -10 -16 -10 -5 0 -9 5 -9 10 0 6 7 10 16 10 8 0 12 -4 9 -10z
m-85 -61 c0 -14 -11 -11 -32 8 -27 24 -22 36 7 17 14 -9 25 -20 25 -25z m-73
-17 c-14 -3 -16 -7 -6 -18 7 -8 7 -14 1 -14 -15 0 -22 26 -10 38 6 6 16 8 22
4 7 -4 4 -8 -7 -10z m-97 -2 c0 -5 10 -10 23 -10 29 0 53 -15 38 -24 -6 -4
-11 -2 -11 3 0 6 -9 11 -19 11 -11 0 -26 3 -35 6 -18 7 -22 24 -6 24 6 0 10
-4 10 -10z m142 -20 c7 -23 13 -28 23 -20 12 10 25 4 25 -11 0 -5 -7 -5 -17
-2 -11 4 -14 3 -9 -5 5 -8 2 -10 -8 -6 -9 3 -16 13 -16 21 0 9 -6 13 -13 10
-10 -4 -13 2 -9 19 6 32 11 30 24 -6z m73 19 c4 -6 13 -8 21 -5 8 3 11 0 7
-10 -3 -7 -9 -14 -13 -14 -9 0 -40 28 -40 36 0 8 19 4 25 -7z m-179 -41 c4 -5
-6 -8 -22 -6 -15 2 -29 8 -31 14 -5 14 44 6 53 -8z m792 -135 c2 -12 -5 -34
-15 -50 -10 -15 -13 -24 -7 -20 7 4 17 0 24 -9 7 -8 20 -12 29 -9 8 3 53 8
100 11 46 3 88 7 93 10 4 3 8 0 8 -7 0 -9 3 -9 14 0 11 9 17 4 30 -24 10 -19
15 -39 11 -44 -3 -5 -2 -11 2 -13 5 -1 31 -29 60 -61 50 -55 60 -87 27 -87 -9
0 -14 -10 -12 -28 2 -34 -8 -52 -30 -52 -15 0 -15 -2 -2 -10 12 -8 10 -10 -9
-10 -17 0 -22 -4 -17 -16 4 -9 2 -13 -5 -8 -8 4 -9 -1 -4 -15 5 -16 0 -27 -19
-42 -13 -11 -28 -28 -31 -39 -4 -13 -15 -20 -31 -20 -20 0 -24 -5 -26 -32 0
-18 -2 -37 -3 -43 -9 -35 -19 -55 -27 -55 -5 0 -6 -10 -3 -21 5 -14 3 -19 -3
-15 -6 4 -8 -2 -5 -14 4 -17 0 -20 -25 -20 -23 0 -43 13 -86 55 -31 31 -56 60
-56 65 0 5 -16 31 -35 56 -39 50 -65 105 -65 135 0 11 9 27 21 37 11 9 27 32
34 50 13 29 12 36 -6 68 -10 19 -17 39 -14 45 4 5 0 9 -7 10 -7 0 -2 5 11 10
14 5 30 8 37 5 7 -3 14 -2 17 1 7 6 -25 38 -47 46 -9 4 -15 11 -12 16 4 5 1
11 -5 13 -7 2 -13 33 -15 75 -4 79 -2 81 66 79 28 -1 36 -5 38 -23z m-843 -23
c4 -6 16 -8 28 -5 19 5 20 5 5 -5 -16 -10 -58 1 -58 15 0 9 19 5 25 -5z m78
-43 c-4 -6 0 -8 10 -4 10 3 17 2 17 -3 0 -13 -16 -13 -40 0 -12 6 -17 16 -13
25 4 12 9 13 19 4 8 -6 11 -16 7 -22z m1950 23 c7 -1 -1 -7 -18 -14 -35 -15
-38 -15 -29 8 4 10 13 15 21 12 8 -3 20 -6 26 -6z m-1899 -15 c3 -8 1 -15 -4
-15 -6 0 -10 7 -10 15 0 8 2 15 4 15 2 0 6 -7 10 -15z m81 -29 c10 4 12 0 8
-15 -6 -25 -11 -25 -37 -6 -12 9 -29 12 -45 8 -14 -3 -23 -2 -19 2 10 11 73
22 76 14 2 -4 9 -6 17 -3z m2115 -7 c-11 -8 -12 -12 -2 -16 6 -2 9 -10 5 -16
-4 -7 -8 -18 -8 -26 0 -8 -13 -21 -28 -30 -16 -9 -35 -27 -43 -41 -7 -14 -14
-20 -15 -15 -3 22 3 81 9 90 4 6 7 13 7 17 0 8 46 44 65 50 21 7 27 -1 10 -13z
m-2315 -19 c3 -5 1 -10 -4 -10 -6 0 -11 5 -11 10 0 6 2 10 4 10 3 0 8 -4 11
-10z m2035 -67 c0 -17 -20 -16 -44 2 -18 13 -17 14 12 12 18 -1 32 -8 32 -14z
m137 -37 c3 -37 -13 -58 -23 -31 -6 14 9 65 18 65 2 0 4 -16 5 -34z m-1987 -1
c0 -8 -7 -15 -15 -15 -26 0 -18 20 13 29 1 1 2 -6 2 -14z m60 -35 c0 -5 -2
-10 -4 -10 -3 0 -8 5 -11 10 -3 6 -1 10 4 10 6 0 11 -4 11 -10z m60 -26 c0 -8
-4 -14 -10 -14 -5 0 -10 9 -10 21 0 11 5 17 10 14 6 -3 10 -13 10 -21z m-150
6 c0 -5 -5 -10 -11 -10 -5 0 -7 5 -4 10 3 6 8 10 11 10 2 0 4 -4 4 -10z m80
-30 c0 -5 -4 -10 -10 -10 -5 0 -10 5 -10 10 0 6 5 10 10 10 6 0 10 -4 10 -10z
m44 1 c6 -10 -24 -25 -32 -16 -3 3 1 5 9 5 11 0 11 2 -1 10 -13 8 -13 10 2 10
9 0 19 -4 22 -9z m67 -55 c-13 -15 -41 -11 -41 6 0 6 7 7 16 4 12 -5 14 -1 9
17 -7 21 -6 21 11 5 14 -14 15 -20 5 -32z m39 24 c0 -5 -4 -10 -10 -10 -5 0
-10 5 -10 10 0 6 5 10 10 10 6 0 10 -4 10 -10z m-105 -60 c-3 -5 -11 -10 -16
-10 -6 0 -7 5 -4 10 3 6 11 10 16 10 6 0 7 -4 4 -10z m75 -2 c0 -11 -22 -10
-39 1 -10 7 -7 9 12 8 15 -1 27 -5 27 -9z m50 -3 c9 -10 9 -15 1 -15 -6 0 -11
5 -11 11 0 5 -4 7 -10 4 -5 -3 -10 -1 -10 4 0 16 16 13 30 -4z m33 -32 c-7 -2
-21 -2 -30 0 -10 3 -4 5 12 5 17 0 24 -2 18 -5z m1032 -78 c17 0 33 3 36 8 4
5 9 5 13 -1 10 -17 -32 -25 -93 -16 -45 6 -51 8 -31 14 14 4 30 4 35 1 6 -3
24 -6 40 -6z m470 -14 c-3 -5 -22 -7 -43 -4 -35 6 -36 5 -22 -12 14 -16 12
-17 -27 -14 -24 3 -39 0 -36 -5 4 -5 -1 -7 -11 -3 -10 4 -20 7 -22 7 -2 0 -4
9 -4 20 0 18 7 20 86 20 50 0 83 -4 79 -9z m-1385 -31 c0 -5 -4 -10 -10 -10
-5 0 -10 5 -10 10 0 6 5 10 10 10 6 0 10 -4 10 -10z m48 -25 c-3 -3 -13 -2
-22 1 -14 5 -15 9 -4 15 13 8 36 -6 26 -16z m62 16 c0 -15 -33 -22 -44 -10 -8
9 -7 10 6 6 10 -3 20 -2 23 3 8 12 15 13 15 1z m-30 -31 c13 -8 13 -10 -2 -10
-9 0 -20 5 -23 10 -8 13 5 13 25 0z m57 -47 c29 -13 34 -18 19 -21 -10 -2 -22
2 -26 8 -4 7 -13 9 -19 6 -6 -4 -11 -3 -11 2 0 6 -8 8 -19 5 -10 -3 -21 -1
-24 4 -10 16 40 13 80 -4z m37 -48 c-4 -8 -16 -15 -28 -15 -20 1 -20 1 4 15
31 18 30 18 24 0z m-681 -52 c-7 -2 -19 -2 -25 0 -7 3 -2 5 12 5 14 0 19 -2
13 -5z m80 -46 c17 5 20 3 10 -7 -14 -15 -43 -6 -42 12 0 9 2 9 5 2 3 -7 15
-9 27 -7z m164 -13 c-3 -3 -12 -4 -19 -1 -8 3 -5 6 6 6 11 1 17 -2 13 -5z m98
-34 c3 -6 -4 -10 -17 -10 -18 0 -20 2 -8 10 19 12 18 12 25 0z m665 0 c0 -5
-5 -10 -11 -10 -5 0 -7 5 -4 10 3 6 8 10 11 10 2 0 4 -4 4 -10z m-600 -28 c0
-5 10 -14 23 -20 21 -10 21 -11 2 -11 -21 -1 -45 16 -45 31 0 4 5 8 10 8 6 0
10 -4 10 -8z m595 -2 c-3 -5 -14 -10 -23 -9 -14 0 -13 2 3 9 27 11 27 11 20 0z
m-640 -10 c-3 -5 -10 -10 -16 -10 -5 0 -9 5 -9 10 0 6 7 10 16 10 8 0 12 -4 9
-10z m185 -20 c0 -5 -5 -10 -11 -10 -5 0 -7 5 -4 10 3 6 8 10 11 10 2 0 4 -4
4 -10z m420 -57 c0 -19 -3 -24 -10 -17 -6 6 -8 18 -4 27 9 24 14 21 14 -10z
m-305 -13 c-27 -12 -43 -12 -25 0 8 5 22 9 30 9 10 0 8 -3 -5 -9z m-185 -50
c0 -5 -5 -10 -11 -10 -5 0 -7 5 -4 10 3 6 8 10 11 10 2 0 4 -4 4 -10z m340
-14 c0 -2 -9 -6 -20 -9 -11 -3 -20 -1 -20 4 0 5 9 9 20 9 11 0 20 -2 20 -4z
m-13 -32 c-3 -3 -12 -4 -19 -1 -8 3 -5 6 6 6 11 1 17 -2 13 -5z m80 -36 c-3
-8 -6 -5 -6 6 -1 11 2 17 5 13 3 -3 4 -12 1 -19z m-835 -32 c34 -4 31 -16 -4
-16 -24 0 -38 5 -42 16 -5 13 -2 15 11 9 10 -4 26 -8 35 -9z m658 -76 c0 -4
-8 -11 -17 -14 -10 -4 -14 -4 -10 0 4 4 2 13 -4 20 -8 9 -5 11 10 7 12 -3 21
-9 21 -13z m-396 1 c3 -4 -6 -6 -19 -3 -14 2 -25 6 -25 8 0 8 39 4 44 -5z
m276 5 c0 -2 -7 -7 -16 -10 -8 -3 -12 -2 -9 4 6 10 25 14 25 6z m-214 -37
c-17 -5 -36 -4 -45 2 -13 8 -11 9 7 4 12 -4 22 -2 22 3 0 6 10 7 22 4 22 -5
21 -6 -6 -13z m264 11 c10 0 25 -7 33 -15 8 -8 17 -12 20 -9 3 3 8 0 12 -7 6
-9 1 -10 -19 -5 -16 4 -25 3 -22 -2 3 -5 -6 -7 -19 -4 -14 2 -25 9 -25 14 0 6
9 8 20 5 11 -3 20 -1 20 4 0 13 -34 11 -49 -3 -10 -11 -11 -9 -5 6 5 13 4 17
-4 12 -7 -4 -12 -2 -12 4 0 7 7 9 16 6 9 -3 24 -6 34 -6z m-225 -31 c11 -17
-1 -21 -15 -4 -8 9 -8 15 -2 15 6 0 14 -5 17 -11z m335 -19 c0 -5 -2 -10 -4
-10 -3 0 -8 5 -11 10 -3 6 -1 10 4 10 6 0 11 -4 11 -10z m-75 -21 c5 -6 -1 -8
-16 -7 -14 1 -31 8 -38 15 -10 11 -8 13 16 7 15 -4 32 -11 38 -15z m-555 -4
c0 -2 -10 -9 -22 -15 -22 -11 -22 -10 -4 4 21 17 26 19 26 11z m627 -31 c-3
-3 -12 -4 -19 -1 -8 3 -5 6 6 6 11 1 17 -2 13 -5z m-532 -14 c-3 -5 -11 -10
-17 -10 -5 0 -23 -9 -39 -21 -16 -11 -29 -18 -29 -14 0 3 -9 1 -20 -5 -14 -7
-20 -7 -20 0 0 5 6 10 14 10 7 0 24 8 37 19 21 16 44 26 72 30 5 0 5 -3 2 -9z
m-100 -10 c-27 -12 -43 -12 -25 0 8 5 22 9 30 9 10 0 8 -3 -5 -9z m115 -26 c0
-5 -64 -34 -76 -34 -4 0 -1 6 6 14 10 13 21 17 63 25 4 0 7 -1 7 -5z m27 -23
c-1 -14 -15 -25 -44 -36 -60 -23 -78 -13 -22 12 26 12 50 26 53 32 10 16 15
13 13 -8z m43 10 c0 -5 -7 -12 -16 -15 -24 -9 -28 -7 -14 9 14 17 30 20 30 6z
m-163 -27 c-3 -3 -12 -4 -19 -1 -8 3 -5 6 6 6 11 1 17 -2 13 -5z m170 -16 c-2
-7 -10 -12 -17 -10 -7 1 -23 -4 -36 -13 -13 -8 -24 -11 -24 -6 0 5 9 13 20 16
11 3 20 11 20 16 0 5 9 9 21 9 12 0 19 -5 16 -12z m420 6 c-3 -3 -12 -4 -19
-1 -8 3 -5 6 6 6 11 1 17 -2 13 -5z m-730 -10 c-3 -3 -12 -4 -19 -1 -8 3 -5 6
6 6 11 1 17 -2 13 -5z m581 -26 c17 -17 29 -35 26 -40 -3 -4 2 -8 10 -8 9 0
16 -7 16 -15 0 -26 -15 -17 -50 30 -19 25 -40 45 -47 45 -7 0 -13 5 -13 10 0
20 28 9 58 -22z m-249 -8 c-10 -7 -10 -11 0 -24 11 -13 11 -16 -3 -16 -9 0
-16 8 -16 21 0 11 -4 17 -10 14 -6 -4 -8 -16 -4 -27 4 -15 2 -19 -7 -15 -8 2
-13 10 -11 16 2 13 -14 15 -22 2 -7 -11 -46 -22 -46 -13 1 13 53 45 84 52 35
8 55 2 35 -10z m41 -9 c0 -12 -20 -25 -27 -18 -7 7 6 27 18 27 5 0 9 -4 9 -9z
m60 -15 c0 -7 -62 -36 -77 -36 -7 0 -13 -5 -13 -11 0 -6 7 -9 15 -5 8 3 15 1
15 -3 0 -17 -28 -20 -35 -4 -7 20 6 34 47 49 38 14 48 16 48 10z m-375 -16
c-3 -5 -14 -10 -23 -9 -14 0 -13 2 3 9 27 11 27 11 20 0z m-55 -15 c0 -9 -57
-34 -63 -28 -10 10 3 22 17 17 8 -3 17 -1 21 5 6 11 25 15 25 6z m258 -2 c-10
-2 -18 -8 -18 -13 0 -5 -8 -6 -17 -3 -15 6 -15 7 3 14 10 4 26 7 34 7 10 0 9
-2 -2 -5z m50 -21 c2 -7 -2 -11 -10 -10 -7 2 -12 -3 -10 -9 3 -19 -18 -16 -25
3 -3 9 0 20 8 25 17 11 31 7 37 -9z m197 -2 c3 -5 1 -10 -4 -10 -6 0 -11 5
-11 10 0 6 2 10 4 10 3 0 8 -4 11 -10z m-82 -26 c-3 -7 -9 -11 -14 -8 -5 3
-12 -2 -15 -10 -5 -12 -9 -13 -25 -3 -18 11 -18 12 1 22 31 17 60 16 53 -1z
m160 -3 c-2 -6 5 -11 15 -12 11 0 12 -2 4 -6 -14 -5 -42 14 -42 29 0 5 6 8 13
5 6 -2 11 -10 10 -16z m-373 0 c0 -5 -7 -11 -15 -15 -15 -5 -20 5 -8 17 9 10
23 9 23 -2z m-60 -21 c0 -5 -5 -10 -11 -10 -5 0 -7 5 -4 10 3 6 8 10 11 10 2
0 4 -4 4 -10z m270 -19 c0 -10 -50 -25 -58 -17 -3 3 6 10 19 15 31 13 39 13
39 2z m-104 -23 c4 -6 0 -16 -9 -23 -9 -7 -14 -15 -10 -18 3 -4 -5 -7 -18 -7
l-24 1 23 19 c13 11 21 24 17 30 -3 5 -2 10 4 10 5 0 13 -5 17 -12z m-80 -64
c-22 -15 -36 -18 -36 -6 0 9 43 30 50 24 3 -2 -4 -10 -14 -18z m-46 -8 c0 -13
-60 -39 -84 -38 -15 2 -35 -3 -44 -10 -13 -11 -14 -10 -11 1 3 8 22 20 42 27
21 7 35 9 32 4 -3 -5 7 -3 22 5 28 15 43 19 43 11z m205 -6 c-3 -5 -13 -10
-21 -10 -8 0 -14 5 -14 10 0 6 9 10 21 10 11 0 17 -4 14 -10z m-105 -34 c0 -2
-7 -6 -15 -10 -8 -3 -15 -1 -15 4 0 6 7 10 15 10 8 0 15 -2 15 -4z m-336 -35
c3 -5 -1 -12 -10 -15 -22 -9 -24 -8 -24 9 0 16 25 21 34 6z m56 -25 c0 -3 -4
-8 -10 -11 -5 -3 -10 -1 -10 4 0 6 5 11 10 11 6 0 10 -2 10 -4z m10 -96 c0
-11 -4 -20 -10 -20 -5 0 -10 9 -10 20 0 11 5 20 10 20 6 0 10 -9 10 -20z"/>
<path d="M920 2974 c0 -3 9 -14 20 -26 11 -12 20 -31 20 -42 1 -19 2 -19 11
-4 7 13 5 24 -6 42 -15 22 -45 43 -45 30z"/>
<path d="M1070 2680 c0 -5 5 -10 10 -10 6 0 10 5 10 10 0 6 -4 10 -10 10 -5 0
-10 -4 -10 -10z"/>
<path d="M1009 2523 c6 -12 11 -31 11 -42 0 -15 6 -21 21 -21 11 0 17 5 14 10
-4 6 -11 8 -16 5 -5 -4 -9 2 -9 12 0 11 -7 28 -16 39 -15 18 -15 18 -5 -3z"/>
<path d="M913 2443 c-16 -6 -6 -52 16 -73 13 -13 14 -13 8 4 -4 10 -2 25 4 32
8 9 8 14 1 14 -6 0 -12 6 -14 13 -2 8 -9 12 -15 10z"/>
<path d="M956 2381 c-3 -5 1 -11 9 -14 9 -4 12 -1 8 9 -6 16 -10 17 -17 5z"/>
<path d="M1400 2360 c0 -5 5 -10 10 -10 6 0 10 5 10 10 0 6 -4 10 -10 10 -5 0
-10 -4 -10 -10z"/>
<path d="M1110 2331 c0 -5 5 -13 10 -16 6 -3 10 -2 10 4 0 5 -4 13 -10 16 -5
3 -10 2 -10 -4z"/>
<path d="M1060 2300 c0 -6 -5 -8 -10 -5 -6 3 -13 -1 -16 -10 -10 -24 4 -31 20
-9 8 11 18 15 23 10 4 -5 2 -11 -4 -13 -7 -3 -13 -9 -13 -14 0 -6 8 -5 20 1
11 6 20 15 20 20 0 5 -9 14 -20 20 -14 8 -20 8 -20 0z"/>
<path d="M1411 2247 c-16 -34 -41 -79 -55 -99 -14 -21 -30 -48 -37 -60 -12
-23 -12 -23 9 -4 13 11 30 16 42 13 13 -3 24 1 30 14 7 12 21 19 40 19 35 0
36 2 14 36 -13 19 -15 38 -11 84 4 33 5 60 2 60 -2 0 -17 -28 -34 -63z"/>
<path d="M920 2280 c0 -5 5 -10 11 -10 5 0 7 5 4 10 -3 6 -8 10 -11 10 -2 0
-4 -4 -4 -10z"/>
<path d="M1135 2257 c-4 -10 -5 -21 -1 -24 10 -10 18 4 13 24 -4 17 -4 17 -12
0z"/>
<path d="M1250 2259 c0 -5 5 -7 10 -4 6 3 10 8 10 11 0 2 -4 4 -10 4 -5 0 -10
-5 -10 -11z"/>
<path d="M940 2240 c0 -5 7 -10 16 -10 8 0 12 5 9 10 -3 6 -10 10 -16 10 -5 0
-9 -4 -9 -10z"/>
<path d="M1065 2239 c-4 -6 -4 -13 -1 -16 8 -8 36 5 36 17 0 13 -27 13 -35 -1z"/>
<path d="M1025 2181 c-18 -4 -31 -14 -33 -25 -3 -15 0 -17 14 -12 11 4 31 10
47 13 15 3 27 12 27 19 0 15 -7 15 -55 5z"/>
<path d="M2438 2153 c7 -3 16 -2 19 1 4 3 -2 6 -13 5 -11 0 -14 -3 -6 -6z"/>
<path d="M1480 2040 c-19 -11 -47 -19 -62 -20 -16 0 -28 -4 -28 -10 0 -9 6
-11 38 -14 18 -2 32 -26 32 -58 0 -15 7 -34 16 -43 9 -8 13 -22 10 -30 -3 -8
-3 -22 0 -30 5 -12 10 -13 20 -4 17 14 18 61 3 76 -14 14 -13 121 2 139 15 18
12 17 -31 -6z"/>
<path d="M1618 1553 c7 -3 16 -2 19 1 4 3 -2 6 -13 5 -11 0 -14 -3 -6 -6z"/>
<path d="M360 2520 c0 -5 5 -10 10 -10 6 0 10 5 10 10 0 6 -4 10 -10 10 -5 0
-10 -4 -10 -10z"/>
<path d="M365 2450 c3 -5 8 -10 11 -10 2 0 4 5 4 10 0 6 -5 10 -11 10 -5 0 -7
-4 -4 -10z"/>
<path d="M478 2158 c5 -5 16 -8 23 -6 8 3 3 7 -10 11 -17 4 -21 3 -13 -5z"/>
<path d="M370 3189 c0 -5 5 -7 10 -4 6 3 10 8 10 11 0 2 -4 4 -10 4 -5 0 -10
-5 -10 -11z"/>
<path d="M404 3187 c3 -10 6 -23 6 -28 0 -6 5 -7 11 -4 5 4 19 -1 29 -10 25
-22 50 -13 43 14 -3 12 -10 21 -15 21 -5 0 -6 5 -3 10 4 6 -7 10 -24 10 -18 0
-31 -5 -31 -12 0 -9 -4 -8 -11 2 -9 12 -10 12 -5 -3z m56 -23 c0 -12 -2 -12
-14 -2 -8 7 -12 16 -9 21 7 11 23 -2 23 -19z"/>
<path d="M16 3163 c-3 -3 -3 -10 0 -14 7 -12 34 -11 34 0 0 11 -26 22 -34 14z"/>
<path d="M550 3140 c0 -5 4 -10 9 -10 4 0 24 -11 44 -24 19 -13 37 -22 40 -20
2 3 10 -2 17 -11 7 -8 19 -15 28 -15 13 0 12 3 -3 20 -10 11 -24 20 -32 20 -7
0 -13 4 -13 9 0 5 -18 16 -40 25 -47 19 -50 19 -50 6z"/>
<path d="M78 3115 c11 -15 19 -19 24 -12 8 14 -5 30 -27 33 -12 2 -12 -2 3
-21z"/>
<path d="M525 3110 c3 -5 11 -10 16 -10 6 0 7 5 4 10 -3 6 -11 10 -16 10 -6 0
-7 -4 -4 -10z"/>
<path d="M0 2915 c0 -8 9 -15 20 -15 12 0 34 -7 50 -15 26 -14 29 -14 24 0 -4
8 -13 15 -21 15 -8 0 -27 7 -43 15 -27 14 -30 14 -30 0z"/>
<path d="M333 2917 c2 -7 12 -14 21 -15 11 -3 17 1 14 9 -2 7 -12 13 -22 15
-9 1 -15 -3 -13 -9z"/>
<path d="M390 2919 c0 -5 5 -7 10 -4 6 3 10 8 10 11 0 2 -4 4 -10 4 -5 0 -10
-5 -10 -11z"/>
<path d="M120 2889 c0 -5 5 -7 10 -4 6 3 10 8 10 11 0 2 -4 4 -10 4 -5 0 -10
-5 -10 -11z"/>
<path d="M155 2770 c3 -5 13 -10 21 -10 8 0 14 5 14 10 0 6 -9 10 -21 10 -11
0 -17 -4 -14 -10z"/>
<path d="M5 2580 c-4 -12 -4 -24 0 -28 9 -10 125 -19 125 -10 0 4 -15 8 -34 8
-32 0 -54 14 -55 35 0 20 -29 16 -36 -5z m25 -10 c0 -5 -2 -10 -4 -10 -3 0 -8
5 -11 10 -3 6 -1 10 4 10 6 0 11 -4 11 -10z"/>
<path d="M60 2579 c0 -5 5 -7 10 -4 6 3 10 8 10 11 0 2 -4 4 -10 4 -5 0 -10
-5 -10 -11z"/>
<path d="M165 2560 c3 -5 13 -10 21 -10 8 0 12 5 9 10 -3 6 -13 10 -21 10 -8
0 -12 -4 -9 -10z"/>
<path d="M225 2550 c3 -5 8 -10 11 -10 2 0 4 5 4 10 0 6 -5 10 -11 10 -5 0 -7
-4 -4 -10z"/>
<path d="M259 2536 c13 -15 12 -17 -10 -14 -13 2 -30 7 -36 11 -23 14 -14 -3
17 -33 32 -31 52 -41 30 -15 -7 9 -10 18 -6 22 3 3 6 1 6 -5 0 -7 4 -12 9 -12
16 0 7 53 -9 58 -13 5 -13 3 -1 -12z"/>
<path d="M140 2530 c0 -5 7 -7 15 -4 8 4 15 8 15 10 0 2 -7 4 -15 4 -8 0 -15
-4 -15 -10z"/>
<path d="M0 2520 c0 -5 7 -10 15 -10 8 0 15 5 15 10 0 6 -7 10 -15 10 -8 0
-15 -4 -15 -10z"/>
<path d="M35 2490 c3 -5 8 -10 11 -10 2 0 4 5 4 10 0 6 -5 10 -11 10 -5 0 -7
-4 -4 -10z"/>
<path d="M7 1183 c-14 -14 -6 -19 23 -15 17 2 30 8 30 13 0 10 -43 12 -53 2z"/>
<path d="M315 1130 c3 -5 11 -10 16 -10 6 0 7 5 4 10 -3 6 -11 10 -16 10 -6 0
-7 -4 -4 -10z"/>
<path d="M265 1119 c-4 -6 -5 -13 -2 -16 7 -7 27 6 27 18 0 12 -17 12 -25 -2z"/>
<path d="M355 1082 c-29 -6 -43 -22 -19 -22 20 0 52 16 44 23 -3 2 -14 1 -25
-1z"/>
<path d="M575 1060 c-3 -5 1 -10 9 -10 9 0 16 5 16 10 0 6 -4 10 -9 10 -6 0
-13 -4 -16 -10z"/>
<path d="M540 1056 c0 -2 7 -9 15 -16 13 -11 14 -10 9 4 -5 14 -24 23 -24 12z"/>
<path d="M692 969 c2 -6 8 -10 13 -10 5 0 11 4 13 10 2 6 -4 11 -13 11 -9 0
-15 -5 -13 -11z"/>
<path d="M750 920 c0 -5 5 -10 10 -10 6 0 10 5 10 10 0 6 -4 10 -10 10 -5 0
-10 -4 -10 -10z"/>
<path d="M740 875 c0 -7 51 -55 58 -55 5 0 -13 25 -35 47 -12 14 -23 17 -23 8z"/>
<path d="M0 850 c0 -5 7 -10 16 -10 8 0 12 5 9 10 -3 6 -10 10 -16 10 -5 0 -9
-4 -9 -10z"/>
<path d="M835 820 c-3 -5 -1 -10 4 -10 6 0 11 5 11 10 0 6 -2 10 -4 10 -3 0
-8 -4 -11 -10z"/>
<path d="M900 811 c-14 -28 -13 -33 8 -22 9 6 31 13 47 17 l30 7 -25 7 c-40
13 -49 11 -60 -9z"/>
<path d="M440 691 c0 -6 5 -11 10 -11 6 0 10 -7 10 -15 0 -8 5 -15 11 -15 18
0 5 45 -13 48 -10 2 -18 -1 -18 -7z"/>
<path d="M498 643 c7 -3 16 -2 19 1 4 3 -2 6 -13 5 -11 0 -14 -3 -6 -6z"/>
<path d="M555 580 c3 -5 8 -10 11 -10 2 0 4 5 4 10 0 6 -5 10 -11 10 -5 0 -7
-4 -4 -10z"/>
<path d="M643 465 c0 -8 4 -15 9 -15 4 0 8 4 8 9 0 6 -4 12 -8 15 -5 3 -9 -1
-9 -9z"/>
<path d="M3 270 c-2 -23 1 -24 28 -9 22 11 17 29 -9 29 -11 0 -18 -8 -19 -20z"/>
<path d="M70 280 c-8 -5 -10 -10 -5 -10 6 0 17 5 25 10 8 5 11 10 5 10 -5 0
-17 -5 -25 -10z"/>
</g>
</svg>
