<?xml version="1.0" standalone="no"?>
<!DOCTYPE svg PUBLIC "-//W3C//DTD SVG 20010904//EN"
 "http://www.w3.org/TR/2001/REC-SVG-20010904/DTD/svg10.dtd">
<svg version="1.0" xmlns="http://www.w3.org/2000/svg"
 width="320.000000pt" height="320.000000pt" viewBox="0 0 320.000000 320.000000"
 preserveAspectRatio="xMidYMid meet">

<g transform="translate(0.000000,320.000000) scale(0.100000,-0.100000)"
fill="#000000" stroke="none">
<path d="M453 2921 c-40 -18 -42 -36 -7 -68 19 -18 24 -30 20 -51 -2 -15 -8
-87 -11 -159 -7 -130 -6 -133 14 -133 12 0 21 -4 21 -9 0 -5 -9 -7 -19 -4 -17
4 -20 -2 -25 -59 -3 -34 -7 -112 -10 -173 -4 -108 0 -109 22 -5 8 37 9 26 6
-55 -2 -55 -6 -170 -9 -255 -3 -85 -7 -175 -10 -200 -3 -25 -10 -137 -16 -250
-6 -113 -12 -217 -13 -232 -2 -16 -3 -41 -4 -58 -1 -16 -7 -30 -13 -30 -8 0
-10 17 -7 50 3 28 1 53 -3 56 -5 3 -9 -34 -8 -83 0 -63 3 -82 9 -65 5 12 12
22 16 22 9 0 -14 -520 -23 -530 -3 -3 -11 4 -20 15 -10 14 -13 33 -9 63 l6 42
-181 0 -180 0 2 -156 c1 -171 7 -192 46 -167 13 9 23 12 23 9 0 -4 14 1 31 9
31 17 46 15 35 -4 -4 -6 -22 -13 -40 -16 -31 -6 -32 -9 -23 -30 8 -16 16 -20
27 -14 34 18 178 36 237 29 62 -8 81 -19 144 -81 54 -54 63 -103 39 -209 -11
-48 -22 -94 -26 -103 -6 -16 65 -17 1147 -17 l1154 1 27 26 c21 20 33 24 58
20 29 -6 30 -5 24 21 -19 75 -20 77 -50 82 -22 4 -30 11 -32 32 -3 24 0 26 33
25 26 -1 34 -5 30 -15 -3 -7 0 -10 6 -7 5 4 7 16 3 28 -5 18 -4 20 7 10 20
-19 31 -15 19 6 -7 15 -6 23 5 35 19 18 19 42 2 53 -8 4 -19 23 -25 42 -10 28
-9 37 3 51 8 9 12 20 9 23 -4 4 -1 14 6 23 12 13 11 17 -1 25 -8 5 -9 9 -4 9
6 0 -1 7 -15 15 -16 9 -20 15 -10 16 8 0 -1 5 -20 9 -24 6 -37 4 -45 -4 -5 -7
-28 -18 -51 -25 -33 -11 -46 -11 -64 -1 l-24 13 28 23 c25 22 25 24 7 24 -12
0 -21 -3 -21 -7 0 -5 -11 -13 -25 -19 -18 -9 -25 -9 -29 0 -2 6 -5 3 -5 -6 -1
-11 -19 -22 -53 -33 -29 -10 -61 -24 -70 -33 -11 -9 -18 -11 -18 -4 0 14 72
68 120 90 25 11 66 16 140 16 118 0 176 -18 267 -85 27 -18 53 -34 58 -35 24
-2 45 -17 45 -33 0 -9 8 -25 17 -36 15 -19 15 -19 9 7 -3 15 -2 38 4 52 7 21
6 26 -5 26 -22 0 -19 40 3 41 13 0 12 2 -6 9 -12 5 -28 7 -35 4 -19 -7 -43 23
-61 76 -8 24 -14 45 -13 45 1 0 18 8 37 17 35 17 35 17 8 17 -44 1 -29 26 22
36 3 1 15 5 28 9 19 6 21 10 11 22 -8 10 -21 13 -36 9 -14 -3 -23 -1 -23 6 0
7 -12 10 -30 7 -22 -3 -30 0 -30 10 0 9 -7 13 -20 9 -11 -3 -18 -2 -16 2 3 4
-11 41 -29 82 -19 40 -35 80 -35 87 0 6 -6 12 -13 12 -9 0 -19 22 -26 55 -7
30 -16 55 -21 55 -5 0 -12 9 -15 21 -8 24 -36 59 -47 59 -5 0 -8 -8 -8 -17 0
-18 -22 -85 -30 -93 -22 -22 -50 -73 -50 -92 0 -13 -9 -34 -20 -48 -20 -25
-20 -25 -36 -5 -8 11 -20 19 -25 17 -5 -1 -9 4 -9 10 0 9 -4 8 -10 -2 -13 -21
-13 -3 1 22 8 16 8 19 -1 13 -9 -5 -10 -1 -5 16 10 36 -8 9 -54 -81 -22 -41
-73 -120 -113 -175 -136 -183 -195 -235 -265 -235 -36 0 -76 27 -69 47 3 8 2
12 -2 9 -5 -3 -21 22 -38 54 -29 59 -29 59 -66 53 -82 -12 -209 38 -275 110
-23 25 -45 42 -48 39 -4 -4 -3 7 1 23 4 17 11 32 16 33 12 5 10 90 -2 97 -7 4
-9 -2 -5 -17 3 -12 2 -27 -2 -33 -15 -19 -75 -48 -82 -39 -9 13 -81 16 -81 4
0 -12 -50 -6 -110 12 -32 10 -121 12 -165 3 -11 -2 -179 -4 -374 -4 -195 -1
-351 -4 -348 -7 4 -4 208 -7 454 -8 l448 -1 74 -27 c76 -28 103 -27 130 6 7 9
18 16 24 16 5 0 3 -8 -6 -18 -10 -10 -17 -24 -17 -30 0 -7 -5 -11 -12 -10 -6
2 -15 -8 -19 -22 -4 -14 -7 -20 -8 -15 -1 12 -71 18 -71 6 0 -5 -16 -18 -36
-30 -19 -12 -32 -17 -29 -11 3 6 -1 7 -9 4 -9 -3 -16 -14 -16 -23 0 -13 -2
-13 -9 -2 -7 10 -13 11 -30 2 -11 -7 -21 -16 -21 -21 0 -6 -7 -10 -16 -10 -10
0 -14 -5 -10 -15 3 -10 -1 -18 -13 -23 -21 -8 -73 -67 -66 -74 3 -3 -1 -25 -9
-50 l-13 -45 26 5 c14 3 31 12 37 20 9 13 12 13 17 -2 4 -9 1 -16 -6 -16 -9 0
-8 -3 1 -9 10 -6 8 -10 -10 -15 -22 -7 -22 -7 -3 -17 18 -8 17 -9 -5 -4 -14 2
-31 5 -38 5 -7 0 -10 5 -6 11 4 8 -1 9 -16 4 -15 -5 -20 -4 -16 4 4 6 3 11 -1
11 -16 0 -14 62 3 114 20 63 73 129 125 159 43 24 52 42 17 34 -22 -5 -528
-11 -761 -8 l-108 1 6 128 c3 70 12 341 20 602 37 1167 46 1344 70 1354 10 3
1786 10 1847 7 15 -1 17 -27 16 -301 0 -169 -4 -302 -9 -306 -5 -3 -9 1 -9 9
0 49 -106 251 -128 242 -7 -3 -10 0 -7 6 9 14 -15 41 -31 35 -8 -3 -13 0 -11
7 1 7 -6 11 -15 11 -10 -1 -15 2 -13 7 12 19 -143 71 -180 60 -5 -1 -26 -4
-45 -6 -64 -7 -75 -10 -89 -23 -7 -7 -20 -11 -28 -7 -11 3 -13 1 -9 -10 5 -13
-5 -20 -26 -16 -5 0 -8 -5 -8 -13 0 -8 -8 -17 -18 -21 -11 -3 -24 -15 -30 -28
-7 -12 -21 -33 -32 -47 -30 -37 -42 -124 -31 -215 8 -63 14 -82 37 -106 15
-16 24 -32 21 -36 -4 -3 -7 0 -7 7 0 7 -3 11 -6 8 -3 -3 -1 -14 5 -25 5 -10
13 -31 18 -48 7 -26 8 -23 11 27 3 55 4 57 30 55 23 -2 27 2 27 23 0 18 -6 26
-23 28 -13 2 -30 -2 -38 -8 -11 -10 -14 -9 -14 8 0 14 10 24 33 31 25 9 29 14
17 21 -8 5 -24 7 -36 4 -21 -5 -21 -4 -12 48 11 63 54 116 85 103 10 -5 22 -7
26 -6 5 1 11 -8 14 -19 4 -13 17 -23 35 -27 l29 -6 -31 -18 c-29 -18 -40 -39
-20 -39 6 0 28 9 49 19 30 16 45 18 77 11 21 -5 60 -10 86 -10 38 0 48 -4 53
-20 4 -12 16 -29 27 -39 27 -26 38 -163 15 -207 -41 -79 -148 -166 -217 -176
-29 -5 -41 0 -71 26 -20 17 -47 40 -61 51 -13 11 -33 34 -45 50 l-22 30 -1
-36 c0 -20 6 -42 14 -48 19 -16 26 -57 12 -72 -8 -8 -8 -10 0 -6 21 12 12 -57
-10 -75 -20 -17 -20 -18 -1 -11 18 6 18 5 6 -10 -7 -9 -19 -17 -26 -17 -7 0
-15 -8 -18 -19 -3 -11 -17 -21 -39 -25 l-35 -6 49 -49 c37 -37 48 -55 47 -77
-1 -16 0 -95 1 -176 2 -140 3 -147 25 -168 21 -20 28 -21 53 -11 33 14 79 1
88 -24 9 -21 15 -19 67 21 47 36 47 38 45 90 -2 44 -6 54 -20 54 -10 0 -18 4
-18 10 0 5 8 7 18 4 10 -3 9 0 -4 7 -34 18 -54 119 -23 119 4 0 13 10 20 22
10 18 9 20 -4 15 -22 -8 -28 16 -26 99 1 66 -1 80 -14 114 -11 31 -27 83 -27
91 0 4 14 0 31 -8 25 -12 49 -14 114 -9 76 6 83 5 87 -12 3 -11 2 -26 -3 -34
-4 -8 -10 -28 -13 -44 -3 -16 -10 -49 -15 -74 -35 -164 -42 -261 -26 -384 8
-59 -7 -182 -27 -219 -5 -10 -7 -21 -4 -24 3 -3 12 10 20 28 9 22 15 28 15 16
1 -11 -15 -35 -34 -54 -45 -45 -38 -54 16 -19 22 15 43 26 45 23 2 -2 5 -16 6
-31 l2 -27 28 33 c15 18 37 52 48 75 12 24 60 78 114 127 88 80 93 88 105 143
7 32 20 71 28 86 8 16 12 31 9 34 -3 4 -6 0 -6 -7 0 -24 -13 -1 -16 29 -2 17
1 33 6 36 6 3 10 14 10 23 0 14 -2 15 -10 2 -14 -23 -21 -7 -23 56 l-2 59 37
-3 c38 -3 38 -2 34 30 -2 18 -7 292 -11 610 l-7 576 23 4 c33 4 34 52 2 56
-13 2 -23 8 -23 13 0 12 -97 12 -105 -1 -8 -13 -1692 -12 -1820 1 -152 15
-169 15 -202 0z m2070 -358 c-7 -2 -21 -2 -30 0 -10 3 -4 5 12 5 17 0 24 -2
18 -5z m44 1 c-3 -3 -12 -4 -19 -1 -8 3 -5 6 6 6 11 1 17 -2 13 -5z m-724 -59
c-3 -9 -8 -14 -10 -11 -3 3 -2 9 2 15 9 16 15 13 8 -4z m-1293 -15 c18 -12 2
-12 -25 0 -13 6 -15 9 -5 9 8 0 22 -4 30 -9z m-33 -42 c-3 -7 -5 -2 -5 12 0
14 2 19 5 13 2 -7 2 -19 0 -25z m12 -353 c-11 -388 -13 -425 -22 -416 -6 6 -9
472 -3 571 8 128 8 127 16 95 7 -29 8 -29 9 9 0 22 3 37 5 35 2 -2 0 -134 -5
-294z m1321 45 c0 -5 -4 -10 -10 -10 -5 0 -10 5 -10 10 0 6 5 10 10 10 6 0 10
-4 10 -10z m305 -300 c3 -5 2 -10 -4 -10 -5 0 -13 5 -16 10 -3 6 -2 10 4 10 5
0 13 -4 16 -10z m-11 -16 c29 -11 17 -24 -21 -23 -27 1 -31 3 -14 6 19 4 21 7
10 14 -16 10 1 12 25 3z m-1678 -497 c-10 -227 -19 -432 -21 -457 -1 -25 -3
-63 -4 -85 -1 -23 -5 -35 -10 -30 -5 6 1 200 15 460 13 248 24 473 24 500 1
28 4 44 7 37 3 -7 -2 -199 -11 -425z m1581 276 c-3 -10 -5 -4 -5 12 0 17 2 24
5 18 2 -7 2 -21 0 -30z m63 -347 c0 -14 -4 -27 -8 -30 -5 -3 -9 8 -9 24 0 17
4 30 9 30 4 0 8 -11 8 -24z m-1620 -278 c0 -43 -3 -59 -11 -51 -9 9 -3 113 7
113 2 0 4 -28 4 -62z m-14 -119 c0 -33 -3 -45 -7 -33 -13 33 -9 84 6 84 1 0 1
-23 1 -51z m1193 -61 c-6 -12 -17 -27 -23 -31 -8 -6 -8 -10 1 -13 13 -6 6 -34
-9 -34 -5 0 -7 4 -3 9 3 5 1 12 -5 16 -14 9 -13 36 2 33 6 -2 18 10 26 25 7
16 16 26 19 24 2 -3 -1 -16 -8 -29z m28 -24 c-3 -3 -12 -4 -19 -1 -8 3 -5 6 6
6 11 1 17 -2 13 -5z m-14 -49 c-3 -9 -8 -14 -10 -11 -3 3 -2 9 2 15 9 16 15
13 8 -4z m-1134 -36 c5 8 13 7 27 -4 18 -14 18 -14 -4 -15 -12 0 -26 -8 -29
-17 -7 -20 -22 -33 -38 -33 -5 0 -3 5 5 10 20 13 4 13 -20 0 -15 -8 -20 -6
-25 10 -3 10 -1 28 5 39 9 17 14 19 41 9 23 -8 33 -8 38 1z m-109 -44 c0 -14
-6 -25 -13 -25 -8 0 -14 7 -14 15 0 8 4 12 9 9 4 -3 8 2 8 10 0 9 2 16 5 16 3
0 5 -11 5 -25z m1593 -22 c-7 -2 -19 -2 -25 0 -7 3 -2 5 12 5 14 0 19 -2 13
-5z m-586 -59 c14 -13 14 -17 2 -25 -8 -5 -22 -9 -31 -9 -16 0 -18 15 -9 48 3
7 25 0 38 -14z m-58 -26 c23 -62 23 -68 2 -68 -11 0 -23 5 -26 10 -4 6 -1 9 6
8 7 -2 14 6 16 17 3 14 1 16 -5 7 -6 -9 -9 -3 -9 18 0 36 5 38 16 8z m-24 -18
c-5 -8 -11 -8 -17 -2 -6 6 -7 16 -3 22 5 8 11 8 17 2 6 -6 7 -16 3 -22z m171
-28 c-5 -9 -25 -9 -46 -2 -3 1 6 5 20 9 28 9 35 7 26 -7z m1584 -23 c0 -4 -11
-6 -24 -5 -13 0 -22 4 -20 8 6 9 44 6 44 -3z m-2883 -35 c-3 -3 -12 -4 -19 -1
-8 3 -5 6 6 6 11 1 17 -2 13 -5z m2447 -27 c9 -15 6 -23 -17 -43 -41 -35 -87
-27 -87 15 0 46 80 68 104 28z m-196 -111 c5 -24 -36 -108 -51 -103 -7 2 -13
19 -15 39 -5 55 57 115 66 64z m393 3 c23 -23 22 -57 -2 -72 -9 -5 -32 -7 -52
-3 -33 6 -37 10 -37 36 0 18 8 34 22 44 30 21 44 20 69 -5z m-153 -34 c-3 -14
-1 -28 3 -31 5 -3 9 -14 9 -24 0 -11 11 -36 25 -56 14 -20 25 -33 25 -29 0 5
3 5 7 2 11 -12 -47 -57 -74 -57 -15 0 -37 10 -50 22 -13 12 -23 17 -23 11 0
-6 6 -13 14 -16 7 -3 13 -15 12 -28 -2 -34 -42 -32 -82 4 -26 22 -34 37 -34
63 0 22 6 37 15 40 20 8 67 -4 60 -16 -3 -5 -1 -11 5 -15 5 -3 10 -2 10 4 0 5
11 22 24 38 18 21 23 39 22 71 -2 36 1 42 17 42 15 0 18 -5 15 -25z m29 -17
c-3 -7 -5 -2 -5 12 0 14 2 19 5 13 2 -7 2 -19 0 -25z m-2067 -67 c0 -13 -26
-32 -33 -24 -14 13 -6 33 13 33 11 0 20 -4 20 -9z m2118 -116 c-3 -3 -9 2 -12
12 -6 14 -5 15 5 6 7 -7 10 -15 7 -18z m-98 -36 c0 -5 -4 -9 -10 -9 -5 0 -10
7 -10 16 0 8 5 12 10 9 6 -3 10 -10 10 -16z"/>
<path d="M512 2260 c0 -14 2 -19 5 -12 2 6 2 18 0 25 -3 6 -5 1 -5 -13z"/>
<path d="M512 2145 c0 -16 2 -22 5 -12 2 9 2 23 0 30 -3 6 -5 -1 -5 -18z"/>
<path d="M1999 2247 c-9 -7 -19 -22 -23 -35 -10 -31 16 -39 51 -15 15 10 42
25 58 32 28 12 28 14 10 22 -30 12 -78 10 -96 -4z m21 -27 c0 -5 -4 -10 -10
-10 -5 0 -10 5 -10 10 0 6 5 10 10 10 6 0 10 -4 10 -10z"/>
<path d="M432 2080 c0 -19 2 -27 5 -17 2 9 2 25 0 35 -3 9 -5 1 -5 -18z"/>
<path d="M1948 2053 c6 -2 18 -2 25 0 6 3 1 5 -13 5 -14 0 -19 -2 -12 -5z"/>
<path d="M1910 2040 c0 -6 7 -10 15 -10 8 0 15 2 15 4 0 2 -7 6 -15 10 -8 3
-15 1 -15 -4z"/>
<path d="M2058 2024 c-4 -3 -27 -6 -53 -6 -69 0 -127 -59 -72 -73 17 -5 42 4
83 29 32 20 65 36 72 36 6 0 12 5 12 10 0 11 -33 14 -42 4z"/>
<path d="M420 1946 c0 -41 -3 -83 -6 -93 -5 -15 -4 -15 5 -3 6 8 11 34 11 58
0 26 4 41 10 37 6 -3 10 3 10 15 0 13 -4 19 -11 14 -9 -5 -10 1 -5 20 4 15 2
26 -4 26 -6 0 -10 -30 -10 -74z"/>
<path d="M1275 1810 c-7 -23 2 -43 16 -35 12 8 12 55 0 55 -5 0 -12 -9 -16
-20z"/>
<path d="M1386 1784 c-9 -24 -7 -36 6 -32 13 5 22 48 9 48 -5 0 -12 -7 -15
-16z"/>
<path d="M1240 1719 c18 -62 61 -87 116 -69 42 14 85 70 54 70 -5 0 -10 -6
-10 -13 0 -24 -36 -47 -73 -47 -27 0 -41 7 -57 27 -12 15 -19 35 -17 45 3 11
0 18 -8 18 -10 0 -11 -7 -5 -31z"/>
<path d="M1650 1690 c-13 -8 -13 -10 2 -10 9 0 20 5 23 10 8 13 -5 13 -25 0z"/>
<path d="M1575 1680 c-4 -6 -2 -10 3 -10 5 0 39 -27 76 -61 80 -73 89 -62 11
15 -58 57 -81 71 -90 56z"/>
<path d="M1686 1665 c4 -8 11 -15 16 -15 6 0 5 6 -2 15 -7 8 -14 15 -16 15 -2
0 -1 -7 2 -15z"/>
<path d="M401 1604 c0 -11 3 -14 6 -6 3 7 2 16 -1 19 -3 4 -6 -2 -5 -13z"/>
<path d="M2562 1590 c0 -14 2 -19 5 -12 2 6 2 18 0 25 -3 6 -5 1 -5 -13z"/>
<path d="M1670 1511 c0 -6 4 -13 10 -16 6 -3 7 1 4 9 -7 18 -14 21 -14 7z"/>
<path d="M393 1415 c0 -33 2 -45 4 -27 2 18 2 45 0 60 -2 15 -4 0 -4 -33z"/>
<path d="M975 1360 c-3 -5 -2 -10 4 -10 5 0 13 5 16 10 3 6 2 10 -4 10 -5 0
-13 -4 -16 -10z"/>
<path d="M1110 1324 c0 -8 5 -12 10 -9 6 3 10 10 10 16 0 5 -4 9 -10 9 -5 0
-10 -7 -10 -16z"/>
<path d="M2140 1330 c-13 -8 -12 -10 3 -10 9 0 17 5 17 10 0 12 -1 12 -20 0z"/>
<path d="M1673 1315 c-3 -9 -3 -18 -1 -21 3 -3 8 4 11 16 6 23 -1 27 -10 5z"/>
<path d="M1469 1289 c-10 -6 -7 -9 14 -9 29 0 35 5 14 13 -8 3 -20 1 -28 -4z"/>
<path d="M1076 1274 c-10 -25 1 -29 14 -5 6 12 7 21 1 21 -5 0 -12 -7 -15 -16z"/>
<path d="M1740 1217 c-20 -18 -26 -28 -15 -23 11 5 29 11 40 13 l20 5 -20 -15
c-11 -9 -28 -17 -38 -17 -11 0 -15 -5 -11 -11 3 -6 17 -9 30 -6 13 2 24 0 24
-5 0 -5 5 -6 11 -3 6 4 17 -1 25 -11 13 -16 15 -16 10 -2 -3 9 -10 35 -16 57
-6 22 -14 42 -18 45 -4 2 -23 -10 -42 -27z"/>
<path d="M1126 1137 c-15 -11 -16 -17 -5 -40 15 -33 33 -30 37 6 2 15 8 27 13
27 5 0 9 5 9 10 0 14 -33 12 -54 -3z"/>
<path d="M1689 1073 c4 -16 6 -44 4 -65 -2 -20 1 -39 6 -43 7 -4 11 6 11 27 0
49 -11 108 -21 108 -4 0 -4 -12 0 -27z"/>
<path d="M370 1060 c0 -11 5 -20 10 -20 6 0 10 9 10 20 0 11 -4 20 -10 20 -5
0 -10 -9 -10 -20z"/>
<path d="M1080 1053 c0 -4 20 -26 45 -49 32 -30 51 -41 65 -37 27 7 26 23 -2
23 -17 0 -19 3 -10 12 18 18 15 26 -10 27 -44 1 -57 4 -55 15 1 5 -6 12 -15
14 -10 2 -18 0 -18 -5z"/>
<path d="M373 995 c0 -22 2 -30 4 -17 2 12 2 30 0 40 -3 9 -5 -1 -4 -23z"/>
<path d="M1670 921 c0 -6 5 -13 10 -16 6 -3 10 1 10 9 0 9 -4 16 -10 16 -5 0
-10 -4 -10 -9z"/>
<path d="M2195 902 c-16 -10 -32 -18 -34 -20 -3 -1 4 -12 15 -23 l21 -20 15
40 c9 23 16 41 15 40 -1 0 -15 -8 -32 -17z"/>
<path d="M1626 887 c3 -10 9 -15 12 -12 3 3 0 11 -7 18 -10 9 -11 8 -5 -6z"/>
<path d="M362 820 c0 -14 2 -19 5 -12 2 6 2 18 0 25 -3 6 -5 1 -5 -13z"/>
<path d="M1993 673 c9 -2 23 -2 30 0 6 3 -1 5 -18 5 -16 0 -22 -2 -12 -5z"/>
<path d="M1246 574 c-5 -14 -4 -15 9 -4 17 14 19 20 6 20 -5 0 -12 -7 -15 -16z"/>
<path d="M2605 520 c-3 -6 1 -7 9 -4 18 7 21 14 7 14 -6 0 -13 -4 -16 -10z"/>
<path d="M3101 423 c7 -12 15 -20 18 -17 3 2 -3 12 -13 22 -17 16 -18 16 -5
-5z"/>
<path d="M0 392 c0 -5 7 -9 15 -9 8 0 15 4 15 9 0 4 -7 8 -15 8 -8 0 -15 -4
-15 -8z"/>
<path d="M3186 325 c-3 -8 -1 -15 4 -15 6 0 10 7 10 15 0 8 -2 15 -4 15 -2 0
-6 -7 -10 -15z"/>
<path d="M2950 295 c0 -8 8 -11 20 -8 11 3 20 7 20 8 0 1 -9 5 -20 8 -12 3
-20 0 -20 -8z"/>
<path d="M2960 270 c0 -5 9 -10 21 -10 11 0 17 5 14 10 -3 6 -13 10 -21 10 -8
0 -14 -4 -14 -10z"/>
<path d="M2940 264 c0 -16 39 -34 57 -27 17 7 17 6 1 -11 -10 -9 -18 -25 -17
-34 0 -14 2 -13 9 3 8 19 8 19 16 1 4 -10 2 -27 -4 -37 -9 -15 -8 -20 6 -28 9
-6 12 -11 5 -11 -21 0 -15 -28 7 -35 12 -4 24 -22 31 -46 l12 -39 69 0 68 0 0
45 c0 27 -5 45 -11 45 -8 0 -7 6 2 17 12 15 12 16 -3 10 -12 -4 -18 -2 -18 8
0 8 -4 15 -9 15 -5 0 -17 7 -25 16 -15 14 -17 14 -32 0 -8 -9 -22 -16 -29 -16
-20 0 -64 61 -62 85 1 14 -5 20 -20 21 -13 1 -29 7 -38 14 -8 7 -15 8 -15 4z"/>
<path d="M2918 186 c-22 -16 -24 -30 -3 -23 11 5 13 -1 9 -26 -4 -22 -3 -28 4
-18 12 16 27 -3 18 -24 -3 -8 -1 -17 5 -20 18 -12 20 23 3 74 -9 28 -17 51
-18 51 0 0 -9 -7 -18 -14z"/>
</g>
</svg>
